<svg width="100%" height="100%" viewBox="0 0 33 32" fill="none" xmlns="http://www.w3.org/2000/svg">
<path d="M16.683 28.9609C16.3246 28.9609 15.9674 28.8991 15.6112 28.7754C15.255 28.6517 14.9369 28.4662 14.6571 28.2189C13.1372 26.8478 11.7967 25.5227 10.6353 24.2435C9.47394 22.9643 8.50534 21.7177 7.7295 20.5036C6.95366 19.2896 6.36814 18.1044 5.97297 16.9478C5.57781 15.7913 5.38023 14.6502 5.38023 13.5246C5.38023 10.019 6.51684 7.22612 8.79007 5.1461C11.0633 3.06607 13.6958 2.02606 16.6875 2.02606C19.6792 2.02606 22.3117 3.06607 24.5849 5.1461C26.8582 7.22612 27.9948 10.019 27.9948 13.5246C27.9948 14.6502 27.7972 15.7913 27.402 16.9478C27.0069 18.1044 26.4213 19.2896 25.6455 20.5036C24.8697 21.7177 23.9011 22.9643 22.7397 24.2435C21.5783 25.5227 20.2378 26.8478 18.7179 28.2189C18.4364 28.4662 18.1164 28.6517 17.7581 28.7754C17.3997 28.8991 17.0414 28.9609 16.683 28.9609ZM16.6875 16.1884C17.4836 16.1884 18.1585 15.9116 18.7121 15.358C19.2658 14.8043 19.5426 14.1295 19.5426 13.3333C19.5426 12.5372 19.2658 11.8623 18.7121 11.3087C18.1585 10.7551 17.4836 10.4783 16.6875 10.4783C15.8914 10.4783 15.2165 10.7551 14.6629 11.3087C14.1092 11.8623 13.8324 12.5372 13.8324 13.3333C13.8324 14.1295 14.1092 14.8043 14.6629 15.358C15.2165 15.9116 15.8914 16.1884 16.6875 16.1884Z" fill="#383838"/>
</svg>
