<svg width="49" height="48" viewBox="0 0 49 48" fill="none" xmlns="http://www.w3.org/2000/svg">
<path d="M0.5 24C0.5 10.7452 11.2452 0 24.5 0C37.7548 0 48.5 10.7452 48.5 24C48.5 37.2548 37.7548 48 24.5 48C11.2452 48 0.5 37.2548 0.5 24Z" fill="#F8F8F8"/>
<path d="M24.6875 33.2913C27.3107 30.9029 29.2621 28.7705 30.5418 26.8942C31.8215 25.0179 32.4614 23.228 32.4614 21.5246C32.4614 19.1907 31.7109 17.2797 30.21 15.7916C28.7091 14.3035 26.868 13.5594 24.6868 13.5594C22.5056 13.5594 20.6648 14.3035 19.1643 15.7916C17.6638 17.2797 16.9136 19.1907 16.9136 21.5246C16.9136 23.228 17.5535 25.0147 18.8332 26.8848C20.1129 28.7548 22.0643 30.8903 24.6875 33.2913ZM24.683 36.9609C24.3246 36.9609 23.9674 36.8991 23.6112 36.7754C23.255 36.6517 22.9369 36.4662 22.6571 36.2189C21.1372 34.8478 19.7967 33.5227 18.6353 32.2435C17.4739 30.9643 16.5053 29.7177 15.7295 28.5036C14.9537 27.2896 14.3681 26.1044 13.973 24.9478C13.5778 23.7913 13.3802 22.6502 13.3802 21.5246C13.3802 18.019 14.5168 15.2261 16.7901 13.1461C19.0633 11.0661 21.6958 10.0261 24.6875 10.0261C27.6792 10.0261 30.3117 11.0661 32.5849 13.1461C34.8582 15.2261 35.9948 18.019 35.9948 21.5246C35.9948 22.6502 35.7972 23.7913 35.402 24.9478C35.0069 26.1044 34.4213 27.2896 33.6455 28.5036C32.8697 29.7177 31.9011 30.9643 30.7397 32.2435C29.5783 33.5227 28.2378 34.8478 26.7179 36.2189C26.4364 36.4662 26.1164 36.6517 25.7581 36.7754C25.3997 36.8991 25.0414 36.9609 24.683 36.9609ZM24.6875 24.1884C25.4836 24.1884 26.1585 23.9116 26.7121 23.358C27.2658 22.8043 27.5426 22.1295 27.5426 21.3333C27.5426 20.5372 27.2658 19.8623 26.7121 19.3087C26.1585 18.7551 25.4836 18.4783 24.6875 18.4783C23.8914 18.4783 23.2165 18.7551 22.6629 19.3087C22.1092 19.8623 21.8324 20.5372 21.8324 21.3333C21.8324 22.1295 22.1092 22.8043 22.6629 23.358C23.2165 23.9116 23.8914 24.1884 24.6875 24.1884Z" fill="#383838"/>
</svg>
