<svg width="49" height="48" viewBox="0 0 49 48" fill="none" xmlns="http://www.w3.org/2000/svg">
<path d="M0.5 24C0.5 10.7452 11.2452 0 24.5 0C37.7548 0 48.5 10.7452 48.5 24C48.5 37.2548 37.7548 48 24.5 48C11.2452 48 0.5 37.2548 0.5 24Z" fill="#FDE6E6"/>
<path d="M24.0582 31.3073C24.5896 31.3073 25.0364 31.1275 25.3988 30.7681C25.7611 30.4086 25.9422 29.9632 25.9422 29.4318C25.9422 28.9004 25.7625 28.4505 25.403 28.0819C25.0436 27.7133 24.5982 27.529 24.0668 27.529C23.5354 27.529 23.0886 27.7133 22.7262 28.0819C22.3639 28.4505 22.1828 28.9004 22.1828 29.4318C22.1828 29.9632 22.3625 30.4086 22.722 30.7681C23.0814 31.1275 23.5268 31.3073 24.0582 31.3073ZM24.0625 25.371C24.5533 25.371 24.9705 25.1993 25.314 24.8558C25.6575 24.5123 25.8292 24.0952 25.8292 23.6043V18.7043C25.8292 18.2135 25.6575 17.7964 25.314 17.4529C24.9705 17.1094 24.5533 16.9377 24.0625 16.9377C23.5717 16.9377 23.1545 17.1094 22.811 17.4529C22.4675 17.7964 22.2958 18.2135 22.2958 18.7043V23.6043C22.2958 24.0952 22.4675 24.5123 22.811 24.8558C23.1545 25.1993 23.5717 25.371 24.0625 25.371ZM24.0625 37.9739C22.1176 37.9739 20.2964 37.6077 18.599 36.8753C16.9015 36.1428 15.425 35.1488 14.1694 33.8931C12.9137 32.6375 11.9197 31.161 11.1872 29.4635C10.4548 27.7661 10.0886 25.9449 10.0886 24C10.0886 22.0551 10.4548 20.2339 11.1872 18.5365C11.9197 16.839 12.9137 15.3625 14.1694 14.1069C15.425 12.8512 16.9015 11.8572 18.599 11.1247C20.2964 10.3923 22.1176 10.0261 24.0625 10.0261C26.0074 10.0261 27.8286 10.3923 29.526 11.1247C31.2235 11.8572 32.7 12.8512 33.9556 14.1069C35.2113 15.3625 36.2053 16.839 36.9378 18.5365C37.6702 20.2339 38.0364 22.0551 38.0364 24C38.0364 25.9449 37.6702 27.7661 36.9378 29.4635C36.2053 31.161 35.2113 32.6375 33.9556 33.8931C32.7 35.1488 31.2235 36.1428 29.526 36.8753C27.8286 37.6077 26.0074 37.9739 24.0625 37.9739Z" fill="#EB0000"/>
</svg>
