<svg width="100%" height="100%" viewBox="0 0 49 48" fill="none" xmlns="http://www.w3.org/2000/svg">
<path d="M0.5 24C0.5 10.7452 11.2452 0 24.5 0C37.7548 0 48.5 10.7452 48.5 24C48.5 37.2548 37.7548 48 24.5 48C11.2452 48 0.5 37.2548 0.5 24Z" fill="white"/>
<path d="M4.5 24C4.5 12.9543 13.4543 4 24.5 4C35.5457 4 44.5 12.9543 44.5 24C44.5 35.0457 35.5457 44 24.5 44C13.4543 44 4.5 35.0457 4.5 24Z" fill="#DF3333"/>
<path d="M24.5 26.1826L25.7739 27.163C26.0232 27.3601 26.2868 27.3643 26.5647 27.1755C26.8426 26.9868 26.9304 26.738 26.8282 26.4293L26.313 24.7978L27.7619 23.6674C28.0112 23.4703 28.0824 23.2239 27.9755 22.9283C27.8686 22.6326 27.6561 22.4848 27.338 22.4848H25.6706L25.1304 20.8283C25.0282 20.5196 24.8181 20.3652 24.5 20.3652C24.1819 20.3652 23.9717 20.5196 23.8695 20.8283L23.3293 22.4848H21.637C21.3188 22.4848 21.1105 22.6326 21.0119 22.9283C20.9134 23.2239 20.984 23.4703 21.2239 23.6674L22.6369 24.7978L22.1217 26.4685C22.0195 26.7772 22.1014 27.0235 22.3674 27.2076C22.6333 27.3917 22.8945 27.3851 23.1511 27.188L24.5 26.1826ZM16.6696 32.4804C15.9311 32.4804 15.3049 32.2234 14.7907 31.7092C14.2766 31.1951 14.0195 30.5688 14.0195 29.8304V26.3706C14.0195 26.1873 14.0755 26.0313 14.1875 25.9027C14.2994 25.7741 14.447 25.6931 14.6304 25.6598C15.021 25.5453 15.3501 25.3389 15.6179 25.0407C15.8856 24.7425 16.0195 24.3956 16.0195 24C16.0195 23.5949 15.8856 23.2433 15.6179 22.9451C15.3501 22.6469 15.021 22.4453 14.6304 22.3402C14.447 22.3069 14.2994 22.2259 14.1875 22.0973C14.0755 21.9686 14.0195 21.8127 14.0195 21.6293V18.1696C14.0195 17.4311 14.2766 16.8049 14.7907 16.2907C15.3049 15.7766 15.9311 15.5195 16.6696 15.5195H32.3304C33.0688 15.5195 33.6951 15.7766 34.2092 16.2907C34.7234 16.8049 34.9804 17.4311 34.9804 18.1696V21.6435C34.9804 21.8268 34.9245 21.9804 34.8125 22.1043C34.7006 22.2282 34.5529 22.3069 34.3696 22.3402C33.979 22.4453 33.6498 22.6469 33.3821 22.9451C33.1143 23.2433 32.9804 23.5949 32.9804 24C32.9804 24.3956 33.1143 24.7425 33.3821 25.0407C33.6498 25.3389 33.979 25.5453 34.3696 25.6598C34.5529 25.6931 34.7006 25.7717 34.8125 25.8956C34.9245 26.0195 34.9804 26.1731 34.9804 26.3565V29.8304C34.9804 30.5688 34.7234 31.1951 34.2092 31.7092C33.6951 32.2234 33.0688 32.4804 32.3304 32.4804H16.6696Z" fill="white"/>
</svg>
