<svg width="100%" height="100%" viewBox="0 0 49 48" fill="none" xmlns="http://www.w3.org/2000/svg">
<path d="M0.5 24C0.5 10.7452 11.2452 0 24.5 0C37.7548 0 48.5 10.7452 48.5 24C48.5 37.2548 37.7548 48 24.5 48C11.2452 48 0.5 37.2548 0.5 24Z" fill="white"/>
<path d="M4.5 24C4.5 12.9543 13.4543 4 24.5 4C35.5457 4 44.5 12.9543 44.5 24C44.5 35.0457 35.5457 44 24.5 44C13.4543 44 4.5 35.0457 4.5 24Z" fill="#8D00E4"/>
<path d="M22.0565 34.05C21.6695 34.1616 21.3425 34.1142 21.0755 33.9076C20.8084 33.7011 20.6749 33.3996 20.6749 33.0033C20.6749 32.8134 20.7289 32.617 20.8369 32.4141C20.9449 32.2112 21.0724 32.054 21.2195 31.9424L22.6749 30.8446V25.9381L15.888 27.9218C15.4155 28.0594 15.0119 28.0036 14.6771 27.7544C14.3423 27.5051 14.1749 27.1276 14.1749 26.6218C14.1749 26.3913 14.2432 26.1567 14.3798 25.9179C14.5164 25.6792 14.6869 25.504 14.8913 25.3924L22.6749 20.8022V15.5C22.6749 14.9725 22.8496 14.5364 23.1989 14.1918C23.5481 13.8473 23.9818 13.675 24.5 13.675C25.0275 13.675 25.4635 13.8473 25.8081 14.1918C26.1527 14.5364 26.325 14.9725 26.325 15.5V20.8022L34.1087 25.3924C34.313 25.504 34.4835 25.681 34.6201 25.9234C34.7567 26.1658 34.825 26.4069 34.825 26.6468C34.825 27.1359 34.6576 27.5051 34.3228 27.7544C33.988 28.0036 33.5844 28.0594 33.1119 27.9218L26.325 25.9381V30.8446L27.7945 31.9424C27.9416 32.054 28.0668 32.2112 28.1701 32.4141C28.2733 32.617 28.325 32.8134 28.325 33.0033C28.325 33.3997 28.1915 33.7011 27.9244 33.9076C27.6574 34.1142 27.3304 34.1616 26.9434 34.05L24.5 33.3533L22.0565 34.05Z" fill="white"/>
</svg>
