<svg width="100%" height="100%" viewBox="0 0 49 48" fill="none" xmlns="http://www.w3.org/2000/svg">
<path d="M0.5 24C0.5 10.7452 11.2452 0 24.5 0C37.7548 0 48.5 10.7452 48.5 24C48.5 37.2548 37.7548 48 24.5 48C11.2452 48 0.5 37.2548 0.5 24Z" fill="#F8F8F8"/>
<path d="M17.7095 12C18.9651 12 20.1609 12.2605 21.2969 12.7814C22.4329 13.3024 23.3964 14.0354 24.1875 14.9806C24.9785 14.0354 25.9421 13.3024 27.0781 12.7814C28.2141 12.2605 29.4099 12 30.6654 12C32.8821 12 34.7559 12.7607 36.2867 14.2821C37.8175 15.8034 38.5829 17.6656 38.5829 19.8687C38.5829 20.59 38.4874 21.3127 38.2964 22.0365C38.1054 22.7604 37.838 23.4745 37.4942 24.1788C37.1499 23.7451 36.7459 23.3848 36.2821 23.098C35.8183 22.8112 35.3131 22.6177 34.7663 22.5175C34.9676 22.0605 35.1242 21.6134 35.2361 21.1762C35.348 20.7391 35.4039 20.3032 35.4039 19.8687C35.4039 18.5546 34.9447 17.4413 34.0263 16.5285C33.1079 15.6158 31.9876 15.1594 30.6654 15.1594C29.1929 15.1594 28.0274 15.5341 27.1689 16.2836C26.3105 17.033 25.3167 18.0665 24.1875 19.384C23.0583 18.0579 22.0645 17.0223 21.206 16.2771C20.3476 15.532 19.1821 15.1594 17.7095 15.1594C16.3874 15.1594 15.2671 15.6158 14.3487 16.5285C13.4303 17.4413 12.9711 18.5546 12.9711 19.8687C12.9711 20.3032 13.027 20.7391 13.1389 21.1762C13.2507 21.6134 13.4074 22.0605 13.6087 22.5175C13.0732 22.6177 12.5736 22.814 12.1098 23.1064C11.646 23.3989 11.2364 23.762 10.8808 24.1956C10.5322 23.4803 10.2636 22.7607 10.075 22.0367C9.88637 21.3127 9.79206 20.59 9.79206 19.8687C9.79206 17.6656 10.5575 15.8034 12.0883 14.2821C13.6191 12.7607 15.4929 12 17.7095 12ZM11.1104 36C10.6687 36 10.2934 35.8464 9.98439 35.5393C9.67535 35.2322 9.52083 34.8592 9.52083 34.4203V33.8527C9.52083 32.8969 9.98894 32.1311 10.9252 31.5555C11.8614 30.9798 13.0832 30.692 14.5905 30.692C14.7535 30.692 14.9072 30.6963 15.0514 30.705C15.1956 30.7136 15.3366 30.7265 15.4746 30.7438C15.1721 31.1974 14.9474 31.6796 14.8004 32.1904C14.6535 32.7013 14.5801 33.2454 14.5801 33.8229V36H11.1104ZM18.3081 36C17.8665 36 17.4911 35.8464 17.1821 35.5393C16.8731 35.2322 16.7185 34.8592 16.7185 34.4203V33.8229C16.7185 32.4513 17.4059 31.3382 18.7807 30.4836C20.1555 29.629 21.9578 29.2017 24.1875 29.2017C26.4282 29.2017 28.2332 29.629 29.6025 30.4836C30.9718 31.3382 31.6564 32.4513 31.6564 33.8229V34.4203C31.6564 34.8592 31.5019 35.2322 31.1929 35.5393C30.8838 35.8464 30.5085 36 30.0669 36H18.3081ZM33.7949 36V33.8229C33.7949 33.2501 33.7193 32.7043 33.568 32.1855C33.4168 31.6667 33.1942 31.1862 32.9004 30.7438C33.0384 30.7265 33.1794 30.7136 33.3236 30.705C33.4678 30.6963 33.6214 30.692 33.7844 30.692C35.2918 30.692 36.5136 30.9798 37.4498 31.5555C38.386 32.1311 38.8542 32.8969 38.8542 33.8527V34.4203C38.8542 34.8592 38.6996 35.2322 38.3906 35.5393C38.0816 35.8464 37.7062 36 37.2646 36H33.7949ZM24.1875 32.041C23.2626 32.041 22.4096 32.1529 21.6286 32.3767C20.8475 32.6004 20.3148 32.8618 20.0306 33.1607H28.3444C28.0514 32.8531 27.5166 32.5896 26.7399 32.3702C25.9632 32.1507 25.1124 32.041 24.1875 32.041ZM14.5905 29.5672C13.8742 29.5672 13.267 29.3196 12.7689 28.8246C12.2708 28.3296 12.0218 27.7261 12.0218 27.0142C12.0218 26.3024 12.2708 25.6989 12.7689 25.2039C13.267 24.7088 13.8742 24.4613 14.5905 24.4613C15.3068 24.4613 15.914 24.7088 16.4121 25.2039C16.9102 25.6989 17.1593 26.3024 17.1593 27.0142C17.1593 27.7261 16.9102 28.3296 16.4121 28.8246C15.914 29.3196 15.3068 29.5672 14.5905 29.5672ZM33.7844 29.5672C33.0682 29.5672 32.461 29.3196 31.9629 28.8246C31.4648 28.3296 31.2157 27.7261 31.2157 27.0142C31.2157 26.3024 31.4648 25.6989 31.9629 25.2039C32.461 24.7088 33.0682 24.4613 33.7844 24.4613C34.5007 24.4613 35.1079 24.7088 35.606 25.2039C36.1041 25.6989 36.3532 26.3024 36.3532 27.0142C36.3532 27.7261 36.1041 28.3296 35.606 28.8246C35.1079 29.3196 34.5007 29.5672 33.7844 29.5672ZM24.1835 28.3244C23.1074 28.3244 22.194 27.9501 21.4434 27.2014C20.6927 26.4528 20.3174 25.5437 20.3174 24.4742C20.3174 23.4047 20.6941 22.497 21.4474 21.751C22.2006 21.005 23.1153 20.6319 24.1915 20.6319C25.2676 20.6319 26.181 21.0063 26.9316 21.7549C27.6823 22.5036 28.0576 23.4126 28.0576 24.4821C28.0576 25.5516 27.6809 26.4594 26.9276 27.2054C26.1744 27.9514 25.2596 28.3244 24.1835 28.3244ZM24.1845 23.4544C23.8918 23.4544 23.6475 23.5528 23.4514 23.7496C23.2554 23.9464 23.1574 24.1902 23.1574 24.4811C23.1574 24.772 23.2564 25.0149 23.4544 25.2097C23.6524 25.4045 23.8978 25.5019 24.1905 25.5019C24.4832 25.5019 24.7275 25.4035 24.9235 25.2067C25.1196 25.01 25.2176 24.7661 25.2176 24.4752C25.2176 24.1843 25.1186 23.9415 24.9206 23.7467C24.7226 23.5518 24.4772 23.4544 24.1845 23.4544Z" fill="#383838"/>
</svg>
