<svg width="100%" height="100%" viewBox="0 0 49 48" fill="none" xmlns="http://www.w3.org/2000/svg">
<path d="M0.5 24C0.5 10.7452 11.2452 0 24.5 0C37.7548 0 48.5 10.7452 48.5 24C48.5 37.2548 37.7548 48 24.5 48C11.2452 48 0.5 37.2548 0.5 24Z" fill="#FEFAE9"/>
<path d="M4.5 24C4.5 12.9543 13.4543 4 24.5 4C35.5457 4 44.5 12.9543 44.5 24C44.5 35.0457 35.5457 44 24.5 44C13.4543 44 4.5 35.0457 4.5 24Z" fill="#F9C921"/>
<path d="M26.3304 30.8304L31.3304 25.8304H27.6555C27.2873 25.8304 26.9745 25.9592 26.7169 26.2169C26.4592 26.4745 26.3304 26.7873 26.3304 27.1555V30.8304ZM17.6696 33.4805C16.9408 33.4805 16.317 33.221 15.798 32.702C15.279 32.1831 15.0196 31.5592 15.0196 30.8304V17.1696C15.0196 16.4408 15.279 15.817 15.798 15.298C16.317 14.779 16.9408 14.5196 17.6696 14.5196H31.3304C32.0592 14.5196 32.6831 14.779 33.202 15.298C33.721 15.817 33.9805 16.4408 33.9805 17.1696V25.9772C33.9805 26.3309 33.914 26.6681 33.781 26.9887C33.648 27.3093 33.4569 27.5942 33.2076 27.8435L28.3435 32.7076C28.0942 32.9569 27.8093 33.148 27.4887 33.281C27.1681 33.414 26.8309 33.4805 26.4772 33.4805H17.6696ZM20.7685 26.1696H23.4435C23.7548 26.1696 24.0158 26.0629 24.2265 25.8496C24.4371 25.6363 24.5424 25.3719 24.5424 25.0565C24.5424 24.7452 24.4371 24.4842 24.2265 24.2736C24.0158 24.0629 23.7548 23.9576 23.4435 23.9576H20.7826C20.4673 23.9576 20.2029 24.063 19.9896 24.2736C19.7762 24.4843 19.6696 24.7454 19.6696 25.0568C19.6696 25.3682 19.7749 25.6315 19.9855 25.8468C20.1961 26.062 20.4571 26.1696 20.7685 26.1696ZM20.7685 21.9576H28.2315C28.5429 21.9576 28.8039 21.8509 29.0145 21.6376C29.2251 21.4243 29.3304 21.1599 29.3304 20.8446C29.3304 20.5332 29.2251 20.2722 29.0145 20.0616C28.8039 19.851 28.5429 19.7457 28.2315 19.7457H20.7826C20.4673 19.7457 20.2029 19.851 19.9896 20.0617C19.7762 20.2723 19.6696 20.5334 19.6696 20.8448C19.6696 21.1562 19.7749 21.4196 19.9855 21.6348C20.1961 21.85 20.4571 21.9576 20.7685 21.9576Z" fill="#FEFAE9"/>
</svg>
