<svg width="100%" height="100%" viewBox="0 0 49 48" fill="none" xmlns="http://www.w3.org/2000/svg">
<path d="M0.5 24C0.5 10.7452 11.2452 0 24.5 0C37.7548 0 48.5 10.7452 48.5 24C48.5 37.2548 37.7548 48 24.5 48C11.2452 48 0.5 37.2548 0.5 24Z" fill="#F8F8F8"/>
<path d="M24.9375 31.1C22.9675 31.1 21.2916 30.4092 19.9099 29.0276C18.5283 27.6459 17.8375 25.97 17.8375 24C17.8375 22.03 18.5283 20.3541 19.9099 18.9724C21.2916 17.5908 22.9675 16.9 24.9375 16.9C26.9075 16.9 28.5834 17.5908 29.9651 18.9724C31.3467 20.3541 32.0375 22.03 32.0375 24C32.0375 25.97 31.3467 27.6459 29.9651 29.0276C28.5834 30.4092 26.9075 31.1 24.9375 31.1ZM35.3781 24C35.3781 23.142 35.2827 22.3142 35.0918 21.5167C34.901 20.7191 34.6259 19.9628 34.2665 19.2478C34.051 18.8015 33.9757 18.336 34.0404 17.8515C34.1051 17.3669 34.337 16.9758 34.7361 16.6783C35.1351 16.3807 35.58 16.2763 36.0709 16.3652C36.5617 16.4541 36.9211 16.7106 37.1491 17.1348C37.7269 18.1599 38.1651 19.2461 38.4636 20.3935C38.7622 21.5408 38.9114 22.743 38.9114 24C38.9114 25.257 38.7566 26.4647 38.447 27.6232C38.1373 28.7816 37.6936 29.8734 37.1158 30.8986C36.8878 31.3227 36.5308 31.5768 36.0448 31.6609C35.5588 31.7449 35.1162 31.6382 34.7172 31.3406C34.3182 31.043 34.0839 30.6488 34.0143 30.158C33.9447 29.6671 34.0177 29.1985 34.2332 28.7522C34.5926 28.0372 34.8732 27.2833 35.0752 26.4906C35.2771 25.6978 35.3781 24.8676 35.3781 24ZM24.9375 13.5594C24.0699 13.5594 23.2397 13.6604 22.4469 13.8623C21.6542 14.0643 20.9003 14.3449 20.1853 14.7043C19.739 14.9198 19.2704 14.9928 18.7795 14.9232C18.2887 14.8536 17.8945 14.6193 17.5969 14.2203C17.2993 13.8213 17.1926 13.3787 17.2766 12.8927C17.3607 12.4067 17.6148 12.0497 18.0389 11.8217C19.0641 11.2439 20.1559 10.8002 21.3143 10.4905C22.4728 10.1809 23.6805 10.0261 24.9375 10.0261C26.1945 10.0261 27.4022 10.1809 28.5607 10.4905C29.7191 10.8002 30.8109 11.2439 31.8361 11.8217C32.2699 12.0497 32.5288 12.4036 32.6129 12.8833C32.6969 13.363 32.5902 13.8024 32.2926 14.2014C31.995 14.6005 31.6008 14.8379 31.11 14.9138C30.6191 14.9896 30.1505 14.9198 29.7041 14.7043C28.9892 14.3449 28.2329 14.0643 27.4353 13.8623C26.6377 13.6604 25.8051 13.5594 24.9375 13.5594ZM14.4969 24C14.4969 24.8676 14.5948 25.6978 14.7904 26.4906C14.986 27.2833 15.2636 28.0372 15.623 28.7522C15.8385 29.1985 15.9114 29.664 15.8418 30.1485C15.7723 30.6331 15.538 31.0242 15.1389 31.3217C14.7399 31.6193 14.3005 31.7261 13.8208 31.642C13.3411 31.558 12.9872 31.3039 12.7592 30.8797C12.1814 29.8546 11.7377 28.7659 11.428 27.6138C11.1184 26.4616 10.9636 25.257 10.9636 24C10.9636 22.743 11.1128 21.5408 11.4114 20.3935C11.7099 19.2461 12.1481 18.1599 12.7259 17.1348C12.9539 16.7106 13.3133 16.4541 13.8041 16.3652C14.295 16.2763 14.7399 16.3807 15.1389 16.6783C15.538 16.9758 15.7699 17.3669 15.8346 17.8515C15.8993 18.336 15.824 18.8015 15.6085 19.2478C15.2491 19.9628 14.974 20.7191 14.7832 21.5167C14.5923 22.3142 14.4969 23.142 14.4969 24ZM24.9375 34.4406C25.7955 34.4406 26.6233 34.3452 27.4208 34.1543C28.2184 33.9635 28.9747 33.6884 29.6897 33.329C30.136 33.1135 30.5991 33.0406 31.0788 33.1101C31.5585 33.1797 31.9472 33.414 32.2448 33.813C32.5423 34.2121 32.6491 34.6546 32.5651 35.1406C32.481 35.6266 32.2269 35.9836 31.8027 36.2116C30.7776 36.7894 29.6914 37.2276 28.544 37.5261C27.3967 37.8247 26.1945 37.9739 24.9375 37.9739C23.6805 37.9739 22.4783 37.8215 21.331 37.5167C20.1836 37.2119 19.0974 36.7706 18.0723 36.1928C17.6481 35.9648 17.3916 35.6085 17.3027 35.1239C17.2138 34.6394 17.3182 34.1976 17.6158 33.7986C17.9133 33.3995 18.3044 33.1676 18.789 33.1029C19.2735 33.0382 19.739 33.1135 20.1853 33.329C20.9003 33.6884 21.6566 33.9635 22.4542 34.1543C23.2517 34.3452 24.0795 34.4406 24.9375 34.4406Z" fill="#383838"/>
</svg>
