<svg width="100%" height="100%" viewBox="0 0 49 48" fill="none" xmlns="http://www.w3.org/2000/svg">
<path d="M0.5 24C0.5 10.7452 11.2452 0 24.5 0C37.7548 0 48.5 10.7452 48.5 24C48.5 37.2548 37.7548 48 24.5 48C11.2452 48 0.5 37.2548 0.5 24Z" fill="#E6F3E6"/>
<path d="M4.5 24C4.5 12.9543 13.4543 4 24.5 4C35.5457 4 44.5 12.9543 44.5 24C44.5 35.0457 35.5457 44 24.5 44C13.4543 44 4.5 35.0457 4.5 24Z" fill="#008A07"/>
<path d="M18.5424 31.4805V31.7261C18.5424 32.2134 18.3718 32.6277 18.0307 32.9688C17.6896 33.3099 17.2753 33.4805 16.788 33.4805C16.3054 33.4805 15.89 33.3064 15.5418 32.9582C15.1936 32.61 15.0195 32.1946 15.0195 31.712V24.3641C15.0195 24.2098 15.0302 24.0602 15.0516 23.9152C15.073 23.7703 15.1097 23.629 15.1619 23.4913L16.9945 18.2935C17.1844 17.7616 17.5038 17.333 17.9527 17.0076C18.4016 16.6822 18.9134 16.5196 19.488 16.5196H29.5119C30.0866 16.5196 30.5984 16.6822 31.0473 17.0076C31.4962 17.333 31.8156 17.7616 32.0054 18.2935L33.8381 23.4913C33.8902 23.629 33.927 23.7703 33.9484 23.9152C33.9697 24.0602 33.9804 24.2098 33.9804 24.3641V31.7261C33.9804 32.2134 33.8099 32.6277 33.4688 32.9688C33.1276 33.3099 32.7134 33.4805 32.2261 33.4805C31.7435 33.4805 31.3281 33.3064 30.9799 32.9582C30.6317 32.61 30.4576 32.1946 30.4576 31.712V31.4805H18.5424ZM18.4978 22H30.5022L29.5228 19.1696H19.4772L18.4978 22ZM20.0848 27.9152C20.5014 27.9152 20.8556 27.7694 21.1473 27.4777C21.4389 27.1861 21.5848 26.8319 21.5848 26.4152C21.5848 25.9986 21.4389 25.6444 21.1473 25.3527C20.8556 25.0611 20.5014 24.9152 20.0848 24.9152C19.6681 24.9152 19.3139 25.0611 19.0223 25.3527C18.7306 25.6444 18.5848 25.9986 18.5848 26.4152C18.5848 26.8319 18.7306 27.1861 19.0223 27.4777C19.3139 27.7694 19.6681 27.9152 20.0848 27.9152ZM28.9152 27.9152C29.3319 27.9152 29.686 27.7694 29.9777 27.4777C30.2694 27.1861 30.4152 26.8319 30.4152 26.4152C30.4152 25.9986 30.2694 25.6444 29.9777 25.3527C29.686 25.0611 29.3319 24.9152 28.9152 24.9152C28.4985 24.9152 28.1444 25.0611 27.8527 25.3527C27.561 25.6444 27.4152 25.9986 27.4152 26.4152C27.4152 26.8319 27.561 27.1861 27.8527 27.4777C28.1444 27.7694 28.4985 27.9152 28.9152 27.9152Z" fill="white"/>
</svg>
