<svg width="49" height="48" viewBox="0 0 49 48" fill="none" xmlns="http://www.w3.org/2000/svg">
<path d="M0.5 24C0.5 10.7452 11.2452 0 24.5 0C37.7548 0 48.5 10.7452 48.5 24C48.5 37.2548 37.7548 48 24.5 48C11.2452 48 0.5 37.2548 0.5 24Z" fill="white"/>
<path d="M4.5 24C4.5 12.9543 13.4543 4 24.5 4C35.5457 4 44.5 12.9543 44.5 24C44.5 35.0457 35.5457 44 24.5 44C13.4543 44 4.5 35.0457 4.5 24Z" fill="#0069E4"/>
<path d="M14.288 31.65C13.9482 31.65 13.6589 31.5306 13.4201 31.2919C13.1813 31.0531 13.0619 30.7638 13.0619 30.4239V16.8869C13.0619 16.5436 13.1813 16.2557 13.4201 16.0234C13.6589 15.7911 13.9482 15.675 14.288 15.675C14.6279 15.675 14.9148 15.7911 15.1489 16.0234C15.383 16.2557 15.5 16.5436 15.5 16.8869V26H23.712V20.325C23.712 19.5866 23.969 18.9603 24.4832 18.4462C24.9973 17.932 25.6236 17.675 26.362 17.675H31.5C32.7205 17.675 33.7653 18.1095 34.6344 18.9787C35.5035 19.8478 35.9381 20.8926 35.9381 22.113V30.4381C35.9381 30.7815 35.8219 31.0693 35.5896 31.3016C35.3573 31.5339 35.0695 31.65 34.7261 31.65C34.3862 31.65 34.0969 31.5306 33.8581 31.2919C33.6194 31.0531 33.5 30.7638 33.5 30.4239V28.65H15.5V30.4381C15.5 30.7815 15.3839 31.0693 15.1516 31.3016C14.9193 31.5339 14.6314 31.65 14.288 31.65ZM19.6164 25.113C18.7193 25.113 17.9568 24.7991 17.3289 24.1711C16.7009 23.5432 16.3869 22.7807 16.3869 21.8836C16.3869 20.9866 16.7009 20.2275 17.3289 19.6065C17.9568 18.9855 18.7193 18.675 19.6164 18.675C20.5134 18.675 21.2725 18.9855 21.8935 19.6065C22.5145 20.2275 22.825 20.9866 22.825 21.8836C22.825 22.7807 22.5145 23.5432 21.8935 24.1711C21.2725 24.7991 20.5134 25.113 19.6164 25.113Z" fill="white"/>
</svg>
