<svg width="100%" height="100%" viewBox="0 0 49 48" fill="none" xmlns="http://www.w3.org/2000/svg">
<path d="M0.5 24C0.5 10.7452 11.2452 0 24.5 0C37.7548 0 48.5 10.7452 48.5 24C48.5 37.2548 37.7548 48 24.5 48C11.2452 48 0.5 37.2548 0.5 24Z" fill="#E6F3E7"/>
<path d="M22.1393 25.7405L19.7625 23.3638C19.4427 23.0439 19.0437 22.884 18.5654 22.884C18.0871 22.884 17.6881 23.0439 17.3683 23.3638C17.0485 23.6836 16.8917 24.0826 16.898 24.5609C16.9043 25.0391 17.0673 25.4382 17.3871 25.758L20.8857 29.2565C21.2448 29.6111 21.6638 29.7884 22.1427 29.7884C22.6216 29.7884 23.0384 29.6111 23.3929 29.2565L30.6437 22.0058C30.9635 21.686 31.1234 21.2901 31.1234 20.8181C31.1234 20.3461 30.9635 19.9502 30.6437 19.6304C30.3238 19.3106 29.9248 19.1507 29.4465 19.1507C28.9683 19.1507 28.5692 19.3106 28.2494 19.6304L22.1393 25.7405ZM24.0625 37.9739C22.1176 37.9739 20.2964 37.6077 18.599 36.8753C16.9015 36.1428 15.425 35.1488 14.1694 33.8931C12.9137 32.6375 11.9197 31.161 11.1872 29.4635C10.4548 27.7661 10.0886 25.9449 10.0886 24C10.0886 22.0551 10.4548 20.2339 11.1872 18.5365C11.9197 16.839 12.9137 15.3625 14.1694 14.1069C15.425 12.8512 16.9015 11.8572 18.599 11.1247C20.2964 10.3923 22.1176 10.0261 24.0625 10.0261C26.0074 10.0261 27.8286 10.3923 29.526 11.1247C31.2235 11.8572 32.7 12.8512 33.9556 14.1069C35.2113 15.3625 36.2053 16.839 36.9378 18.5365C37.6702 20.2339 38.0364 22.0551 38.0364 24C38.0364 25.9449 37.6702 27.7661 36.9378 29.4635C36.2053 31.161 35.2113 32.6375 33.9556 33.8931C32.7 35.1488 31.2235 36.1428 29.526 36.8753C27.8286 37.6077 26.0074 37.9739 24.0625 37.9739Z" fill="#00820D"/>
</svg>
