<svg width="100%" height="100%" viewBox="0 0 49 48" fill="none" xmlns="http://www.w3.org/2000/svg">
<path d="M0.5 24C0.5 10.7452 11.2452 0 24.5 0C37.7548 0 48.5 10.7452 48.5 24C48.5 37.2548 37.7548 48 24.5 48C11.2452 48 0.5 37.2548 0.5 24Z" fill="#F8F8F8"/>
<path d="M24.25 23.6797C22.5949 23.6797 21.1855 23.0978 20.0217 21.934C18.858 20.7702 18.2761 19.3608 18.2761 17.7057C18.2761 16.0507 18.858 14.6444 20.0217 13.4869C21.1855 12.3294 22.5949 11.7506 24.25 11.7506C25.9051 11.7506 27.3145 12.3294 28.4783 13.4869C29.6421 14.6444 30.2239 16.0507 30.2239 17.7057C30.2239 19.3608 29.6421 20.7702 28.4783 21.934C27.3145 23.0978 25.9051 23.6797 24.25 23.6797ZM16.4761 35.6276C15.4916 35.6276 14.6565 35.2848 13.971 34.5993C13.2855 33.9138 12.9427 33.0787 12.9427 32.0942V31.216C12.9427 30.3473 13.1686 29.5461 13.6203 28.8123C14.072 28.0785 14.6766 27.5198 15.434 27.1362C16.8495 26.4348 18.2935 25.9055 19.7659 25.5485C21.2384 25.1915 22.7331 25.013 24.25 25.013C25.792 25.013 27.2993 25.1884 28.7717 25.5391C30.2442 25.8898 31.6756 26.4159 33.066 27.1174C33.8235 27.5009 34.4281 28.0565 34.8797 28.7841C35.3314 29.5116 35.5573 30.3222 35.5573 31.216V32.0942C35.5573 33.0787 35.2145 33.9138 34.529 34.5993C33.8435 35.2848 33.0085 35.6276 32.0239 35.6276H16.4761Z" fill="#707070"/>
</svg>
