<svg width="49" height="48" viewBox="0 0 49 48" fill="none" xmlns="http://www.w3.org/2000/svg">
<path d="M0.5 24C0.5 10.7452 11.2452 0 24.5 0C37.7548 0 48.5 10.7452 48.5 24C48.5 37.2548 37.7548 48 24.5 48C11.2452 48 0.5 37.2548 0.5 24Z" fill="#F8F8F8"/>
<path d="M24.25 23.6797C22.5949 23.6797 21.1855 23.0978 20.0217 21.934C18.8579 20.7702 18.2761 19.3608 18.2761 17.7057C18.2761 16.0507 18.8579 14.6444 20.0217 13.4869C21.1855 12.3294 22.5949 11.7506 24.25 11.7506C25.9051 11.7506 27.3145 12.3294 28.4783 13.4869C29.642 14.6444 30.2239 16.0507 30.2239 17.7057C30.2239 19.3608 29.642 20.7702 28.4783 21.934C27.3145 23.0978 25.9051 23.6797 24.25 23.6797ZM32.0239 35.6276H16.4761C15.4915 35.6276 14.6565 35.2848 13.971 34.5993C13.2855 33.9138 12.9427 33.0787 12.9427 32.0942V31.216C12.9427 30.3436 13.1698 29.5417 13.6239 28.8105C14.0781 28.0792 14.6814 27.5211 15.434 27.1362C16.8495 26.4348 18.2932 25.9055 19.7652 25.5485C21.2371 25.1915 22.732 25.013 24.25 25.013C25.792 25.013 27.2993 25.1884 28.7717 25.5391C30.2442 25.8898 31.6756 26.4159 33.066 27.1174C33.8185 27.5004 34.4219 28.0559 34.8761 28.7837C35.3302 29.5115 35.5573 30.3222 35.5573 31.216V32.0942C35.5573 33.0787 35.2145 33.9138 34.529 34.5993C33.8435 35.2848 33.0084 35.6276 32.0239 35.6276ZM16.4761 32.0942H32.0239V31.3102C32.0239 31.0779 31.9628 30.8668 31.8406 30.6767C31.7183 30.4867 31.5572 30.3389 31.3572 30.2334C30.2326 29.6836 29.078 29.265 27.8935 28.9776C26.7089 28.6901 25.4944 28.5464 24.25 28.5464C23.0307 28.5464 21.8162 28.6901 20.6065 28.9776C19.3969 29.265 18.2423 29.6836 17.1428 30.2334C16.9428 30.3389 16.7816 30.4867 16.6594 30.6767C16.5372 30.8668 16.4761 31.0779 16.4761 31.3102V32.0942ZM24.2493 20.1463C24.9203 20.1463 25.4949 19.9074 25.9732 19.4296C26.4514 18.9518 26.6906 18.3774 26.6906 17.7064C26.6906 17.0354 26.4516 16.464 25.9738 15.992C25.496 15.52 24.9216 15.284 24.2507 15.284C23.5797 15.284 23.0051 15.5211 22.5268 15.9954C22.0486 16.4697 21.8094 17.0398 21.8094 17.7057C21.8094 18.3769 22.0483 18.9514 22.5262 19.4294C23.004 19.9073 23.5783 20.1463 24.2493 20.1463Z" fill="#383838"/>
</svg>
