<svg width="32" height="32" viewBox="0 0 32 32" fill="none" xmlns="http://www.w3.org/2000/svg">
<path d="M29.1771 16C30.4614 16 31.5204 17.0469 31.3284 18.3167C30.959 20.7613 30.0082 23.0938 28.5418 25.1121C26.6175 27.7607 23.9041 29.7321 20.7905 30.7437C17.677 31.7554 14.323 31.7554 11.2095 30.7437C8.09589 29.7321 5.38251 27.7607 3.45821 25.1121C1.53392 22.4636 0.497497 19.2738 0.497498 16C0.497498 12.7262 1.53392 9.53642 3.45821 6.88786C5.38251 4.23929 8.09589 2.2679 11.2095 1.25624C13.5821 0.485324 16.0943 0.301871 18.5334 0.705885C19.8004 0.915754 20.4688 2.24639 20.072 3.46781C19.6751 4.68922 18.3598 5.33035 17.082 5.20231C15.5947 5.0533 14.0841 5.21232 12.6466 5.67937C10.4671 6.38753 8.56775 7.7675 7.22075 9.6215C5.87374 11.4755 5.14825 13.7083 5.14825 16C5.14825 18.2917 5.87374 20.5245 7.22075 22.3785C8.56775 24.2325 10.4671 25.6125 12.6466 26.3206C14.8261 27.0288 17.1739 27.0288 19.3534 26.3206C21.5329 25.6125 23.4322 24.2325 24.7792 22.3785C25.6676 21.1557 26.2857 19.7682 26.6035 18.3077C26.8767 17.0528 27.8929 16 29.1771 16Z" fill="#383838"/>
</svg>
