<svg width="22" height="22" viewBox="0 0 22 22" fill="currentColor" xmlns="http://www.w3.org/2000/svg">
<path d="M19.7847 11C20.6409 11 21.3469 11.6979 21.2189 12.5445C20.9726 14.1742 20.3388 15.7292 19.3612 17.0748C18.0783 18.8405 16.2694 20.1547 14.1937 20.8292C12.118 21.5036 9.88202 21.5036 7.8063 20.8292C5.73059 20.1547 3.92167 18.8405 2.6388 17.0748C1.35594 15.3091 0.664993 13.1825 0.664993 11C0.664993 8.81746 1.35594 6.69095 2.6388 4.92524C3.92167 3.15953 5.73059 1.84527 7.8063 1.17083C9.38807 0.656885 11.0629 0.534583 12.6889 0.803926C13.5336 0.943839 13.9792 1.83093 13.7146 2.64521C13.4501 3.45948 12.5732 3.8869 11.7213 3.80154C10.7298 3.7022 9.7227 3.80821 8.76441 4.11958C7.31141 4.59169 6.04517 5.51167 5.14716 6.74767C4.24916 7.98366 3.76549 9.47222 3.76549 11C3.76549 12.5278 4.24916 14.0163 5.14716 15.2523C6.04516 16.4883 7.31141 17.4083 8.76441 17.8804C10.2174 18.3525 11.7826 18.3525 13.2356 17.8804C14.6886 17.4083 15.9548 16.4883 16.8528 15.2523C17.4451 14.4372 17.8571 13.5121 18.069 12.5384C18.2511 11.7018 18.9286 11 19.7847 11Z"/>
</svg>
