<svg width="18" height="18" viewBox="0 0 18 18" fill="currentColor" xmlns="http://www.w3.org/2000/svg">
<path d="M16.3206 9C17.0341 9 17.6224 9.5816 17.5158 10.2871C17.3105 11.6451 16.7823 12.941 15.9677 14.0623C14.8986 15.5337 13.3912 16.6289 11.6614 17.191C9.93166 17.753 8.06837 17.753 6.3386 17.191C4.60884 16.6289 3.10141 15.5337 2.03235 14.0623C0.9633 12.5909 0.387512 10.8188 0.387512 9C0.387512 7.18121 0.963301 5.40912 2.03235 3.9377C3.10141 2.46627 4.60884 1.37106 6.3386 0.809022C7.65674 0.380733 9.05242 0.278815 10.4075 0.503268C11.1114 0.619862 11.4827 1.35911 11.2622 2.03767C11.0417 2.71623 10.311 3.07241 9.6011 3.00128C8.77484 2.9185 7.9356 3.00684 7.13703 3.26631C5.92619 3.65974 4.87099 4.42639 4.12265 5.45639C3.37431 6.48638 2.97126 7.72685 2.97126 9C2.97126 10.2731 3.37431 11.5136 4.12265 12.5436C4.87099 13.5736 5.92619 14.3403 7.13702 14.7337C8.34786 15.1271 9.65216 15.1271 10.863 14.7337C12.0738 14.3403 13.129 13.5736 13.8774 12.5436C14.3709 11.8643 14.7143 11.0934 14.8909 10.282C15.0426 9.58487 15.6072 9 16.3206 9Z" />
</svg>
