<svg width="14" height="14" viewBox="0 0 14 14" fill="currentColor" xmlns="http://www.w3.org/2000/svg">
<path d="M12.8565 7C13.4273 7 13.8979 7.46528 13.8126 8.02966C13.6484 9.11612 13.2258 10.1528 12.5741 11.0498C11.7189 12.227 10.5129 13.1032 9.12911 13.5528C7.7453 14.0024 6.25467 14.0024 4.87086 13.5528C3.48705 13.1032 2.2811 12.227 1.42586 11.0498C0.570616 9.8727 0.109985 8.45503 0.109985 7C0.109985 5.54498 0.570616 4.1273 1.42586 2.95016C2.2811 1.77302 3.48705 0.896848 4.87086 0.447221C5.92537 0.10459 7.04191 0.0230553 8.12594 0.202617C8.68906 0.295893 8.98613 0.887288 8.80974 1.43014C8.63336 1.97299 8.0488 2.25793 7.48086 2.20103C6.81985 2.1348 6.14846 2.20548 5.5096 2.41306C4.54093 2.72779 3.69677 3.34111 3.0981 4.16511C2.49943 4.98911 2.17699 5.98148 2.17699 7C2.17699 8.01852 2.49943 9.01089 3.0981 9.83489C3.69677 10.6589 4.54093 11.2722 5.5096 11.5869C6.47826 11.9017 7.52171 11.9017 8.49037 11.5869C9.45904 11.2722 10.3032 10.6589 10.9019 9.83489C11.2967 9.29144 11.5714 8.67475 11.7127 8.02563C11.8341 7.4679 12.2857 7 12.8565 7Z"/>
</svg>
