<svg width="25" height="26" viewBox="0 0 25 26" fill="currentColor" xmlns="http://www.w3.org/2000/svg">
<path d="M23.2489 13C24.2478 13 25.0714 13.8142 24.9221 14.8019C24.6348 16.7032 23.8952 18.5174 22.7547 20.0872C21.2581 22.1472 19.1476 23.6805 16.726 24.4674C14.3043 25.2542 11.6957 25.2542 9.27403 24.4674C6.85236 23.6805 4.74196 22.1472 3.24528 20.0872C1.74861 18.0272 0.942505 15.5463 0.942505 13C0.942505 10.4537 1.74861 7.97277 3.24528 5.91278C4.74196 3.85278 6.85236 2.31948 9.27403 1.53263C11.1194 0.933028 13.0734 0.790343 14.9704 1.10458C15.9559 1.26781 16.4758 2.30275 16.1671 3.25274C15.8584 4.20273 14.8354 4.70138 13.8415 4.6018C12.6848 4.4859 11.5098 4.60958 10.3918 4.97284C8.69666 5.52364 7.21937 6.59695 6.1717 8.03894C5.12403 9.48094 4.55976 11.2176 4.55976 13C4.55976 14.7824 5.12403 16.5191 6.1717 17.9611C7.21937 19.403 8.69666 20.4764 10.3918 21.0272C12.087 21.5779 13.913 21.5779 15.6082 21.0272C17.3034 20.4764 18.7806 19.403 19.8283 17.9611C20.5193 17.01 21 15.9308 21.2472 14.7948C21.4596 13.8188 22.25 13 23.2489 13Z"/>
</svg>
