<svg width="240" height="240" viewBox="0 0 240 240" fill="none" xmlns="http://www.w3.org/2000/svg">
<rect width="240" height="240" fill="#E40078"/>
<path d="M199.435 60.989C202.694 65.1711 206.919 74.1667 202.433 76.9919C202.433 76.9919 194.657 79.1039 191.873 79.8719C189.089 80.6399 182.177 82.4639 181.313 82.4639C180.449 82.4639 175.575 82.2334 172.11 78.2201C164.789 69.7395 155.327 63.2864 144.634 59.5837C130.901 54.8281 115.957 54.8933 102.266 59.7686C88.5743 64.6438 76.9525 74.0382 69.3156 86.4034C61.6787 98.7686 58.4824 113.367 60.2536 127.792C62.0248 142.217 68.6577 155.608 79.0592 165.758C89.4606 175.909 103.01 182.213 117.474 183.631C131.938 185.049 146.454 181.497 158.629 173.56C164.946 169.442 170.438 164.27 174.894 158.318C178.56 153.422 175.501 146.802 169.601 145.186C139.091 136.825 100.865 123.306 100.865 110.61C100.865 106.585 103.618 104.572 108.142 103.493L127.014 112.168L126.721 108.056L114.495 102.537C116.239 102.412 118.046 102.364 119.85 102.364C126.605 102.364 138.017 105.784 150.639 110.794L191.123 100.115C194.906 99.1176 198.934 99.7324 202.247 101.814L204.237 103.065C206.181 104.285 206.201 107.11 204.276 108.36L182.727 122.34C181.488 123.144 181.594 124.955 182.937 125.569C191.1 129.304 207.983 136.574 211.083 143.213C217.889 160.187 194.419 188.504 176.139 200.421C157.858 212.338 136.063 217.671 114.345 215.542C92.6272 213.412 72.283 203.947 56.6652 188.706C41.0473 173.466 31.088 153.359 28.4286 131.699C25.7692 110.04 30.5684 88.121 42.0352 69.5546C53.502 50.9883 70.9522 36.8826 91.5097 29.5624C112.067 22.2422 134.505 22.1443 155.126 29.2849C172.711 35.3742 188.079 46.4176 199.435 60.989Z" fill="white"/>
<path d="M135.014 162.853L150.115 145.699C150.85 144.863 150.507 143.549 149.458 143.179L127.895 135.583C126.945 135.249 125.93 135.882 125.813 136.882L123.922 153.046C123.45 157.085 125.622 160.972 129.31 162.686L131.332 163.626C132.595 164.213 134.094 163.898 135.014 162.853Z" fill="white"/>
</svg>
