<svg width="1000" height="1000" viewBox="0 0 1000 1000" fill="none" xmlns="http://www.w3.org/2000/svg">
<rect width="1000" height="1000" fill="#E40078"/>
<path d="M748.234 315.591C758.418 328.66 771.624 356.771 757.604 365.6C757.604 365.6 733.304 372.2 724.604 374.6C715.904 377 694.304 382.7 691.604 382.7C688.904 382.7 673.672 381.98 662.845 369.438C639.966 342.936 610.397 322.77 576.982 311.199C534.066 296.338 487.366 296.542 444.581 311.777C401.795 327.012 365.477 356.369 341.612 395.011C317.747 433.652 307.758 479.271 313.293 524.349C318.828 569.428 339.556 611.275 372.061 642.995C404.565 674.715 446.907 694.414 492.107 698.846C537.307 703.278 582.669 692.178 620.715 667.376C640.458 654.505 657.621 638.344 671.546 619.744C683.002 604.442 673.44 583.757 655.005 578.705C559.662 552.577 440.204 510.331 440.204 470.656C440.204 458.078 448.807 451.786 462.944 448.415L521.918 475.524L521.004 462.674L482.799 445.427C488.247 445.037 493.893 444.888 499.531 444.888C520.64 444.888 556.304 455.574 595.749 471.23L722.259 437.861C734.081 434.742 746.668 436.664 757.022 443.168L763.242 447.077C769.315 450.891 769.379 459.72 763.363 463.623L696.024 507.311C692.151 509.824 692.483 515.483 696.68 517.404C722.187 529.075 774.949 551.794 784.634 572.541C805.905 625.583 732.562 714.075 675.435 751.315C618.307 788.556 550.197 805.222 482.329 798.568C414.461 791.913 350.885 762.335 302.079 714.707C253.274 667.08 222.151 604.246 213.84 536.56C205.529 468.875 220.527 400.378 256.361 342.358C292.195 284.338 346.726 240.258 410.969 217.383C475.211 194.507 545.33 194.201 609.77 216.515C664.722 235.544 712.748 270.055 748.234 315.591Z" fill="white"/>
<path d="M546.92 633.915L594.109 580.308C596.408 577.698 595.336 573.591 592.056 572.435L524.672 548.698C521.703 547.653 518.532 549.631 518.166 552.756L512.258 603.268C510.782 615.89 517.57 628.037 529.095 633.393L535.415 636.331C539.361 638.165 544.044 637.182 546.92 633.915Z" fill="white"/>
</svg>
