<svg width="48" height="48" viewBox="0 0 48 48" fill="none" xmlns="http://www.w3.org/2000/svg">
<g clip-path="url(#clip0_160_434)">
<path fill-rule="evenodd" clip-rule="evenodd" d="M47.04 24.5454C47.04 22.8436 46.8873 21.2073 46.6036 19.6364H24V28.92H36.9164C36.36 31.92 34.6691 34.4618 32.1273 36.1636V42.1854H39.8836C44.4218 38.0073 47.04 31.8545 47.04 24.5454Z" fill="#4285F4"/>
<path fill-rule="evenodd" clip-rule="evenodd" d="M24 48C30.48 48 35.9127 45.8509 39.8836 42.1855L32.1273 36.1636C29.9782 37.6036 27.2291 38.4545 24 38.4545C17.7491 38.4545 12.4582 34.2327 10.5709 28.56H2.55273V34.7782C6.50183 42.6218 14.6182 48 24 48Z" fill="#34A853"/>
<path fill-rule="evenodd" clip-rule="evenodd" d="M10.5709 28.56C10.0909 27.12 9.81818 25.5818 9.81818 24C9.81818 22.4182 10.0909 20.88 10.5709 19.44V13.2218H2.55273C0.927273 16.4618 0 20.1273 0 24C0 27.8727 0.927273 31.5382 2.55273 34.7782L10.5709 28.56Z" fill="#FBBC05"/>
<path fill-rule="evenodd" clip-rule="evenodd" d="M24 9.54545C27.5236 9.54545 30.6873 10.7564 33.1746 13.1345L40.0582 6.25091C35.9018 2.37818 30.4691 0 24 0C14.6182 0 6.50183 5.37818 2.55273 13.2218L10.5709 19.44C12.4582 13.7673 17.7491 9.54545 24 9.54545Z" fill="#EA4335"/>
</g>
<defs>
<clipPath id="clip0_160_434">
<rect width="48" height="48" fill="white"/>
</clipPath>
</defs>
</svg>
