<svg width="1000" height="1000" viewBox="0 0 1000 1000" fill="none" xmlns="http://www.w3.org/2000/svg">
<path d="M913.723 192.652C930.697 214.433 952.706 261.285 929.339 276C929.339 276 888.839 287 874.339 291C859.839 295 823.839 304.5 819.339 304.5C814.839 304.5 789.453 303.299 771.408 282.397C733.277 238.227 683.995 204.617 628.304 185.332C556.776 160.563 478.944 160.903 407.635 186.295C336.326 211.687 275.796 260.616 236.02 325.018C196.245 389.42 179.597 465.452 188.822 540.582C198.047 615.713 232.594 685.459 286.768 738.326C340.942 791.192 411.511 824.024 486.845 831.411C562.179 838.797 637.781 820.297 701.192 778.96C734.097 757.51 762.701 730.574 785.91 699.573C805.003 674.071 789.067 639.595 758.342 631.175C599.436 587.628 400.34 517.218 400.34 451.094C400.34 430.131 414.679 419.644 438.24 414.025L536.531 459.208L535.006 437.79L471.331 409.045C480.412 408.396 489.822 408.147 499.218 408.147C534.4 408.147 593.84 425.957 659.582 452.051L870.431 396.435C890.135 391.238 911.113 394.44 928.369 405.281L938.737 411.795C948.858 418.153 948.965 432.867 938.938 439.373L826.707 512.186C820.253 516.373 820.804 525.806 827.8 529.007C870.312 548.458 958.248 586.324 974.39 620.903C1009.84 709.306 887.603 856.792 792.391 918.859C697.179 980.927 583.662 1008.7 470.549 997.614C357.435 986.523 251.475 937.225 170.132 857.846C88.7896 778.467 36.9182 673.743 23.0671 560.935C9.21593 448.126 34.2116 333.964 93.9347 237.264C153.658 140.564 244.544 67.0973 351.615 28.9712C458.685 -9.15484 575.55 -9.66474 682.949 27.5256C774.537 59.2407 854.58 116.759 913.723 192.652Z" fill="black"/>
<path d="M578.201 723.192L656.849 633.848C660.68 629.497 658.893 622.653 653.427 620.726L541.12 581.164C536.172 579.422 530.887 582.719 530.277 587.928L520.431 672.114C517.971 693.151 529.284 713.395 548.492 722.323L559.025 727.219C565.602 730.276 573.407 728.637 578.201 723.192Z" fill="black"/>
</svg>
