<svg width="400" height="400" viewBox="0 0 400 400" fill="none" xmlns="http://www.w3.org/2000/svg">
<path d="M365.489 77.0605C372.279 85.773 381.083 104.514 371.736 110.4C371.736 110.4 355.536 114.8 349.736 116.4C343.936 118 329.536 121.8 327.736 121.8C325.936 121.8 315.781 121.32 308.563 112.959C293.311 95.2906 273.598 81.8466 251.322 74.1327C222.71 64.2252 191.578 64.361 163.054 74.5178C134.53 84.6746 110.318 104.246 94.4081 130.007C78.4979 155.768 71.8391 186.181 75.529 216.233C79.219 246.285 93.0375 274.184 114.707 295.33C136.377 316.477 164.605 329.61 194.738 332.564C224.872 335.519 255.113 328.119 280.477 311.584C293.639 303.004 305.08 292.229 314.364 279.829C322.001 269.628 315.627 255.838 303.337 252.47C239.775 235.051 160.136 206.887 160.136 180.437C160.136 172.052 165.872 167.857 175.296 165.61L214.612 183.683L214.003 175.116L188.533 163.618C192.165 163.358 195.929 163.259 199.687 163.259C213.76 163.259 237.536 170.383 263.833 180.82L348.173 158.574C356.054 156.495 364.445 157.776 371.348 162.112L375.495 164.718C379.543 167.261 379.586 173.147 375.575 175.749L330.683 204.874C328.101 206.549 328.322 210.322 331.12 211.603C348.125 219.383 383.299 234.529 389.756 248.361C403.937 283.722 355.041 342.717 316.957 367.544C278.872 392.371 233.465 403.482 188.22 399.045C142.974 394.609 100.59 374.89 68.0531 343.138C35.516 311.387 14.7674 269.497 9.22693 224.374C3.68647 179.25 13.6848 133.585 37.574 94.9055C61.4632 56.2256 97.8177 26.8388 140.646 11.5884C183.474 -3.66206 230.22 -3.86602 273.18 11.0101C309.815 23.6962 341.832 46.7033 365.489 77.0605Z" fill="white"/>
<path d="M231.28 289.277L262.74 253.539C264.272 251.799 263.557 249.061 261.371 248.29L216.448 232.465C214.469 231.769 212.355 233.087 212.111 235.171L208.172 268.845C207.188 277.26 211.714 285.358 219.397 288.929L223.61 290.887C226.241 292.11 229.363 291.455 231.28 289.277Z" fill="white"/>
</svg>
