<svg width="100%" height="100%" viewBox="0 0 25 24" fill="none" xmlns="http://www.w3.org/2000/svg">
<path d="M12.5001 7.56192C11.8841 7.56192 11.3615 7.34725 10.9321 6.9179C10.5028 6.48855 10.2881 5.96591 10.2881 5.34998C10.2881 4.73403 10.5028 4.21138 10.9321 3.78203C11.3615 3.35268 11.8841 3.138 12.5001 3.138C13.116 3.138 13.6387 3.35268 14.068 3.78203C14.4974 4.21138 14.712 4.73403 14.712 5.34998C14.712 5.96591 14.4974 6.48855 14.068 6.9179C13.6387 7.34725 13.116 7.56192 12.5001 7.56192ZM7.30006 20.212C6.73411 20.212 6.25729 20.0181 5.86961 19.6305C5.48193 19.2428 5.28809 18.766 5.28809 18.2C5.28809 17.8029 5.40222 17.4313 5.63049 17.0853C5.85875 16.7393 6.15369 16.4949 6.51529 16.3522L10.2881 14.8446V13.075C9.51635 13.8881 8.64933 14.5324 7.68701 15.0082C6.72469 15.4839 5.67904 15.7884 4.55006 15.9218C4.21021 15.9645 3.91492 15.867 3.66419 15.6294C3.41345 15.3917 3.28809 15.0862 3.28809 14.713C3.28809 14.4065 3.39679 14.1404 3.61419 13.9146C3.83159 13.6889 4.10188 13.55 4.42506 13.4978C5.33956 13.3717 6.17253 13.0931 6.92396 12.6619C7.67541 12.2308 8.34425 11.659 8.93049 10.9467L10.2805 9.3326C10.4993 9.071 10.7562 8.87716 11.0511 8.75108C11.3461 8.62498 11.6624 8.56192 12.0001 8.56192H13.0001C13.3377 8.56192 13.6541 8.62733 13.949 8.75813C14.2439 8.88893 14.5008 9.08513 14.7196 9.34673L16.0696 10.975C16.6559 11.6873 17.3247 12.2543 18.0762 12.6761C18.8276 13.0978 19.6606 13.3717 20.5751 13.4978C20.8982 13.5406 21.1685 13.6813 21.3859 13.9201C21.6033 14.1589 21.712 14.4315 21.712 14.738C21.712 15.0946 21.5867 15.3917 21.3359 15.6294C21.0852 15.867 20.7899 15.9645 20.4501 15.9218C19.3211 15.7884 18.2754 15.4839 17.3131 15.0082C16.3508 14.5324 15.4838 13.8881 14.712 13.075V14.8446L18.4848 16.3522C18.8464 16.4949 19.1414 16.7393 19.3696 17.0853C19.5979 17.4313 19.712 17.8029 19.712 18.2C19.712 18.766 19.5182 19.2428 19.1305 19.6305C18.7428 20.0181 18.266 20.212 17.7001 20.212H10.5001V19.5C10.5001 19.0384 10.6488 18.673 10.9463 18.4038C11.2437 18.1346 11.595 18 12.0001 18H15.0001C15.1501 18 15.2709 17.9542 15.3626 17.8625C15.4542 17.7708 15.5001 17.65 15.5001 17.5C15.5001 17.35 15.4542 17.2292 15.3626 17.1375C15.2709 17.0458 15.1501 17 15.0001 17H12.0001C11.3095 17 10.7202 17.2417 10.2321 17.725C9.74409 18.2083 9.50006 18.8 9.50006 19.5V20.212H7.30006Z" fill="currentColor"/>
</svg>
