<svg width="25" height="24" viewBox="0 0 25 24" fill="none" xmlns="http://www.w3.org/2000/svg">
<path d="M14.1695 5.28802C13.5536 5.28802 13.0309 5.071 12.6016 4.63695C12.1722 4.20288 11.9576 3.67787 11.9576 3.06192C11.9576 2.44599 12.1722 1.92335 12.6016 1.494C13.0309 1.06465 13.5536 0.849976 14.1695 0.849976C14.7855 0.849976 15.3105 1.06465 15.7445 1.494C16.1786 1.92335 16.3956 2.44599 16.3956 3.06192C16.3956 3.67787 16.1786 4.20288 15.7445 4.63695C15.3105 5.071 14.7855 5.28802 14.1695 5.28802ZM8.75432 23.212C8.33112 23.212 7.99941 23.0663 7.75919 22.775C7.51898 22.4837 7.44524 22.1348 7.53799 21.7283L10.0173 9.19675L8.57062 9.76958V12C8.57062 12.3399 8.45124 12.6268 8.21247 12.8609C7.9737 13.0949 7.68439 13.212 7.34452 13.212C7.00467 13.212 6.71771 13.0949 6.48364 12.8609C6.24959 12.6268 6.13257 12.3399 6.13257 12V9.92175C6.13257 9.38987 6.28329 8.90073 6.58474 8.45435C6.88619 8.00797 7.28982 7.6826 7.79562 7.47825L11.4652 5.95217C12.005 5.73332 12.5462 5.71013 13.0886 5.8826C13.631 6.05507 14.0579 6.38985 14.3695 6.88695L15.3978 8.48695C15.7362 9.01377 16.183 9.47372 16.738 9.86682C17.2931 10.2599 17.9315 10.5279 18.6532 10.6706C18.9598 10.7322 19.2128 10.8753 19.4125 11.1C19.6121 11.3246 19.7119 11.5819 19.7119 11.8717C19.7119 12.2543 19.5759 12.5757 19.3038 12.8359C19.0317 13.096 18.7257 13.1917 18.3858 13.1228C17.5308 12.9895 16.7382 12.7292 16.0081 12.3419C15.2781 11.9545 14.6511 11.4866 14.1271 10.9381L13.6402 13.4294L14.8891 14.6315C15.155 14.888 15.3587 15.1795 15.5 15.506C15.6413 15.8324 15.7119 16.1797 15.7119 16.5478V22C15.7119 22.3399 15.5949 22.6268 15.3608 22.8609C15.1268 23.095 14.8398 23.212 14.5 23.212C14.1601 23.212 13.8732 23.095 13.6391 22.8609C13.405 22.6268 13.288 22.3398 13.288 22V17.0848L11.513 15.4098L9.97279 22.2782C9.90396 22.5348 9.75614 22.7545 9.52932 22.9375C9.3025 23.1205 9.04417 23.212 8.75432 23.212Z" fill="#383838"/>
</svg>
