<svg width="100%" height="100%" viewBox="0 0 25 24" fill="none" xmlns="http://www.w3.org/2000/svg">
<path d="M12.4718 5.88694C11.8558 5.88694 11.3332 5.66991 10.9038 5.23584C10.4745 4.80179 10.2598 4.2815 10.2598 3.67496C10.2598 3.05903 10.4745 2.53639 10.9038 2.10704C11.3332 1.67769 11.8558 1.46301 12.4718 1.46301C13.0877 1.46301 13.6127 1.67769 14.0468 2.10704C14.4808 2.53639 14.6979 3.05903 14.6979 3.67496C14.6979 4.2815 14.4808 4.80179 14.0468 5.23584C13.6127 5.66991 13.0877 5.88694 12.4718 5.88694ZM10.4294 22.1554C10.0895 22.1554 9.80255 22.036 9.5685 21.7973C9.33443 21.5585 9.2174 21.2692 9.2174 20.9293V9.00109C7.90292 8.59456 6.81886 7.8634 5.96522 6.80761C5.11161 5.75181 4.57176 4.55253 4.34567 3.20976C4.27682 2.86266 4.36777 2.55542 4.6185 2.28804C4.86922 2.02064 5.18951 1.88694 5.57937 1.88694C5.86922 1.88694 6.1252 1.98911 6.3473 2.19346C6.56942 2.39781 6.71127 2.65434 6.77285 2.96304C6.98445 4.08984 7.50112 5.02552 8.32285 5.77009C9.1446 6.51466 10.1345 6.88694 11.2924 6.88694H13.7076C14.2547 6.88694 14.7638 6.98096 15.2348 7.16901C15.7058 7.35705 16.1352 7.64491 16.5229 8.03259L20.3337 11.8435C20.5642 12.0739 20.6794 12.359 20.6794 12.6989C20.6794 13.0388 20.5642 13.3239 20.3337 13.5543C20.0939 13.7942 19.8064 13.9141 19.4712 13.9141C19.1361 13.9141 18.8533 13.7942 18.6229 13.5543L15.7402 10.6718V20.9293C15.7402 21.2692 15.6232 21.5585 15.3892 21.7973C15.1551 22.036 14.8681 22.1554 14.5283 22.1554C14.1884 22.1554 13.8991 22.036 13.6603 21.7973C13.4216 21.5585 13.3022 21.2692 13.3022 20.9293V16H11.6555V20.9293C11.6555 21.2692 11.5361 21.5585 11.2973 21.7973C11.0585 22.036 10.7692 22.1554 10.4294 22.1554Z" fill="currentColor" />
</svg>
