<svg width="100%" height="100%" viewBox="0 0 25 24" fill="none" xmlns="http://www.w3.org/2000/svg">
<g clip-path="url(#clip0_134_273)">
<path d="M12.9033 13.6718L7.1196 19.4413C6.8794 19.679 6.59417 19.7978 6.2639 19.7978C5.93364 19.7978 5.64966 19.678 5.41198 19.4383C5.1743 19.1987 5.05545 18.9141 5.05545 18.5845C5.05545 18.255 5.1743 17.9714 5.41198 17.7337L13.9304 9.212H11.7826V9.85872C11.7826 10.2021 11.6665 10.4899 11.4342 10.7222C11.2019 10.9545 10.9141 11.0707 10.5707 11.0707C10.2273 11.0707 9.93943 10.9545 9.70713 10.7222C9.47485 10.4899 9.3587 10.2021 9.3587 9.85872V8.11307C9.3587 7.74495 9.4875 7.43209 9.7451 7.17447C10.0027 6.91685 10.3156 6.78804 10.6837 6.78804H15.5196C15.8733 6.78804 16.2105 6.85454 16.5311 6.98752C16.8517 7.12049 17.1366 7.31161 17.3859 7.56089L20.2446 10.4087C20.5779 10.7421 20.9537 11.0094 21.3718 11.2109C21.7899 11.4123 22.2337 11.5583 22.7033 11.6489C23.0431 11.7178 23.3384 11.8763 23.5892 12.1246C23.8399 12.3728 23.9653 12.6658 23.9653 13.0034C23.9653 13.341 23.8297 13.625 23.5587 13.8555C23.2877 14.0859 22.9823 14.175 22.6424 14.1228C21.883 14.0134 21.1678 13.8087 20.4968 13.5087C19.8257 13.2087 19.2141 12.7863 18.662 12.2413L17.8033 11.3609L15.9 13.25L16.9707 14.3207C17.2794 14.6294 17.4059 14.9987 17.3504 15.4287C17.2948 15.8586 17.078 16.1839 16.7 16.4044L12.2772 18.9587C11.9873 19.1203 11.6784 19.1601 11.3503 19.078C11.0222 18.9959 10.7786 18.8112 10.6196 18.5239C10.458 18.2341 10.4194 17.9257 10.5038 17.5989C10.5882 17.2721 10.7754 17.0279 11.0652 16.8663L14.25 15.0326L12.9033 13.6718ZM4.14673 13.4946C3.80333 13.4946 3.51549 13.3785 3.2832 13.1462C3.0509 12.9139 2.93475 12.626 2.93475 12.2826C2.93475 11.9392 3.0509 11.6514 3.2832 11.4191C3.51549 11.1868 3.80333 11.0707 4.14673 11.0707H7.14673C7.49011 11.0707 7.77795 11.1868 8.01025 11.4191C8.24255 11.6514 8.3587 11.9392 8.3587 12.2826C8.3587 12.626 8.24255 12.9139 8.01025 13.1462C7.77795 13.3785 7.49011 13.4946 7.14673 13.4946H4.14673ZM2.14673 10.0707C1.80333 10.0707 1.51549 9.95453 1.2832 9.72224C1.0509 9.48994 0.934753 9.2021 0.934753 8.85872C0.934753 8.51532 1.0509 8.22747 1.2832 7.99517C1.51549 7.76289 1.80332 7.64675 2.1467 7.64675H5.14675C5.49014 7.64675 5.77798 7.76289 6.01028 7.99517C6.24258 8.22747 6.35873 8.51532 6.35873 8.85872C6.35873 9.2021 6.24258 9.48994 6.01028 9.72224C5.77798 9.95453 5.49014 10.0707 5.14675 10.0707H2.14673ZM20.4979 8.04242C19.8819 8.04242 19.3574 7.82774 18.9245 7.39839C18.4915 6.96904 18.275 6.44639 18.275 5.83044C18.275 5.21449 18.4915 4.69185 18.9245 4.2625C19.3574 3.83315 19.8795 3.61847 20.4908 3.61847C21.102 3.61847 21.6265 3.83488 22.0642 4.26769C22.5019 4.70049 22.7207 5.22079 22.7207 5.82857C22.7207 6.43635 22.5012 6.95727 22.0621 7.39132C21.623 7.82539 21.1016 8.04242 20.4979 8.04242ZM4.14673 6.64675C3.80333 6.64675 3.51549 6.5306 3.2832 6.2983C3.0509 6.06601 2.93475 5.77817 2.93475 5.43477C2.93475 5.09139 3.0509 4.80354 3.2832 4.57124C3.51549 4.33894 3.80333 4.2228 4.14673 4.2228H7.14673C7.49011 4.2228 7.77795 4.33894 8.01025 4.57124C8.24255 4.80354 8.3587 5.09139 8.3587 5.43477C8.3587 5.77817 8.24255 6.06601 8.01025 6.2983C7.77795 6.5306 7.49011 6.64675 7.14673 6.64675H4.14673Z" fill="currentColor"/>
</g>
<defs>
<clipPath id="clip0_134_273">
<rect width="100%" height="100%" fill="white" transform="translate(0.5)"/>
</clipPath>
</defs>
</svg>
