<svg width="100%" height="100%" viewBox="0 0 25 24" fill="none" xmlns="http://www.w3.org/2000/svg">
<path d="M14.0282 5.28802C13.4123 5.28802 12.8873 5.071 12.4532 4.63695C12.0192 4.20288 11.8022 3.67787 11.8022 3.06192C11.8022 2.44599 12.0192 1.92335 12.4532 1.494C12.8873 1.06465 13.4123 0.849976 14.0282 0.849976C14.6442 0.849976 15.1668 1.06465 15.5962 1.494C16.0255 1.92335 16.2402 2.44599 16.2402 3.06192C16.2402 3.67787 16.0255 4.20288 15.5962 4.63695C15.1668 5.071 14.6442 5.28802 14.0282 5.28802ZM14.5 23.212C14.1601 23.212 13.8732 23.0949 13.6391 22.8609C13.405 22.6268 13.288 22.3398 13.288 22V17.1131L11.5272 15.4381L11.1359 17.1326C10.9743 17.8449 10.5955 18.3964 9.99943 18.787C9.40341 19.1775 8.74924 19.2957 8.0369 19.1413L4.42933 18.412C4.08946 18.3431 3.82859 18.1685 3.64671 17.8881C3.46482 17.6076 3.41192 17.2975 3.48801 16.9576C3.55686 16.6177 3.72914 16.3545 4.00486 16.1679C4.28059 15.9813 4.58838 15.9261 4.92823 16.0022L8.53041 16.7598L10.0174 9.22502L8.58475 9.76958V12.0283C8.58475 12.3681 8.46773 12.6551 8.23368 12.8892C7.99961 13.1232 7.71266 13.2402 7.37281 13.2402C7.03294 13.2402 6.74362 13.1232 6.50486 12.8892C6.26609 12.6551 6.14671 12.3681 6.14671 12.0283V9.95002C6.14671 9.41812 6.29743 8.92482 6.59888 8.4701C6.90033 8.01538 7.29562 7.68948 7.78476 7.49238L10.3652 6.43042C10.9768 6.18042 11.4248 6.01322 11.7092 5.9288C11.9936 5.84438 12.2572 5.80217 12.5 5.80217C12.8971 5.80217 13.2551 5.90797 13.5739 6.11955C13.8927 6.33115 14.158 6.60108 14.3696 6.92935L15.3978 8.52935C15.7362 9.05615 16.1848 9.51611 16.7435 9.90923C17.3022 10.3023 17.9471 10.5703 18.6782 10.713C18.9848 10.7652 19.2337 10.8995 19.425 11.1158C19.6163 11.3321 19.712 11.5851 19.712 11.875C19.712 12.2576 19.5759 12.5808 19.3038 12.8446C19.0317 13.1083 18.7174 13.2058 18.3609 13.137C17.5058 13.0036 16.7174 12.7433 15.9956 12.356C15.2739 11.9687 14.6511 11.5008 14.1272 10.9522L13.6402 13.4576L14.8891 14.6456C15.1551 14.9022 15.3587 15.1936 15.5 15.5201C15.6413 15.8465 15.712 16.1938 15.712 16.562V22C15.712 22.3399 15.5949 22.6268 15.3609 22.8609C15.1268 23.095 14.8398 23.212 14.5 23.212Z" fill="currentColor" />
</svg>
