<svg width="25" height="24" viewBox="0 0 25 24" fill="none" xmlns="http://www.w3.org/2000/svg">
<path d="M11.175 13.325H6.34453C5.97641 13.325 5.66355 13.1962 5.40593 12.9386C5.14833 12.681 5.01953 12.3681 5.01953 12C5.01953 11.6319 5.14833 11.319 5.40593 11.0614C5.66355 10.8038 5.97641 10.675 6.34453 10.675H11.175V5.84453C11.175 5.47641 11.3038 5.16355 11.5614 4.90593C11.819 4.64833 12.1319 4.51953 12.5 4.51953C12.8681 4.51953 13.181 4.64833 13.4386 4.90593C13.6962 5.16355 13.825 5.47641 13.825 5.84453V10.675H18.6554C19.0235 10.675 19.3364 10.8038 19.594 11.0614C19.8516 11.319 19.9804 11.6319 19.9804 12C19.9804 12.3681 19.8516 12.681 19.594 12.9386C19.3364 13.1962 19.0235 13.325 18.6554 13.325H13.825V18.1554C13.825 18.5235 13.6962 18.8364 13.4386 19.094C13.181 19.3516 12.8681 19.4804 12.5 19.4804C12.1319 19.4804 11.819 19.3516 11.5614 19.094C11.3038 18.8364 11.175 18.5235 11.175 18.1554V13.325Z" fill="#383838"/>
</svg>
