<svg width="25" height="24" viewBox="0 0 25 24" fill="none" xmlns="http://www.w3.org/2000/svg">
<path d="M12.5 13.2826C13.5043 13.2826 14.3576 12.9315 15.0598 12.2293C15.7619 11.5272 16.113 10.6739 16.113 9.66956C16.113 8.66521 15.7619 7.8143 15.0598 7.11683C14.3576 6.41937 13.5043 6.07063 12.5 6.07063C11.4956 6.07063 10.6424 6.41937 9.94021 7.11683C9.23802 7.8143 8.88693 8.66521 8.88693 9.66956C8.88693 10.6739 9.23802 11.5272 9.94021 12.2293C10.6424 12.9315 11.4956 13.2826 12.5 13.2826ZM5.66956 21.4804C4.93114 21.4804 4.30486 21.2234 3.79073 20.7092C3.2766 20.1951 3.01953 19.5688 3.01953 18.8304V5.16956C3.01953 4.43114 3.2766 3.80487 3.79073 3.29073C4.30486 2.7766 4.93114 2.51953 5.66956 2.51953H19.3304C20.0688 2.51953 20.6951 2.7766 21.2092 3.29073C21.7234 3.80487 21.9804 4.43114 21.9804 5.16956V18.8304C21.9804 19.5688 21.7234 20.1951 21.2092 20.7092C20.6951 21.2234 20.0688 21.4804 19.3304 21.4804H5.66956ZM5.66956 18.8304H19.3304V17.3695C18.4304 16.5333 17.4128 15.8869 16.2777 15.4304C15.1426 14.9739 13.8833 14.7456 12.5 14.7456C11.1166 14.7456 9.85741 14.9786 8.72226 15.4445C7.58712 15.9105 6.56956 16.5615 5.66956 17.3978V18.8304Z" fill="#383838"/>
</svg>
