<svg width="100%" height="100%"  viewBox="0 0 25 24" fill="none" xmlns="http://www.w3.org/2000/svg">
<path d="M19.2349 15.8913C19.2349 17.7471 18.5606 19.3092 17.212 20.5777C15.8635 21.8462 14.2519 22.4804 12.3772 22.4804C10.5026 22.4804 8.8957 21.8462 7.55655 20.5777C6.21742 19.3092 5.54785 17.7471 5.54785 15.8913V6.33041C5.54785 4.97677 6.03717 3.83656 7.0158 2.90976C7.99444 1.98294 9.16999 1.51953 10.5425 1.51953C11.9149 1.51953 13.0858 1.98294 14.055 2.90976C15.0242 3.83656 15.5088 4.97677 15.5088 6.33041V15.3772C15.5088 16.2286 15.2021 16.9469 14.5887 17.5321C13.9753 18.1172 13.2381 18.4098 12.3772 18.4098C11.5164 18.4098 10.7839 18.1172 10.1799 17.5321C9.57594 16.9469 9.27395 16.2286 9.27395 15.3772V7.38153C9.27395 7.03225 9.39569 6.73587 9.63918 6.49238C9.88266 6.2489 10.179 6.12716 10.5283 6.12716C10.8776 6.12716 11.174 6.2489 11.4175 6.49238C11.6609 6.73587 11.7827 7.03225 11.7827 7.38153V15.3772C11.7827 15.5373 11.8394 15.667 11.9528 15.7663C12.0662 15.8656 12.2077 15.9152 12.3772 15.9152C12.5468 15.9152 12.693 15.8679 12.8158 15.7734C12.9386 15.6788 13.0001 15.5467 13.0001 15.3772V6.34453C12.9928 5.68221 12.7493 5.12823 12.2696 4.68258C11.7899 4.23693 11.2142 4.01411 10.5425 4.01411C9.8707 4.01411 9.28845 4.23458 8.7957 4.67553C8.30295 5.11646 8.05658 5.66809 8.05658 6.33041V15.8913C8.04933 17.0558 8.47414 18.0293 9.33103 18.8119C10.1879 19.5946 11.208 19.9859 12.3914 19.9859C13.5675 19.9859 14.5803 19.5946 15.43 18.8119C16.2796 18.0293 16.7117 17.0558 16.7262 15.8913V6.84453C16.7262 6.49527 16.8479 6.19889 17.0914 5.95541C17.3349 5.71192 17.6312 5.59018 17.9805 5.59018C18.3298 5.59018 18.6262 5.71192 18.8697 5.95541C19.1131 6.19889 19.2349 6.49527 19.2349 6.84453V15.8913Z" fill="currentColor" />
</svg>
