<svg width="100%" height="100%"  viewBox="0 0 25 24" fill="none" xmlns="http://www.w3.org/2000/svg">
<path d="M9.10222 13.325L13.4511 17.6739C13.717 17.9399 13.8482 18.2533 13.8446 18.6141C13.841 18.975 13.7062 19.2884 13.4402 19.5544C13.1743 19.8037 12.8609 19.9301 12.5 19.9337C12.1391 19.9374 11.8257 19.8062 11.5598 19.5402L4.95977 12.9402C4.8315 12.812 4.73476 12.666 4.66954 12.5022C4.60432 12.3384 4.57172 12.171 4.57172 12C4.57172 11.829 4.60432 11.6616 4.66954 11.4978C4.73476 11.3341 4.8315 11.1881 4.95977 11.0598L11.5739 4.44567C11.8326 4.18697 12.1418 4.05762 12.5016 4.05762C12.8614 4.05762 13.1743 4.18697 13.4402 4.44567C13.7062 4.7116 13.8391 5.02682 13.8391 5.39132C13.8391 5.75582 13.7062 6.07104 13.4402 6.33699L9.10222 10.675H19.6554C20.0236 10.675 20.3364 10.8038 20.594 11.0614C20.8516 11.319 20.9804 11.6319 20.9804 12C20.9804 12.3681 20.8516 12.681 20.594 12.9386C20.3364 13.1962 20.0236 13.325 19.6554 13.325H9.10222Z" fill="currentColor" />
</svg>
