<svg width="25" height="24" viewBox="0 0 25 24" fill="none" xmlns="http://www.w3.org/2000/svg">
<path d="M11.0576 12.9619L9.26086 11.1793C9.02101 10.9395 8.72409 10.8219 8.37011 10.8266C8.01611 10.8313 7.71918 10.9536 7.47933 11.1935C7.23946 11.4333 7.11953 11.7279 7.11953 12.0772C7.11953 12.4264 7.23946 12.721 7.47933 12.9609L10.1174 15.613C10.3833 15.879 10.6967 16.012 11.0576 16.012C11.4185 16.012 11.7319 15.879 11.9978 15.613L17.4359 10.1609C17.6757 9.92101 17.7933 9.62409 17.7886 9.27011C17.7839 8.91611 17.6616 8.61918 17.4217 8.37933C17.1819 8.13947 16.8873 8.01953 16.538 8.01953C16.1887 8.01953 15.8942 8.13947 15.6543 8.37933L11.0576 12.9619ZM5.66956 21.4804C4.93114 21.4804 4.30486 21.2234 3.79073 20.7092C3.2766 20.1951 3.01953 19.5688 3.01953 18.8304V5.16956C3.01953 4.43114 3.2766 3.80487 3.79073 3.29073C4.30486 2.7766 4.93114 2.51953 5.66956 2.51953H19.3304C20.0688 2.51953 20.6951 2.7766 21.2092 3.29073C21.7234 3.80487 21.9804 4.43114 21.9804 5.16956V18.8304C21.9804 19.5688 21.7234 20.1951 21.2092 20.7092C20.6951 21.2234 20.0688 21.4804 19.3304 21.4804H5.66956Z" fill="currentColor" />
</svg>
