<svg width="25" height="24" viewBox="0 0 25 24" fill="none" xmlns="http://www.w3.org/2000/svg">
<path d="M5.66956 21.4804C4.93114 21.4804 4.30486 21.2234 3.79073 20.7092C3.2766 20.1951 3.01953 19.5688 3.01953 18.8304V5.16956C3.01953 4.43114 3.2766 3.80487 3.79073 3.29073C4.30486 2.7766 4.93114 2.51953 5.66956 2.51953H19.3304C20.0688 2.51953 20.6951 2.7766 21.2092 3.29073C21.7234 3.80487 21.9804 4.43114 21.9804 5.16956V18.8304C21.9804 19.5688 21.7234 20.1951 21.2092 20.7092C20.6951 21.2234 20.0688 21.4804 19.3304 21.4804H5.66956ZM5.66956 18.8304H19.3304V5.16956H5.66956V18.8304Z" fill="currentColor" />
</svg>
