<svg width="100%" height="100%"  viewBox="0 0 25 24" fill="none" xmlns="http://www.w3.org/2000/svg">
<path d="M12.6478 12L8.9739 8.3261C8.72462 8.07682 8.59998 7.76812 8.59998 7.4C8.59998 7.03188 8.72462 6.72318 8.9739 6.4739C9.22318 6.22462 9.53188 6.09998 9.9 6.09998C10.2681 6.09998 10.5768 6.22462 10.8261 6.4739L15.412 11.0598C15.5402 11.188 15.637 11.3341 15.7022 11.4978C15.7674 11.6616 15.8 11.829 15.8 12C15.8 12.171 15.7674 12.3384 15.7022 12.5022C15.637 12.6659 15.5402 12.812 15.412 12.9402L10.8261 17.5261C10.5768 17.7754 10.2681 17.9 9.9 17.9C9.53188 17.9 9.22318 17.7754 8.9739 17.5261C8.72462 17.2768 8.59998 16.9681 8.59998 16.6C8.59998 16.2319 8.72462 15.9232 8.9739 15.6739L12.6478 12Z" fill="currentColor" />
</svg>
