<svg width="25" height="24" viewBox="0 0 25 24" fill="none" xmlns="http://www.w3.org/2000/svg">
<path d="M12.5 15.2608C12.329 15.2608 12.1616 15.2282 11.9978 15.163C11.8341 15.0978 11.688 15.001 11.5598 14.8728L6.9739 10.2869C6.72462 10.0376 6.59998 9.72893 6.59998 9.36082C6.59998 8.9927 6.72462 8.684 6.9739 8.43472C7.22318 8.18543 7.53188 8.06079 7.9 8.06079C8.26812 8.06079 8.57682 8.18543 8.8261 8.43472L12.5 12.1086L16.1739 8.43472C16.4232 8.18543 16.7319 8.06079 17.1 8.06079C17.4681 8.06079 17.7768 8.18543 18.0261 8.43472C18.2754 8.684 18.4 8.9927 18.4 9.36082C18.4 9.72893 18.2754 10.0376 18.0261 10.2869L13.4402 14.8728C13.312 15.001 13.1659 15.0978 13.0022 15.163C12.8384 15.2282 12.671 15.2608 12.5 15.2608Z" fill="currentColor" />
</svg>
