<svg width="25" height="24" viewBox="0 0 25 24" fill="none" xmlns="http://www.w3.org/2000/svg">
<path d="M12.5 13.8522L7.8261 18.5261C7.57682 18.7754 7.26812 18.9 6.9 18.9C6.53188 18.9 6.22318 18.7754 5.9739 18.5261C5.72462 18.2768 5.59998 17.9681 5.59998 17.6C5.59998 17.2319 5.72462 16.9232 5.9739 16.6739L10.6478 12L5.9739 7.3261C5.72462 7.07682 5.59998 6.76812 5.59998 6.4C5.59998 6.03188 5.72462 5.72318 5.9739 5.4739C6.22318 5.22462 6.53188 5.09998 6.9 5.09998C7.26812 5.09998 7.57682 5.22462 7.8261 5.4739L12.5 10.1478L17.1739 5.4739C17.4232 5.22462 17.7319 5.09998 18.1 5.09998C18.4681 5.09998 18.7768 5.22462 19.0261 5.4739C19.2754 5.72318 19.4 6.03188 19.4 6.4C19.4 6.76812 19.2754 7.07682 19.0261 7.3261L14.3522 12L19.0261 16.6739C19.2754 16.9232 19.4 17.2319 19.4 17.6C19.4 17.9681 19.2754 18.2768 19.0261 18.5261C18.7768 18.7754 18.4681 18.9 18.1 18.9C17.7319 18.9 17.4232 18.7754 17.1739 18.5261L12.5 13.8522Z" fill="#383838"/>
</svg>
