<svg width="100%" height="100%" viewBox="0 0 25 24" fill="none" xmlns="http://www.w3.org/2000/svg">
<path d="M15.2022 21.8522C14.687 22.3674 14.0612 22.625 13.325 22.625C12.5888 22.625 11.963 22.3674 11.4478 21.8522L2.6478 13.0522C2.39852 12.8029 2.20323 12.5156 2.06193 12.1902C1.92063 11.8648 1.84998 11.5181 1.84998 11.15V3.99998C1.84998 3.27098 2.10939 2.64706 2.62823 2.12823C3.14708 1.60939 3.771 1.34998 4.5 1.34998H11.65C12.0181 1.34998 12.3649 1.42062 12.6902 1.56192C13.0156 1.70322 13.3029 1.89852 13.5522 2.1478L22.3522 10.9587C22.8674 11.4739 23.125 12.0978 23.125 12.8304C23.125 13.563 22.8674 14.187 22.3522 14.7022L15.2022 21.8522ZM13.3391 20L20.4891 12.85L11.65 4H4.5V11.15L13.3391 20ZM7 8C7.41667 8 7.77083 7.85417 8.0625 7.5625C8.35417 7.27083 8.5 6.91667 8.5 6.5C8.5 6.08333 8.35417 5.72917 8.0625 5.4375C7.77083 5.14583 7.41667 5 7 5C6.58333 5 6.22917 5.14583 5.9375 5.4375C5.64583 5.72917 5.5 6.08333 5.5 6.5C5.5 6.91667 5.64583 7.27083 5.9375 7.5625C6.22917 7.85417 6.58333 8 7 8Z" fill="currentColor"/>
</svg>
