<svg width="25" height="24" viewBox="0 0 25 24" fill="none" xmlns="http://www.w3.org/2000/svg">
<path d="M5.65003 22.4609C4.91161 22.4609 4.28533 22.2038 3.7712 21.6897C3.25707 21.1756 3 20.5493 3 19.8109V6.15003C3 5.41161 3.25707 4.78533 3.7712 4.2712C4.28533 3.75707 4.91161 3.5 5.65003 3.5H6.48045V2.65543C6.48045 2.33441 6.59512 2.06158 6.82448 1.83695C7.05382 1.61232 7.32901 1.5 7.65002 1.5C7.97104 1.5 8.24387 1.61232 8.4685 1.83695C8.69315 2.06158 8.80548 2.33441 8.80548 2.65543V3.5H16.1554V2.65543C16.1554 2.33441 16.2701 2.06158 16.4995 1.83695C16.7288 1.61232 17.004 1.5 17.325 1.5C17.646 1.5 17.9188 1.61232 18.1435 1.83695C18.3681 2.06158 18.4805 2.33441 18.4805 2.65543V3.5H19.3109C20.0493 3.5 20.6756 3.75707 21.1897 4.2712C21.7038 4.78533 21.9609 5.41161 21.9609 6.15003V19.8109C21.9609 20.5493 21.7038 21.1756 21.1897 21.6897C20.6756 22.2038 20.0493 22.4609 19.3109 22.4609H5.65003ZM5.65003 19.8109H19.3109V9.98045H5.65003V19.8109ZM5.65003 7.98045H19.3109V6.15003H5.65003V7.98045Z" fill="currentColor"/>
</svg>
