<svg width="100%" height="100%" viewBox="0 0 25 24" fill="none" xmlns="http://www.w3.org/2000/svg">
<path d="M17.175 19.6924H15.5C15.1319 19.6924 14.819 19.5636 14.5614 19.306C14.3038 19.0484 14.175 18.7355 14.175 18.3674C14.175 17.9993 14.3038 17.6864 14.5614 17.4288C14.819 17.1712 15.1319 17.0424 15.5 17.0424H17.175V15.3674C17.175 14.9993 17.3038 14.6864 17.5614 14.4288C17.819 14.1712 18.1319 14.0424 18.5 14.0424C18.8681 14.0424 19.181 14.1712 19.4386 14.4288C19.6962 14.6864 19.825 14.9993 19.825 15.3674V17.0424H21.5C21.8681 17.0424 22.181 17.1712 22.4386 17.4288C22.6962 17.6864 22.825 17.9993 22.825 18.3674C22.825 18.7355 22.6962 19.0484 22.4386 19.306C22.181 19.5636 21.8681 19.6924 21.5 19.6924H19.825V21.3674C19.825 21.7355 19.6962 22.0484 19.4386 22.306C19.181 22.5636 18.8681 22.6924 18.5 22.6924C18.1319 22.6924 17.819 22.5636 17.5614 22.306C17.3038 22.0484 17.175 21.7355 17.175 21.3674V19.6924ZM5.66956 20.4804C4.93114 20.4804 4.30486 20.2234 3.79073 19.7092C3.2766 19.1951 3.01953 18.5688 3.01953 17.8304V6.16956C3.01953 5.43114 3.2766 4.80487 3.79073 4.29073C4.30486 3.7766 4.93114 3.51953 5.66956 3.51953H6.49998V2.67496C6.49998 2.35394 6.61466 2.08112 6.84401 1.85648C7.07336 1.63185 7.34854 1.51953 7.66956 1.51953C7.99057 1.51953 8.2634 1.63185 8.48803 1.85648C8.71268 2.08112 8.82501 2.35394 8.82501 2.67496V3.51953H14.175V2.67496C14.175 2.35394 14.2896 2.08112 14.519 1.85648C14.7483 1.63185 15.0235 1.51953 15.3445 1.51953C15.6655 1.51953 15.9384 1.63185 16.163 1.85648C16.3877 2.08112 16.5 2.35394 16.5 2.67496V3.51953H17.3304C18.0688 3.51953 18.6951 3.7766 19.2092 4.29073C19.7234 4.80487 19.9804 5.43114 19.9804 6.16956V10.6891C19.9804 11.0572 19.8516 11.3701 19.594 11.6277C19.3364 11.8853 19.0236 12.0141 18.6554 12.0141C18.2873 12.0141 17.9744 11.8853 17.7168 11.6277C17.4592 11.3701 17.3304 11.0572 17.3304 10.6891V9.99998H5.66956V17.8304H10.8076C11.1757 17.8304 11.4885 17.9592 11.7462 18.2168C12.0038 18.4744 12.1326 18.7873 12.1326 19.1554C12.1326 19.5235 12.0038 19.8364 11.7462 20.094C11.4885 20.3516 11.1757 20.4804 10.8076 20.4804H5.66956ZM5.66956 7.99998H17.3304V6.16956H5.66956V7.99998Z" fill="currentColor" />
</svg>
