<svg width="100%" height="100%"  viewBox="0 0 25 24" fill="none" xmlns="http://www.w3.org/2000/svg">
<path d="M12.5 18.9684C14.4674 17.1771 15.9309 15.5779 16.8907 14.1706C17.8505 12.7634 18.3304 11.421 18.3304 10.1435C18.3304 8.39304 17.7676 6.95978 16.6419 5.84368C15.5162 4.7276 14.1354 4.16956 12.4995 4.16956C10.8636 4.16956 9.48296 4.7276 8.35761 5.84368C7.23224 6.95978 6.66956 8.39304 6.66956 10.1435C6.66956 11.421 7.14945 12.761 8.10923 14.1636C9.06902 15.5661 10.5326 17.1677 12.5 18.9684ZM12.4966 21.7207C12.2278 21.7207 11.9599 21.6743 11.6927 21.5815C11.4256 21.4888 11.1871 21.3496 10.9772 21.1641C9.83729 20.1359 8.83185 19.142 7.96083 18.1826C7.08981 17.2232 6.36336 16.2882 5.78148 15.3777C5.1996 14.4672 4.76046 13.5783 4.46408 12.7109C4.16771 11.8435 4.01953 10.9877 4.01953 10.1435C4.01953 7.51421 4.87199 5.41957 6.57691 3.85956C8.28184 2.29954 10.2562 1.51953 12.5 1.51953C14.7438 1.51953 16.7181 2.29954 18.4231 3.85956C20.128 5.41957 20.9804 7.51421 20.9804 10.1435C20.9804 10.9877 20.8322 11.8435 20.5359 12.7109C20.2395 13.5783 19.8004 14.4672 19.2185 15.3777C18.6366 16.2882 17.9101 17.2232 17.0391 18.1826C16.1681 19.142 15.1627 20.1359 14.0228 21.1641C13.8116 21.3496 13.5717 21.4888 13.3029 21.5815C13.0341 21.6743 12.7654 21.7207 12.4966 21.7207ZM12.5 12.1413C13.0971 12.1413 13.6032 11.9337 14.0185 11.5185C14.4337 11.1032 14.6413 10.5971 14.6413 9.99998C14.6413 9.40288 14.4337 8.89672 14.0185 8.48151C13.6032 8.06629 13.0971 7.85868 12.5 7.85868C11.9029 7.85868 11.3967 8.06629 10.9815 8.48151C10.5663 8.89672 10.3587 9.40288 10.3587 9.99998C10.3587 10.5971 10.5663 11.1032 10.9815 11.5185C11.3967 11.9337 11.9029 12.1413 12.5 12.1413Z" fill="currentColor" />
</svg>
