<svg width="100%" height="100%"  viewBox="0 0 25 24" fill="none" xmlns="http://www.w3.org/2000/svg">
<path d="M9.92818 14.3174L3.28361 11.6359C3.00099 11.5243 2.79084 11.3528 2.65316 11.1212C2.51549 10.8897 2.44666 10.6493 2.44666 10.4C2.44666 10.1507 2.51966 9.91034 2.66566 9.67882C2.81167 9.44729 3.02599 9.27573 3.30861 9.16415L19.4782 3.05432C19.7442 2.94274 20.0018 2.92136 20.2511 2.9902C20.5003 3.05905 20.7105 3.17898 20.8815 3.35C21.0525 3.52102 21.1748 3.73116 21.2484 3.98042C21.3219 4.22971 21.3029 4.48732 21.1913 4.75327L15.0815 20.937C14.9699 21.2196 14.7983 21.4339 14.5668 21.5799C14.3353 21.726 14.0949 21.799 13.8456 21.799C13.5963 21.799 13.3559 21.7301 13.1244 21.5925C12.8929 21.4548 12.7213 21.2446 12.6097 20.962L9.92818 14.3174Z" fill="currentColor" />
</svg>
