<svg width="100%" height="100%" viewBox="0 0 25 24" fill="none" xmlns="http://www.w3.org/2000/svg">
<path d="M10.2739 2.99996C9.9305 2.99996 9.64266 2.88058 9.41036 2.64182C9.17806 2.40305 9.06191 2.11373 9.06191 1.77386C9.06191 1.43401 9.17806 1.14706 9.41036 0.91299C9.64266 0.678923 9.9305 0.56189 10.2739 0.56189H14.7261C15.0695 0.56189 15.3573 0.678039 15.5896 0.910339C15.8219 1.14264 15.9381 1.43048 15.9381 1.77386C15.9381 2.11373 15.8219 2.40305 15.5896 2.64182C15.3573 2.88058 15.0695 2.99996 14.7261 2.99996H10.2739ZM12.5 14.3956C12.8434 14.3956 13.1312 14.2795 13.3635 14.0472C13.5958 13.8149 13.712 13.5271 13.712 13.1837V9.56522C13.712 9.22182 13.5958 8.93397 13.3635 8.70169C13.1312 8.46939 12.8434 8.35324 12.5 8.35324C12.1566 8.35324 11.8688 8.46939 11.6365 8.70169C11.4042 8.93397 11.288 9.22182 11.288 9.56522V13.1837C11.288 13.5271 11.4042 13.8149 11.6365 14.0472C11.8688 14.2795 12.1566 14.3956 12.5 14.3956ZM12.5 22.862C11.1913 22.862 9.96281 22.6132 8.81456 22.1157C7.66631 21.6182 6.66268 20.9417 5.80368 20.0863C4.94468 19.231 4.26591 18.2292 3.76736 17.081C3.26881 15.9328 3.01953 14.7043 3.01953 13.3956C3.01953 12.0869 3.26923 10.8587 3.76863 9.71094C4.26805 8.56317 4.94707 7.55997 5.80571 6.70134C6.66432 5.84272 7.66751 5.16371 8.81528 4.66429C9.96305 4.16489 11.1913 3.91519 12.5 3.91519C13.5521 3.91519 14.5721 4.08186 15.5598 4.41519C16.5474 4.74852 17.4627 5.23657 18.3054 5.87932L19.0196 5.16519C19.2594 4.92532 19.5469 4.80539 19.8821 4.80539C20.2172 4.80539 20.5047 4.92532 20.7446 5.16519C20.9844 5.40504 21.1044 5.69254 21.1044 6.02769C21.1044 6.36284 20.9844 6.65034 20.7446 6.89019L20.0304 7.60432C20.6732 8.44708 21.1589 9.35995 21.4875 10.3429C21.8161 11.3259 21.9804 12.3435 21.9804 13.3956C21.9804 14.7043 21.7312 15.9328 21.2326 17.081C20.7341 18.2292 20.0553 19.231 19.1963 20.0863C18.3373 20.9417 17.3337 21.6182 16.1854 22.1157C15.0372 22.6132 13.8087 22.862 12.5 22.862ZM12.5 20.2119C14.3956 20.2119 16.0079 19.5498 17.3369 18.2255C18.6659 16.9012 19.3304 15.2913 19.3304 13.3956C19.3304 11.5 18.6659 9.88767 17.3369 8.55869C16.0079 7.22971 14.3956 6.56521 12.5 6.56521C10.6043 6.56521 8.99201 7.22971 7.66303 8.55869C6.33405 9.88767 5.66956 11.5 5.66956 13.3956C5.66956 15.2913 6.33405 16.9012 7.66303 18.2255C8.99201 19.5498 10.6043 20.2119 12.5 20.2119Z" fill="currentColor" />
</svg>
