<svg width="25" height="24" viewBox="0 0 25 24" fill="none" xmlns="http://www.w3.org/2000/svg">
<path d="M5.65543 18.8304H7.09456L15.9086 10.0163L14.4978 8.59133L5.65543 17.4337V18.8304ZM4.34453 21.4804C3.97641 21.4804 3.66355 21.3516 3.40593 21.094C3.14833 20.8364 3.01953 20.5235 3.01953 20.1554V17.4195C3.01953 17.0681 3.08601 16.7315 3.21898 16.4097C3.35195 16.088 3.54307 15.8025 3.79236 15.5532L16.1913 3.16518C16.4101 2.95358 16.6545 2.79307 16.9244 2.68366C17.1943 2.57424 17.4768 2.51953 17.7717 2.51953C18.0572 2.51953 18.3391 2.57424 18.6174 2.68366C18.8956 2.79307 19.1453 2.95721 19.3663 3.17606L21.3489 5.14128C21.5678 5.35288 21.7301 5.60017 21.8359 5.88316C21.9417 6.16612 21.9946 6.45145 21.9946 6.73913C21.9946 7.03406 21.9417 7.31885 21.8359 7.59348C21.7301 7.86811 21.5678 8.11486 21.3489 8.33371L8.97501 20.7076C8.72574 20.9569 8.44023 21.148 8.11848 21.281C7.79673 21.4139 7.46013 21.4804 7.10868 21.4804H4.34453ZM15.1978 9.30221L14.4978 8.59133L15.9086 10.0163L15.1978 9.30221Z" fill="#383838"/>
</svg>
