<svg width="25" height="24" viewBox="0 0 25 24" fill="none" xmlns="http://www.w3.org/2000/svg">
<path d="M12.4968 17.4804C12.8953 17.4804 13.2304 17.3456 13.5022 17.0761C13.7739 16.8065 13.9098 16.4724 13.9098 16.0739C13.9098 15.6753 13.775 15.3378 13.5054 15.0614C13.2358 14.7849 12.9017 14.6467 12.5032 14.6467C12.1047 14.6467 11.7695 14.7849 11.4978 15.0614C11.226 15.3378 11.0902 15.6753 11.0902 16.0739C11.0902 16.4724 11.225 16.8065 11.4946 17.0761C11.7642 17.3456 12.0982 17.4804 12.4968 17.4804ZM12.5 13.0282C12.8681 13.0282 13.181 12.8994 13.4386 12.6418C13.6962 12.3842 13.825 12.0713 13.825 11.7032V8.02823C13.825 7.66012 13.6962 7.34726 13.4386 7.08966C13.181 6.83204 12.8681 6.70323 12.5 6.70323C12.1319 6.70323 11.819 6.83204 11.5614 7.08966C11.3038 7.34726 11.175 7.66012 11.175 8.02823V11.7032C11.175 12.0713 11.3038 12.3842 11.5614 12.6418C11.819 12.8994 12.1319 13.0282 12.5 13.0282ZM12.5 22.4804C11.0413 22.4804 9.6754 22.2058 8.40233 21.6564C7.12925 21.1071 6.02185 20.3616 5.08013 19.4198C4.1384 18.4781 3.39286 17.3707 2.84353 16.0976C2.2942 14.8246 2.01953 13.4587 2.01953 12C2.01953 10.5413 2.2942 9.1754 2.84353 7.90233C3.39286 6.62925 4.1384 5.52185 5.08013 4.58013C6.02185 3.6384 7.12925 2.89287 8.40233 2.34353C9.6754 1.7942 11.0413 1.51953 12.5 1.51953C13.9587 1.51953 15.3246 1.7942 16.5976 2.34353C17.8707 2.89287 18.9781 3.6384 19.9198 4.58013C20.8616 5.52185 21.6071 6.62925 22.1564 7.90233C22.7058 9.1754 22.9804 10.5413 22.9804 12C22.9804 13.4587 22.7058 14.8246 22.1564 16.0976C21.6071 17.3707 20.8616 18.4781 19.9198 19.4198C18.9781 20.3616 17.8707 21.1071 16.5976 21.6564C15.3246 22.2058 13.9587 22.4804 12.5 22.4804Z" fill="#383838"/>
</svg>
