<svg width="25" height="24" viewBox="0 0 25 24" fill="none" xmlns="http://www.w3.org/2000/svg">
<path d="M12.5 14.1826L13.7739 15.163C14.0232 15.3601 14.2868 15.3643 14.5647 15.1755C14.8426 14.9868 14.9304 14.738 14.8282 14.4293L14.313 12.7978L15.7619 11.6674C16.0112 11.4703 16.0824 11.2239 15.9755 10.9283C15.8686 10.6326 15.6561 10.4848 15.338 10.4848H13.6706L13.1304 8.82826C13.0282 8.51956 12.8181 8.36521 12.5 8.36521C12.1819 8.36521 11.9717 8.51956 11.8695 8.82826L11.3293 10.4848H9.63696C9.31882 10.4848 9.11048 10.6326 9.01193 10.9283C8.91338 11.2239 8.98404 11.4703 9.22391 11.6674L10.6369 12.7978L10.1217 14.4685C10.0195 14.7772 10.1014 15.0235 10.3674 15.2076C10.6333 15.3917 10.8945 15.3851 11.1511 15.188L12.5 14.1826ZM4.66956 20.4804C3.93114 20.4804 3.30486 20.2234 2.79073 19.7092C2.2766 19.1951 2.01953 18.5688 2.01953 17.8304V14.3706C2.01953 14.1873 2.07551 14.0313 2.18746 13.9027C2.29941 13.7741 2.44705 13.6931 2.63038 13.6598C3.02096 13.5453 3.35013 13.3389 3.61788 13.0407C3.88565 12.7425 4.01953 12.3956 4.01953 12C4.01953 11.5949 3.88565 11.2433 3.61788 10.9451C3.35013 10.6469 3.02096 10.4453 2.63038 10.3402C2.44705 10.3069 2.29941 10.2259 2.18746 10.0973C2.07551 9.96865 2.01953 9.81267 2.01953 9.62933V6.16956C2.01953 5.43114 2.2766 4.80487 2.79073 4.29073C3.30486 3.7766 3.93114 3.51953 4.66956 3.51953H20.3304C21.0688 3.51953 21.6951 3.7766 22.2092 4.29073C22.7234 4.80487 22.9804 5.43114 22.9804 6.16956V9.64348C22.9804 9.82682 22.9245 9.98043 22.8125 10.1043C22.7006 10.2282 22.5529 10.3069 22.3696 10.3402C21.979 10.4453 21.6498 10.6469 21.3821 10.9451C21.1143 11.2433 20.9804 11.5949 20.9804 12C20.9804 12.3956 21.1143 12.7425 21.3821 13.0407C21.6498 13.3389 21.979 13.5453 22.3696 13.6598C22.5529 13.6931 22.7006 13.7717 22.8125 13.8956C22.9245 14.0195 22.9804 14.1731 22.9804 14.3565V17.8304C22.9804 18.5688 22.7234 19.1951 22.2092 19.7092C21.6951 20.2234 21.0688 20.4804 20.3304 20.4804H4.66956Z" fill="#383838"/>
</svg>
