<svg width="100%" height="100%" viewBox="0 0 25 24" fill="none" xmlns="http://www.w3.org/2000/svg">
<circle cx="12.5" cy="12" r="11.25" stroke="currentColor" stroke-width="1.5"/>
<path d="M17.6036 18.9739H16.2348C15.9894 18.9739 15.7808 18.8881 15.6091 18.7163C15.4373 18.5446 15.3515 18.336 15.3515 18.0906C15.3515 17.8452 15.4373 17.6366 15.6091 17.4649C15.7808 17.2931 15.9894 17.2072 16.2348 17.2072H17.6036V10.6536H8.49638V12.2203C8.49638 12.4657 8.41051 12.6743 8.23877 12.846C8.06703 13.0177 7.85846 13.1036 7.61303 13.1036C7.36762 13.1036 7.15904 13.0177 6.9873 12.846C6.81557 12.6743 6.7297 12.4657 6.7297 12.2203V8.10002C6.7297 7.60774 6.90108 7.19022 7.24383 6.84747C7.58659 6.50471 8.00411 6.33333 8.49638 6.33333H9.05V5.77028C9.05 5.55627 9.12645 5.37439 9.27935 5.22463C9.43225 5.07488 9.61571 5 9.82972 5C10.0437 5 10.2256 5.07488 10.3754 5.22463C10.5251 5.37439 10.6 5.55627 10.6 5.77028V6.33333H15.5V5.77028C15.5 5.55627 15.5764 5.37439 15.7293 5.22463C15.8822 5.07488 16.0657 5 16.2797 5C16.4937 5 16.6756 5.07488 16.8254 5.22463C16.9751 5.37439 17.05 5.55627 17.05 5.77028V6.33333H17.6036C18.0959 6.33333 18.5134 6.50471 18.8562 6.84747C19.1989 7.19022 19.3703 7.60774 19.3703 8.10002V17.2072C19.3703 17.6995 19.1989 18.117 18.8562 18.4598C18.5134 18.8026 18.0959 18.9739 17.6036 18.9739ZM10.6485 17.537H6.38333C6.13792 17.537 5.92934 17.4511 5.7576 17.2794C5.58587 17.1076 5.5 16.899 5.5 16.6536C5.5 16.4082 5.58587 16.1996 5.75762 16.0279C5.92935 15.8562 6.13792 15.7703 6.38333 15.7703H10.6485L9.75652 14.871C9.59033 14.7048 9.50603 14.5018 9.50362 14.262C9.50119 14.0221 9.58863 13.8135 9.76593 13.6362C9.93212 13.47 10.1379 13.3869 10.3833 13.3869C10.6287 13.3869 10.8345 13.47 11.0007 13.6362L13.4007 16.0268C13.578 16.2041 13.6667 16.4131 13.6667 16.6536C13.6667 16.8942 13.578 17.1032 13.4007 17.2804L11.0007 19.671C10.8345 19.8372 10.6315 19.9231 10.3917 19.9286C10.1518 19.9342 9.94323 19.8483 9.76593 19.671C9.59974 19.5048 9.51508 19.299 9.51195 19.0536C9.50881 18.8082 9.59033 18.6024 9.75652 18.4362L10.6485 17.537ZM8.49638 9.3203H17.6036V8.10002H8.49638V9.3203Z" fill="currentColor"/>
</svg>
