<svg width="100%" height="100%" viewBox="0 0 25 24" fill="none" xmlns="http://www.w3.org/2000/svg">
<circle cx="12.5" cy="12" r="11.25" stroke="currentColor" stroke-width="1.5"/>
<path d="M11.9203 14.2116L14.1993 11.9326C14.3458 11.7867 14.5227 11.7138 14.7302 11.7138C14.9376 11.7138 15.1143 11.7869 15.2602 11.9333C15.4061 12.0796 15.479 12.2564 15.479 12.4637C15.479 12.671 15.4061 12.8476 15.2602 12.9935L12.5377 15.7065C12.3616 15.8775 12.1561 15.9631 11.9212 15.9631C11.6863 15.9631 11.4802 15.8775 11.3029 15.7065L9.9805 14.3935C9.8346 14.2471 9.76165 14.0701 9.76165 13.8627C9.76165 13.6552 9.83481 13.4785 9.98113 13.3326C10.1275 13.1867 10.3043 13.1138 10.5116 13.1138C10.7189 13.1138 10.8955 13.1867 11.0414 13.3326L11.9203 14.2116ZM8.06673 18.9739C7.57445 18.9739 7.15694 18.8026 6.81418 18.4598C6.47143 18.117 6.30005 17.6995 6.30005 17.2073V8.10002C6.30005 7.60774 6.47143 7.19022 6.81418 6.84747C7.15694 6.50471 7.57445 6.33333 8.06673 6.33333H8.62035V5.77028C8.62035 5.55627 8.6968 5.37439 8.8497 5.22463C9.0026 5.07488 9.18605 5 9.40007 5C9.61408 5 9.79596 5.07488 9.94572 5.22463C10.0955 5.37439 10.1704 5.55627 10.1704 5.77028V6.33333H15.0703V5.77028C15.0703 5.55627 15.1468 5.37439 15.2997 5.22463C15.4526 5.07488 15.636 5 15.85 5C16.0641 5 16.2459 5.07488 16.3957 5.22463C16.5455 5.37439 16.6203 5.55627 16.6203 5.77028V6.33333H17.174C17.6662 6.33333 18.0838 6.50471 18.4265 6.84747C18.7693 7.19022 18.9406 7.60774 18.9406 8.10002V17.2073C18.9406 17.6995 18.7693 18.117 18.4265 18.4598C18.0838 18.8026 17.6662 18.9739 17.174 18.9739H8.06673ZM8.06673 17.2073H17.174V10.6536H8.06673V17.2073ZM8.06673 9.3203H17.174V8.10002H8.06673V9.3203Z" fill="currentColor"/>
</svg>
