<svg width="25" height="24" viewBox="0 0 25 24" fill="none" xmlns="http://www.w3.org/2000/svg">
<path d="M2.03369 12C2.03369 10.5507 2.30797 9.18946 2.85652 7.91628C3.40507 6.64308 4.15289 5.53293 5.09999 4.58583C6.04711 3.63873 7.15726 2.89091 8.43044 2.34236C9.70364 1.79381 11.0649 1.51953 12.5141 1.51953C14.7337 1.51953 16.7138 2.13257 18.4544 3.35866C20.195 4.58472 21.4489 6.16986 22.2163 8.11406C22.3562 8.45102 22.341 8.78074 22.1707 9.10321C22.0004 9.42567 21.7348 9.62931 21.3739 9.71411C21.0341 9.78947 20.7009 9.74273 20.3745 9.57388C20.048 9.40505 19.8112 9.15432 19.6641 8.82171C19.262 7.90142 18.7016 7.08838 17.9832 6.38258C17.2647 5.6768 16.4228 5.13442 15.4576 4.75543V5.12716C15.4576 5.66774 15.2618 6.12916 14.8701 6.51141C14.4785 6.89364 14.0123 7.08476 13.4718 7.08476H11.5283V9.04238C11.5283 9.31628 11.4324 9.54907 11.2408 9.74073C11.0491 9.9324 10.8163 10.0282 10.5424 10.0282H8.58479V11.9717H9.17499C9.54312 11.9717 9.85599 12.1005 10.1136 12.3581C10.3712 12.6157 10.5 12.9286 10.5 13.2967V14.9011H9.55654L4.88372 10.2282C4.83372 10.5188 4.78788 10.8094 4.74622 11.1C4.70455 11.3906 4.68372 11.6811 4.68372 11.9717C4.68372 13.8261 5.26034 15.4692 6.41359 16.9011C7.56684 18.3329 9.03767 19.2362 10.8261 19.6108C11.1681 19.7007 11.436 19.8862 11.6299 20.1674C11.8237 20.4485 11.8877 20.759 11.8217 21.0989C11.7463 21.467 11.5657 21.7634 11.2799 21.988C10.994 22.2127 10.6706 22.2801 10.3097 22.1902C7.93872 21.7047 5.96663 20.5179 4.39347 18.6299C2.82028 16.7418 2.03369 14.5319 2.03369 12ZM20.7587 21.125L18.4707 18.837C18.1301 19.0087 17.7716 19.1518 17.3951 19.2663C17.0187 19.3808 16.6243 19.4381 16.212 19.4381C14.9055 19.4381 13.7911 18.977 12.869 18.0549C11.9469 17.1328 11.4859 16.0185 11.4859 14.712C11.4859 13.4054 11.9469 12.2935 12.869 11.3761C13.7911 10.4587 14.9055 9.99998 16.212 9.99998C17.5185 9.99998 18.6305 10.4587 19.5479 11.3761C20.4653 12.2935 20.9239 13.4054 20.9239 14.712C20.9239 15.1243 20.8667 15.521 20.7522 15.9022C20.6377 16.2833 20.4946 16.6442 20.3229 16.9848L22.625 19.2728C22.8837 19.5221 23.0107 19.8308 23.006 20.1989C23.0013 20.567 22.8743 20.8757 22.625 21.125C22.3663 21.3837 22.0553 21.5131 21.6919 21.5131C21.3285 21.5131 21.0174 21.3837 20.7587 21.125ZM16.212 16.788C16.7895 16.788 17.2775 16.5864 17.6761 16.1831C18.0746 15.7799 18.2739 15.2895 18.2739 14.712C18.2739 14.1344 18.0746 13.6464 17.6761 13.2478C17.2775 12.8493 16.7895 12.65 16.212 12.65C15.6345 12.65 15.1441 12.8493 14.7408 13.2478C14.3375 13.6464 14.1359 14.1344 14.1359 14.712C14.1359 15.2895 14.3375 15.7799 14.7408 16.1831C15.1441 16.5864 15.6345 16.788 16.212 16.788Z" fill="#383838"/>
</svg>
