<svg width="100%" height="100%" viewBox="0 0 25 24" fill="none" xmlns="http://www.w3.org/2000/svg">
<path d="M12.4788 21.2968C12.1607 21.2968 11.8454 21.2386 11.5331 21.1223C11.2208 21.006 10.94 20.8279 10.6907 20.5881L8.93745 18.9848C7.18962 17.3964 5.59849 15.7899 4.16408 14.1652C2.72966 12.5406 2.01245 10.7181 2.01245 8.69785C2.01245 6.9903 2.57984 5.56431 3.71463 4.4199C4.84941 3.27546 6.27079 2.70325 7.97878 2.70325C8.84326 2.70325 9.66246 2.86955 10.4364 3.20217C11.2103 3.53477 11.8911 4.00723 12.4788 4.61955C13.0665 4.00723 13.7473 3.53477 14.5212 3.20217C15.2951 2.86955 16.1143 2.70325 16.9788 2.70325C18.6903 2.70325 20.1197 3.27546 21.2668 4.4199C22.4139 5.56431 22.9875 6.9903 22.9875 8.69785C22.9875 10.7181 22.2674 12.5448 20.8272 14.1777C19.3869 15.8107 17.7763 17.4261 15.9951 19.0239L14.281 20.6022C14.0317 20.8421 13.7485 21.0178 13.4315 21.1294C13.1145 21.241 12.7969 21.2968 12.4788 21.2968ZM11.4299 7.3685C11.0031 6.7417 10.5076 6.24913 9.94345 5.8908C9.37932 5.53246 8.72571 5.3533 7.98263 5.3533C7.03401 5.3533 6.2435 5.67014 5.6111 6.30382C4.97868 6.93752 4.66248 7.73553 4.66248 8.69785C4.66248 9.54641 4.96373 10.448 5.56623 11.4026C6.16874 12.3573 6.88931 13.2834 7.72793 14.1809C8.56654 15.0784 9.42959 15.9188 10.3171 16.7021C11.2046 17.4854 11.9251 18.13 12.4788 18.6359C13.036 18.1192 13.7603 17.4697 14.6517 16.6872C15.5431 15.9048 16.4099 15.0653 17.2523 14.1687C18.0946 13.2722 18.8194 12.3506 19.4266 11.4038C20.0338 10.4571 20.3375 9.5551 20.3375 8.69785C20.3375 7.73553 20.0182 6.93752 19.3798 6.30382C18.7413 5.67014 17.9433 5.3533 16.9856 5.3533C16.2354 5.3533 15.5806 5.53246 15.0212 5.8908C14.4617 6.24913 13.9686 6.7417 13.5418 7.3685C13.4129 7.56343 13.2564 7.70963 13.0723 7.8071C12.8882 7.90456 12.6904 7.9533 12.4788 7.9533C12.2672 7.9533 12.0711 7.90456 11.8905 7.8071C11.7098 7.70963 11.5563 7.56343 11.4299 7.3685Z" fill="currentColor"/>
</svg>
