<svg width="25" height="24" viewBox="0 0 25 24" fill="none" xmlns="http://www.w3.org/2000/svg">
<path d="M12.4788 21.2968C12.1607 21.2968 11.8454 21.2386 11.5331 21.1223C11.2208 21.006 10.94 20.8279 10.6907 20.5881L8.93745 18.9848C7.18962 17.3964 5.59849 15.7899 4.16408 14.1652C2.72966 12.5406 2.01245 10.7181 2.01245 8.69785C2.01245 6.98986 2.57984 5.56377 3.71463 4.41957C4.84941 3.27536 6.27079 2.70325 7.97878 2.70325C8.84326 2.70325 9.66246 2.86955 10.4364 3.20217C11.2103 3.53477 11.8911 4.00723 12.4788 4.61955C13.0665 4.00723 13.7473 3.53477 14.5212 3.20217C15.2951 2.86955 16.1143 2.70325 16.9788 2.70325C18.6867 2.70325 20.1152 3.27536 21.2641 4.41957C22.413 5.56377 22.9875 6.98986 22.9875 8.69785C22.9875 10.7181 22.2674 12.5448 20.8272 14.1777C19.3869 15.8107 17.7763 17.4261 15.9951 19.0239L14.281 20.6022C14.0317 20.8421 13.7485 21.0178 13.4315 21.1294C13.1145 21.241 12.7969 21.2968 12.4788 21.2968Z" fill="#383838"/>
</svg>
