<svg width="100%" height="100%" viewBox="0 0 25 24" fill="none" xmlns="http://www.w3.org/2000/svg">
<path d="M10.0565 22.05C9.66951 22.1616 9.34251 22.1141 9.07548 21.9076C8.80844 21.701 8.67493 21.3996 8.67493 21.0032C8.67493 20.8134 8.72892 20.617 8.8369 20.4141C8.94487 20.2112 9.0724 20.0539 9.2195 19.9423L10.6749 18.8445V13.938L3.888 15.9217C3.41554 16.0594 3.01191 16.0036 2.67713 15.7543C2.34233 15.505 2.17493 15.1275 2.17493 14.6217C2.17493 14.3913 2.24323 14.1566 2.37983 13.9179C2.51643 13.6791 2.6869 13.5039 2.89125 13.3923L10.6749 8.80213V3.49995C10.6749 2.97242 10.8496 2.53636 11.1989 2.19178C11.5481 1.84721 11.9818 1.67493 12.5 1.67493C13.0275 1.67493 13.4635 1.84721 13.8081 2.19178C14.1527 2.53636 14.325 2.97242 14.325 3.49995V8.80213L22.1087 13.3923C22.313 13.5039 22.4835 13.6809 22.6201 13.9233C22.7567 14.1657 22.825 14.4068 22.825 14.6467C22.825 15.1358 22.6576 15.505 22.3228 15.7543C21.988 16.0036 21.5844 16.0594 21.1119 15.9217L14.325 13.938V18.8445L15.7945 19.9423C15.9416 20.0539 16.0668 20.2112 16.1701 20.4141C16.2733 20.617 16.325 20.8134 16.325 21.0032C16.325 21.3996 16.1915 21.7011 15.9244 21.9076C15.6574 22.1141 15.3304 22.1616 14.9434 22.05L12.5 21.3532L10.0565 22.05Z" fill="currentColor"/>
</svg>
