<svg width="100%" height="100%" viewBox="0 0 25 24" fill="none" xmlns="http://www.w3.org/2000/svg">
<path d="M16.7221 14.4316L7.71783 11.9404C7.55297 11.8905 7.41792 11.7977 7.31266 11.662C7.20741 11.5263 7.15479 11.3712 7.15479 11.1966V8.87848C7.15479 8.70263 7.22643 8.56452 7.36973 8.46412C7.51302 8.36372 7.66499 8.34121 7.82562 8.39659L8.12681 8.49424C8.20712 8.51918 8.27497 8.55933 8.33033 8.61471C8.38571 8.67009 8.42587 8.73794 8.45081 8.81825L8.77609 9.80231L11.3288 10.5074V6.73219C11.3288 6.51746 11.4123 6.34288 11.5792 6.20846C11.7462 6.07404 11.9371 6.03388 12.1518 6.08799L12.4739 6.1628C12.5889 6.18775 12.6862 6.24006 12.7659 6.31973C12.8456 6.39942 12.9055 6.49674 12.9457 6.61172L14.4376 11.3729L17.346 12.1895C17.6081 12.2589 17.8185 12.3986 17.9772 12.6086C18.136 12.8187 18.2153 13.0576 18.2153 13.3251C18.2153 13.7119 18.0607 14.019 17.7515 14.2464C17.4423 14.4738 17.0992 14.5356 16.7221 14.4316ZM7.9277 17.5302C7.71297 17.5302 7.53046 17.4537 7.38019 17.3007C7.22992 17.1477 7.15479 16.9638 7.15479 16.749C7.15479 16.5343 7.23129 16.3518 7.38431 16.2015C7.53733 16.0513 7.72121 15.9761 7.93596 15.9761H17.4424C17.6571 15.9761 17.8396 16.0526 17.9899 16.2057C18.1402 16.3587 18.2153 16.5426 18.2153 16.7573C18.2153 16.972 18.1388 17.1545 17.9858 17.3048C17.8328 17.4551 17.6489 17.5302 17.4341 17.5302H7.9277Z" fill="currentColor"/>
<path d="M23.75 12C23.75 18.2132 18.7132 23.25 12.5 23.25C6.2868 23.25 1.25 18.2132 1.25 12C1.25 5.7868 6.2868 0.75 12.5 0.75C18.7132 0.75 23.75 5.7868 23.75 12Z" stroke="currentColor" stroke-width="1.5"/>
</svg>
