<svg width="100%" height="100%" viewBox="0 0 25 24" fill="none" xmlns="http://www.w3.org/2000/svg">
<circle cx="12.5" cy="12" r="11.25" stroke="currentColor" stroke-width="1.5"/>
<path d="M17.1204 17.3079H7.60569C7.39095 17.3079 7.20844 17.2314 7.05817 17.0783C6.9079 16.9253 6.83277 16.7414 6.83277 16.5267C6.83277 16.312 6.90928 16.1295 7.0623 15.9792C7.21531 15.8289 7.3992 15.7538 7.61394 15.7538H17.1204C17.3351 15.7538 17.5176 15.8303 17.6679 15.9833C17.8182 16.1363 17.8933 16.3202 17.8933 16.535C17.8933 16.7497 17.8182 16.9322 17.6679 17.0825C17.5176 17.2327 17.3351 17.3079 17.1204 17.3079ZM8.52888 11.7224L11.0239 11.0548L9.08748 7.77797C8.97673 7.5924 8.9594 7.40123 9.03549 7.20445C9.11158 7.00768 9.25424 6.87675 9.46349 6.81165L9.77735 6.72225C9.89232 6.68759 10.0046 6.68273 10.114 6.70767C10.2235 6.73261 10.3233 6.78249 10.4133 6.85731L14.1327 10.1975L16.9916 9.44299C17.3687 9.34451 17.7084 9.41108 18.0106 9.64272C18.3128 9.87437 18.464 10.1878 18.464 10.583C18.464 10.8409 18.3846 11.0717 18.2259 11.2754C18.0671 11.4792 17.8637 11.6157 17.6156 11.685L8.6893 14.0932C8.52444 14.1376 8.36307 14.1272 8.20519 14.0621C8.04731 13.997 7.92335 13.8897 7.83332 13.74L6.61085 11.6781C6.52082 11.5272 6.51215 11.3714 6.58485 11.2108C6.65755 11.0501 6.78183 10.9546 6.95769 10.9241L7.2671 10.8639C7.34742 10.8487 7.42287 10.8525 7.49347 10.8753C7.56406 10.8982 7.63191 10.9345 7.69701 10.9844L8.52888 11.7224Z" fill="currentColor"/>
</svg>
