<svg width="25" height="24" viewBox="0 0 25 24" fill="none" xmlns="http://www.w3.org/2000/svg">
<path d="M4.49457 12.2777L2.20652 9.98969C1.94058 9.72374 1.80762 9.41033 1.80762 9.04947C1.80762 8.6886 1.94058 8.37519 2.20652 8.10924L4.49457 5.82122C4.7605 5.56468 5.07155 5.43406 5.42772 5.42934C5.78388 5.42464 6.09494 5.55527 6.36089 5.82122L8.66304 8.12337C8.92899 8.38932 9.05961 8.70038 9.05489 9.05654C9.05019 9.41269 8.91958 9.72374 8.66304 9.98969L6.37502 12.2777C6.10907 12.5437 5.79566 12.6766 5.43479 12.6766C5.07391 12.6766 4.7605 12.5437 4.49457 12.2777ZM10.6413 23.0299C10.2732 23.0299 9.96036 22.9011 9.70274 22.6435C9.44514 22.3859 9.31634 22.073 9.31634 21.7049V18.143C8.52069 18.0763 7.73573 17.9893 6.96144 17.8821C6.18718 17.7749 5.41055 17.6343 4.63157 17.4604C4.2917 17.3843 4.02485 17.1977 3.83102 16.9006C3.63717 16.6035 3.58663 16.285 3.67939 15.9451C3.77214 15.6053 3.97594 15.3569 4.29079 15.2C4.60566 15.0431 4.93302 15.0027 5.27287 15.0788C6.4707 15.3433 7.67868 15.5256 8.89679 15.6256C10.1149 15.7256 11.3395 15.7756 12.5707 15.7756C13.8019 15.7756 15.0289 15.7256 16.2517 15.6256C17.4745 15.5256 18.6895 15.3433 19.8968 15.0788C20.2461 15.0027 20.5734 15.0455 20.8788 15.2071C21.1843 15.3687 21.3834 15.6194 21.4761 15.9593C21.5689 16.2991 21.5183 16.6129 21.3245 16.9006C21.1307 17.1883 20.8638 17.3702 20.5239 17.4462C19.745 17.6202 18.966 17.7631 18.187 17.875C17.408 17.987 16.6207 18.0763 15.825 18.143V21.7049C15.825 22.073 15.6962 22.3859 15.4386 22.6435C15.181 22.9011 14.8682 23.0299 14.5 23.0299H10.6413ZM12.5707 7.33749C11.6903 7.33749 10.9395 7.02698 10.3185 6.40597C9.6975 5.78495 9.38699 5.03423 9.38699 4.15379C9.38699 3.27336 9.6975 2.52263 10.3185 1.90162C10.9395 1.2806 11.6903 0.970093 12.5707 0.970093C13.4511 0.970093 14.2019 1.2806 14.8229 1.90162C15.4439 2.52263 15.7544 3.27336 15.7544 4.15379C15.7544 5.03423 15.4439 5.78495 14.8229 6.40597C14.2019 7.02698 13.4511 7.33749 12.5707 7.33749ZM12.5707 14.7756C11.9642 14.7756 11.4439 14.5585 11.0098 14.1245C10.5758 13.6904 10.3587 13.1701 10.3587 12.5636C10.3587 11.9571 10.5758 11.4368 11.0098 11.0027C11.4439 10.5687 11.9642 10.3516 12.5707 10.3516C13.1772 10.3516 13.6975 10.5687 14.1316 11.0027C14.5656 11.4368 14.7827 11.9571 14.7827 12.5636C14.7827 13.1701 14.5656 13.6904 14.1316 14.1245C13.6975 14.5585 13.1772 14.7756 12.5707 14.7756ZM17.6 12.0636L16.5348 10.2049C16.4232 10.0078 16.3674 9.78932 16.3674 9.54947C16.3674 9.30962 16.4232 9.09113 16.5348 8.89402L17.6 7.03534C17.7116 6.82158 17.8707 6.65653 18.0772 6.54022C18.2838 6.42392 18.507 6.36577 18.7468 6.36577H20.8131C21.053 6.36577 21.2762 6.42392 21.4827 6.54022C21.6892 6.65653 21.8483 6.82158 21.9599 7.03534L23.0251 8.89402C23.1367 9.09113 23.1925 9.30962 23.1925 9.54947C23.1925 9.78932 23.1367 10.0078 23.0251 10.2049L21.9599 12.0636C21.8483 12.2774 21.6892 12.4424 21.4827 12.5587C21.2762 12.675 21.053 12.7332 20.8131 12.7332H18.7468C18.507 12.7332 18.2838 12.675 18.0772 12.5587C17.8707 12.4424 17.7116 12.2774 17.6 12.0636Z" fill="#383838"/>
</svg>
