<svg width="100%" height="100%" viewBox="0 0 25 24" fill="none" xmlns="http://www.w3.org/2000/svg">
<g clip-path="url(#clip0_134_271)">
<path d="M2.27388 20.9327C1.90576 20.9327 1.59289 20.8039 1.33528 20.5463C1.07766 20.2887 0.948853 19.9758 0.948853 19.6077V16.6077C0.948853 15.9634 1.17531 15.4149 1.62823 14.962C2.08113 14.5091 2.62968 14.2826 3.27388 14.2826H6.63368C6.99526 14.2826 7.30957 14.3518 7.5766 14.4902C7.84364 14.6286 8.05939 14.8254 8.22388 15.0805C8.72606 15.7776 9.35016 16.3189 10.0962 16.7044C10.8422 17.0899 11.6435 17.2826 12.5 17.2826C13.3637 17.2826 14.171 17.0899 14.9217 16.7044C15.6724 16.3189 16.2953 15.7776 16.7902 15.0805C16.9692 14.8254 17.1904 14.6286 17.4538 14.4902C17.7172 14.3518 18.0214 14.2826 18.3663 14.2826H21.7402C22.3844 14.2826 22.933 14.5091 23.3859 14.962C23.8388 15.4149 24.0652 15.9634 24.0652 16.6077V19.6077C24.0652 19.9758 23.9364 20.2887 23.6788 20.5463C23.4212 20.8039 23.1083 20.9327 22.7402 20.9327H17.7402C17.3721 20.9327 17.0592 20.8039 16.8016 20.5463C16.544 20.2887 16.4152 19.9758 16.4152 19.6077V18.5305C15.8319 18.8906 15.2098 19.1673 14.5489 19.3604C13.888 19.5535 13.205 19.65 12.5 19.65C11.8116 19.65 11.1351 19.5517 10.4706 19.3549C9.80614 19.1582 9.18224 18.8798 8.5989 18.5196V19.6077C8.5989 19.9758 8.47009 20.2887 8.21248 20.5463C7.95486 20.8039 7.64199 20.9327 7.27388 20.9327H2.27388ZM12.5 16C11.9137 16 11.3585 15.8636 10.8342 15.5908C10.3099 15.318 9.87027 14.942 9.5152 14.4631C9.17535 13.971 8.76231 13.6042 8.27608 13.3625C7.78984 13.1209 7.24962 13 6.6554 13C7.11629 12.4022 7.9431 11.9123 9.13585 11.5304C10.3286 11.1486 11.45 10.9576 12.5 10.9576C13.55 10.9576 14.6737 11.1486 15.8712 11.5304C17.0686 11.9123 17.8978 12.4022 18.3587 13C17.7717 13 17.2333 13.1185 16.7435 13.3554C16.2536 13.5924 15.8387 13.9616 15.4989 14.4631C15.1605 14.9493 14.7268 15.327 14.1978 15.5962C13.6688 15.8654 13.1029 16 12.5 16ZM4.49998 12.7174C3.62896 12.7174 2.88765 12.4116 2.27605 11.8C1.66445 11.1884 1.35865 10.4471 1.35865 9.57609C1.35865 8.70508 1.66445 7.96377 2.27605 7.35217C2.88767 6.74057 3.62898 6.43477 4.49998 6.43477C5.37099 6.43477 6.1123 6.74057 6.7239 7.35217C7.33549 7.96377 7.64128 8.70508 7.64128 9.57609C7.64128 10.4471 7.33549 11.1884 6.7239 11.8C6.1123 12.4116 5.37099 12.7174 4.49998 12.7174ZM20.5 12.7174C19.629 12.7174 18.8877 12.4116 18.2761 11.8C17.6645 11.1884 17.3587 10.4471 17.3587 9.57609C17.3587 8.70508 17.6645 7.96377 18.2761 7.35217C18.8877 6.74057 19.629 6.43477 20.5 6.43477C21.371 6.43477 22.1123 6.74057 22.7239 7.35217C23.3355 7.96377 23.6413 8.70508 23.6413 9.57609C23.6413 10.4471 23.3355 11.1884 22.7239 11.8C22.1123 12.4116 21.371 12.7174 20.5 12.7174ZM12.5 9.39237C11.629 9.39237 10.8877 9.08658 10.2761 8.47499C9.66447 7.86339 9.35868 7.12208 9.35868 6.25107C9.35868 5.38005 9.66447 4.63874 10.2761 4.02714C10.8877 3.41554 11.629 3.10974 12.5 3.10974C13.371 3.10974 14.1123 3.41554 14.7239 4.02714C15.3355 4.63874 15.6413 5.38005 15.6413 6.25107C15.6413 7.12208 15.3355 7.86339 14.7239 8.47499C14.1123 9.08658 13.371 9.39237 12.5 9.39237Z" fill="currentColor"/>
</g>
<defs>
<clipPath id="clip0_134_271">
<rect width="100%" height="100%" fill="white" transform="translate(0.5)"/>
</clipPath>
</defs>
</svg>
