<svg width="100%" height="100%" viewBox="0 0 25 24" fill="none" xmlns="http://www.w3.org/2000/svg">
<path d="M7.64154 3C8.58624 3 9.48384 3.19535 10.3343 3.58606C11.1848 3.97678 11.9067 4.52656 12.5 5.23541C13.0933 4.52656 13.8152 3.97678 14.6657 3.58606C15.5162 3.19535 16.4138 3 17.3585 3C19.021 3 20.4263 3.57051 21.5744 4.71154C22.7225 5.85257 23.2966 7.24922 23.2966 8.90149C23.2966 9.44252 23.2258 9.98453 23.0844 10.5275C22.9429 11.0705 22.7414 11.606 22.48 12.1341C22.2218 11.8088 21.9188 11.5386 21.571 11.3235C21.2231 11.1084 20.8442 10.9633 20.4341 10.8881C20.586 10.5453 20.7037 10.21 20.7871 9.88217C20.8706 9.55431 20.9123 9.22742 20.9123 8.90149C20.9123 7.91597 20.5679 7.08094 19.8791 6.3964C19.1903 5.71184 18.3501 5.36956 17.3585 5.36956C16.254 5.36956 15.3799 5.65061 14.7361 6.21269C14.0923 6.77478 13.3469 7.54989 12.5 8.53801C11.6531 7.54342 10.9077 6.76669 10.2639 6.20784C9.6201 5.64899 8.74597 5.36956 7.64154 5.36956C6.64991 5.36956 5.80969 5.71184 5.1209 6.3964C4.4321 7.08094 4.08769 7.91597 4.08769 8.90149C4.08769 9.22742 4.12942 9.55431 4.21289 9.88217C4.29634 10.21 4.41401 10.5453 4.56591 10.8881C4.16429 10.9633 3.78957 11.1105 3.44174 11.3298C3.09391 11.5492 2.78667 11.8215 2.52001 12.1467C2.25856 11.6102 2.0571 11.0705 1.91562 10.5275C1.77416 9.98453 1.70343 9.44252 1.70343 8.90149C1.70343 7.24922 2.27748 5.85257 3.42559 4.71154C4.5737 3.57051 5.97902 3 7.64154 3ZM2.69214 21C2.36093 21 2.07944 20.8848 1.84767 20.6545C1.61589 20.4241 1.5 20.1444 1.5 19.8152V19.3895C1.5 18.6748 1.85108 18.1011 2.55325 17.6682C3.25545 17.2354 4.17179 17.019 5.30228 17.019C5.42094 17.019 5.5347 17.0222 5.64357 17.0287C5.75245 17.0352 5.85969 17.0449 5.96531 17.0579C5.73843 17.398 5.5699 17.7606 5.45971 18.1454C5.34953 18.5303 5.29443 18.9376 5.29443 19.3672V21H2.69214ZM8.09043 21C7.75923 21 7.47774 20.8848 7.24596 20.6545C7.01418 20.4241 6.89829 20.1444 6.89829 19.8152V19.3672C6.89829 18.3395 7.41383 17.505 8.44492 16.8635C9.47601 16.222 10.8277 15.9013 12.5 15.9013C14.1788 15.9013 15.5321 16.222 16.56 16.8635C17.5878 17.505 18.1017 18.3395 18.1017 19.3672V19.8152C18.1017 20.1444 17.9858 20.4241 17.754 20.6545C17.5223 20.8848 17.2408 21 16.9096 21H8.09043ZM19.7056 21V19.3672C19.7056 18.9376 19.6488 18.5282 19.5354 18.1391C19.422 17.75 19.2551 17.3896 19.0347 17.0579C19.1403 17.0449 19.2476 17.0352 19.3564 17.0287C19.4653 17.0222 19.5791 17.019 19.6977 17.019C20.8282 17.019 21.7446 17.2354 22.4468 17.6682C23.1489 18.1011 23.5 18.6748 23.5 19.3895V19.8152C23.5 20.1444 23.3841 20.4241 23.1523 20.6545C22.9205 20.8848 22.6391 21 22.3079 21H19.7056ZM5.30228 16.1754C4.76506 16.1754 4.30966 15.9897 3.93607 15.6185C3.56249 15.2472 3.3757 14.7946 3.3757 14.2607C3.3757 13.7268 3.5625 13.2742 3.93609 12.9029C4.30967 12.5316 4.76506 12.346 5.30228 12.346C5.8395 12.346 6.2949 12.5316 6.66848 12.9029C7.04205 13.2742 7.22884 13.7268 7.22884 14.2607C7.22884 14.7946 7.04205 15.2472 6.66848 15.6185C6.2949 15.9897 5.8395 16.1754 5.30228 16.1754ZM19.6977 16.1754C19.1605 16.1754 18.7051 15.9897 18.3315 15.6185C17.9579 15.2472 17.7712 14.7946 17.7712 14.2607C17.7712 13.7268 17.9579 13.2742 18.3315 12.9029C18.7051 12.5316 19.1605 12.346 19.6977 12.346C20.2349 12.346 20.6903 12.5316 21.0639 12.9029C21.4375 13.2742 21.6243 13.7268 21.6243 14.2607C21.6243 14.7946 21.4375 15.2472 21.0639 15.6185C20.6903 15.9897 20.2349 16.1754 19.6977 16.1754ZM12.5 15.2433C11.6909 15.2433 11.0049 14.9635 10.4419 14.404C9.87892 13.8445 9.59743 13.1627 9.59743 12.3586C9.59743 11.5545 9.87892 10.8727 10.4419 10.3132C11.0049 9.75372 11.6909 9.47396 12.5 9.47396C13.3091 9.47396 13.9951 9.75372 14.5581 10.3132C15.1211 10.8727 15.4026 11.5545 15.4026 12.3586C15.4026 13.1627 15.1211 13.8445 14.5581 14.404C13.9951 14.9635 13.3091 15.2433 12.5 15.2433Z" fill="currentColor"/>
</svg>
