<svg width="100%" height="100%" viewBox="0 0 25 24" fill="none" xmlns="http://www.w3.org/2000/svg">
<path d="M7.64154 3C8.58323 3 9.48007 3.19535 10.3321 3.58606C11.1841 3.97678 11.9067 4.52656 12.5 5.23541C13.0933 4.52656 13.8159 3.97678 14.6679 3.58606C15.5199 3.19535 16.4168 3 17.3585 3C19.021 3 20.4263 3.57051 21.5744 4.71154C22.7225 5.85257 23.2966 7.24922 23.2966 8.90149C23.2966 9.44252 23.2249 9.98449 23.0817 10.5274C22.9384 11.0703 22.7379 11.6059 22.48 12.1341C22.2218 11.8088 21.9188 11.5386 21.571 11.3235C21.2231 11.1084 20.8442 10.9633 20.4341 10.8881C20.5851 10.5453 20.7026 10.21 20.7865 9.88217C20.8704 9.55431 20.9123 9.22742 20.9123 8.90149C20.9123 7.91597 20.5679 7.08094 19.8791 6.3964C19.1903 5.71184 18.3501 5.36956 17.3585 5.36956C16.254 5.36956 15.3799 5.65061 14.7361 6.21269C14.0923 6.77478 13.3469 7.54989 12.5 8.53801C11.6531 7.54342 10.9077 6.76669 10.2639 6.20784C9.6201 5.64899 8.74597 5.36956 7.64154 5.36956C6.64991 5.36956 5.80969 5.71184 5.1209 6.3964C4.4321 7.08094 4.08769 7.91597 4.08769 8.90149C4.08769 9.22742 4.12964 9.55431 4.21354 9.88217C4.29744 10.21 4.4149 10.5453 4.56591 10.8881C4.16429 10.9633 3.78957 11.1105 3.44174 11.3298C3.09391 11.5492 2.78667 11.8215 2.52001 12.1467C2.25856 11.6102 2.0571 11.0705 1.91562 10.5275C1.77416 9.98453 1.70343 9.44252 1.70343 8.90149C1.70343 7.24922 2.27748 5.85257 3.42559 4.71154C4.5737 3.57051 5.97902 3 7.64154 3ZM2.69214 21C2.36093 21 2.07944 20.8848 1.84767 20.6545C1.61589 20.4241 1.5 20.1444 1.5 19.8152V19.3895C1.5 18.6727 1.85108 18.0984 2.55325 17.6666C3.25545 17.2349 4.17179 17.019 5.30228 17.019C5.42454 17.019 5.53975 17.0222 5.64791 17.0287C5.75605 17.0352 5.86185 17.0449 5.96531 17.0579C5.73843 17.398 5.5699 17.7597 5.45971 18.1428C5.34953 18.5259 5.29443 18.9341 5.29443 19.3672V21H2.69214ZM8.09043 21C7.75923 21 7.47774 20.8848 7.24596 20.6545C7.01418 20.4241 6.89829 20.1444 6.89829 19.8152V19.3672C6.89829 18.3385 7.41383 17.5037 8.44492 16.8627C9.47601 16.2218 10.8277 15.9013 12.5 15.9013C14.1805 15.9013 15.5343 16.2218 16.5612 16.8627C17.5882 17.5037 18.1017 18.3385 18.1017 19.3672V19.8152C18.1017 20.1444 17.9858 20.4241 17.754 20.6545C17.5223 20.8848 17.2408 21 16.9096 21H8.09043ZM19.7056 21V19.3672C19.7056 18.9376 19.6488 18.5282 19.5354 18.1391C19.422 17.75 19.2551 17.3896 19.0347 17.0579C19.1381 17.0449 19.2439 17.0352 19.3521 17.0287C19.4603 17.0222 19.5755 17.019 19.6977 17.019C20.8282 17.019 21.7446 17.2349 22.4468 17.6666C23.1489 18.0984 23.5 18.6727 23.5 19.3895V19.8152C23.5 20.1444 23.3841 20.4241 23.1523 20.6545C22.9205 20.8848 22.6391 21 22.3079 21H19.7056ZM12.5 18.0308C11.8063 18.0308 11.1666 18.1147 10.5808 18.2825C9.99501 18.4503 9.59551 18.6463 9.38231 18.8705H15.6177C15.398 18.6398 14.9968 18.4422 14.4143 18.2776C13.8318 18.1131 13.1937 18.0308 12.5 18.0308ZM5.30228 16.1754C4.76506 16.1754 4.30966 15.9897 3.93607 15.6185C3.56249 15.2472 3.3757 14.7946 3.3757 14.2607C3.3757 13.7268 3.5625 13.2742 3.93609 12.9029C4.30967 12.5316 4.76506 12.346 5.30228 12.346C5.8395 12.346 6.2949 12.5316 6.66848 12.9029C7.04205 13.2742 7.22884 13.7268 7.22884 14.2607C7.22884 14.7946 7.04205 15.2472 6.66848 15.6185C6.2949 15.9897 5.8395 16.1754 5.30228 16.1754ZM19.6977 16.1754C19.1605 16.1754 18.7051 15.9897 18.3315 15.6185C17.9579 15.2472 17.7712 14.7946 17.7712 14.2607C17.7712 13.7268 17.9579 13.2742 18.3315 12.9029C18.7051 12.5316 19.1605 12.346 19.6977 12.346C20.2349 12.346 20.6903 12.5316 21.0639 12.9029C21.4375 13.2742 21.6243 13.7268 21.6243 14.2607C21.6243 14.7946 21.4375 15.2472 21.0639 15.6185C20.6903 15.9897 20.2349 16.1754 19.6977 16.1754ZM12.497 15.2433C11.6899 15.2433 11.0049 14.9626 10.4419 14.4011C9.87892 13.8396 9.59743 13.1578 9.59743 12.3557C9.59743 11.5535 9.87992 10.8727 10.4449 10.3132C11.0099 9.75372 11.6959 9.47396 12.503 9.47396C13.3101 9.47396 13.9951 9.75471 14.5581 10.3162C15.1211 10.8777 15.4026 11.5595 15.4026 12.3616C15.4026 13.1637 15.1201 13.8445 14.5551 14.404C13.9901 14.9635 13.3041 15.2433 12.497 15.2433ZM12.4978 11.5908C12.2782 11.5908 12.095 11.6646 11.948 11.8122C11.8009 11.9598 11.7274 12.1427 11.7274 12.3608C11.7274 12.579 11.8017 12.7612 11.9502 12.9073C12.0987 13.0534 12.2827 13.1264 12.5022 13.1264C12.7218 13.1264 12.905 13.0526 13.052 12.9051C13.1991 12.7575 13.2726 12.5746 13.2726 12.3564C13.2726 12.1382 13.1983 11.9561 13.0498 11.81C12.9013 11.6639 12.7173 11.5908 12.4978 11.5908Z" fill="currentColor"/>
</svg>
