<svg width="100%" height="100%" viewBox="0 0 25 24" fill="none" xmlns="http://www.w3.org/2000/svg">
<path d="M12.4717 22.7962C12.3007 22.7962 12.1357 22.7683 11.9766 22.7125C11.8175 22.6567 11.6739 22.5646 11.5456 22.4364L9.28801 20.1647H5.66956C4.93114 20.1647 4.30486 19.9076 3.79073 19.3935C3.2766 18.8793 3.01953 18.2531 3.01953 17.5146V3.85379C3.01953 3.11537 3.2766 2.48909 3.79073 1.97496C4.30486 1.46081 4.93114 1.20374 5.66956 1.20374H19.3304C20.0688 1.20374 20.6951 1.46081 21.2092 1.97496C21.7234 2.48909 21.9804 3.11537 21.9804 3.85379V17.5146C21.9804 18.2531 21.7234 18.8793 21.2092 19.3935C20.6951 19.9076 20.0688 20.1647 19.3304 20.1647H15.6696L13.412 22.4364C13.2837 22.5647 13.1377 22.6567 12.9739 22.7125C12.8101 22.7683 12.6427 22.7962 12.4717 22.7962ZM12.5 11.9668C13.5043 11.9668 14.3576 11.6157 15.0598 10.9135C15.7619 10.2114 16.113 9.35811 16.113 8.35376C16.113 7.34941 15.7619 6.4985 15.0598 5.80104C14.3576 5.10357 13.5043 4.75484 12.5 4.75484C11.4956 4.75484 10.6424 5.10357 9.94021 5.80104C9.23802 6.4985 8.88693 7.34941 8.88693 8.35376C8.88693 9.35811 9.23802 10.2114 9.94021 10.9135C10.6424 11.6157 11.4956 11.9668 12.5 11.9668ZM12.5 18.7537L15.2228 17.5146H19.3304V16.0537C18.4304 15.2175 17.4128 14.5711 16.2777 14.1146C15.1426 13.6581 13.8833 13.4298 12.5 13.4298C11.1166 13.4298 9.85741 13.6628 8.72226 14.1287C7.58712 14.5947 6.56956 15.2458 5.66956 16.082V17.5146H9.73473L12.5 18.7537Z" fill="currentColor"/>
</svg>
