<svg width="25" height="24" viewBox="0 0 25 24" fill="none" xmlns="http://www.w3.org/2000/svg">
<path d="M7.51087 21.9186C6.85797 21.9186 6.2875 21.7108 5.79945 21.2952C5.3114 20.8796 5.01157 20.3501 4.89997 19.7066L3.4315 10.9099C3.36266 10.5062 3.4594 10.1459 3.72172 9.82886C3.98405 9.51183 4.32065 9.35331 4.73152 9.35331H20.2685C20.6793 9.35331 21.0159 9.51183 21.2783 9.82886C21.5406 10.1459 21.6373 10.5062 21.5685 10.9099L20.1 19.7066C19.9884 20.3501 19.6886 20.8796 19.2005 21.2952C18.7125 21.7108 18.142 21.9186 17.4891 21.9186H7.51087ZM6.32392 12.0034L7.48587 19.2685H17.5141L18.6761 12.0034H6.32392ZM10.5 16.0881H14.5C14.8681 16.0881 15.181 15.9593 15.4386 15.7017C15.6962 15.4441 15.825 15.1312 15.825 14.7631C15.825 14.395 15.6962 14.0821 15.4386 13.8245C15.181 13.5669 14.8681 13.4381 14.5 13.4381H10.5C10.1319 13.4381 9.81901 13.5669 9.5614 13.8245C9.30378 14.0821 9.17497 14.395 9.17497 14.7631C9.17497 15.1312 9.30378 15.4441 9.5614 15.7017C9.81901 15.9593 10.1319 16.0881 10.5 16.0881ZM6.5 8.36743C6.13188 8.36743 5.81901 8.23863 5.5614 7.98103C5.30378 7.72342 5.17497 7.41055 5.17497 7.04243C5.17497 6.67432 5.30378 6.36145 5.5614 6.10383C5.81901 5.84622 6.13188 5.71741 6.5 5.71741H18.5C18.8681 5.71741 19.181 5.84622 19.4386 6.10383C19.6962 6.36145 19.825 6.67432 19.825 7.04243C19.825 7.41055 19.6962 7.72342 19.4386 7.98103C19.181 8.23863 18.8681 8.36743 18.5 8.36743H6.5ZM8.5 4.71741C8.13188 4.71741 7.81901 4.5886 7.5614 4.33098C7.30378 4.07338 7.17497 3.76052 7.17497 3.39238C7.17497 3.02427 7.30378 2.7114 7.5614 2.45378C7.81901 2.19618 8.13188 2.06738 8.5 2.06738H16.5C16.8681 2.06738 17.181 2.19618 17.4386 2.45378C17.6962 2.7114 17.825 3.02427 17.825 3.39238C17.825 3.76052 17.6962 4.07338 17.4386 4.33098C17.181 4.5886 16.8681 4.71741 16.5 4.71741H8.5Z" fill="#383838"/>
</svg>
