<svg width="25" height="24" viewBox="0 0 25 24" fill="none" xmlns="http://www.w3.org/2000/svg">
<path d="M14.638 21.1989L9.49998 19.3946L5.01956 21.1522C4.53549 21.342 4.08113 21.288 3.65648 20.9902C3.23185 20.6924 3.01953 20.279 3.01953 19.75V5.74996C3.01953 5.42966 3.11265 5.14379 3.29888 4.89234C3.48511 4.64089 3.73366 4.45936 4.04453 4.34776L8.63801 2.78689C8.92062 2.69197 9.20795 2.64505 9.49998 2.64614C9.79202 2.64722 10.0793 2.69885 10.362 2.80104L15.5 4.60536L19.9804 2.84776C20.4645 2.65791 20.9188 2.7119 21.3435 3.00974C21.7681 3.30755 21.9804 3.72096 21.9804 4.24996V18.25C21.9804 18.5703 21.8873 18.8561 21.7011 19.1076C21.5148 19.359 21.2663 19.5406 20.9554 19.6522L16.362 21.213C16.0793 21.308 15.792 21.3549 15.5 21.3538C15.2079 21.3527 14.9206 21.3011 14.638 21.1989ZM14.5 18.3521V7.04779L10.5 5.64779V16.9521L14.5 18.3521ZM16.5 18.3521L19.3304 17.4228V5.95431L16.5 7.04779V18.3521ZM5.66956 18.0456L8.49998 16.9521V5.64779L5.66956 6.57714V18.0456Z" fill="#383838"/>
</svg>
