<svg width="100%" height="100%" viewBox="0 0 25 24" fill="none" xmlns="http://www.w3.org/2000/svg">
<g clip-path="url(#clip0_127_164)">
<path d="M11.5669 8.64071L9.66143 6.73853C9.39548 6.4726 9.26251 6.15919 9.26251 5.79831C9.26251 5.43744 9.39548 5.12403 9.66143 4.85808L11.5682 2.95593C11.8333 2.68998 12.1452 2.55701 12.504 2.55701C12.8628 2.55701 13.1761 2.68998 13.4441 2.95593L15.3495 4.85808C15.6154 5.12403 15.7484 5.43744 15.7484 5.79831C15.7484 6.15919 15.6154 6.4726 15.3495 6.73853L13.4427 8.64071C13.1777 8.90666 12.8657 9.03963 12.5069 9.03963C12.1481 9.03963 11.8348 8.90666 11.5669 8.64071ZM2.26686 21.4429C1.89874 21.4429 1.58588 21.3141 1.32826 21.0565C1.07064 20.7989 0.941833 20.486 0.941833 20.1179V17.1179C0.941833 16.4665 1.17064 15.9161 1.62826 15.4668C2.08588 15.0175 2.63208 14.7929 3.26686 14.7929H6.62666C6.98824 14.7929 7.30255 14.8621 7.56958 15.0005C7.83662 15.1389 8.05238 15.3356 8.21686 15.5907C8.71904 16.2878 9.34314 16.8291 10.0892 17.2146C10.8352 17.6001 11.6364 17.7929 12.493 17.7929C13.3567 17.7929 14.164 17.6001 14.9147 17.2146C15.6654 16.8291 16.2882 16.2878 16.7832 15.5907C16.9622 15.3356 17.1834 15.1389 17.4468 15.0005C17.7102 14.8621 18.0143 14.7929 18.3593 14.7929H21.7332C22.3846 14.7929 22.935 15.0175 23.3843 15.4668C23.8336 15.9161 24.0582 16.4665 24.0582 17.1179V20.1179C24.0582 20.486 23.9294 20.7989 23.6718 21.0565C23.4142 21.3141 23.1013 21.4429 22.7332 21.4429H17.7332C17.3651 21.4429 17.0522 21.3141 16.7946 21.0565C16.537 20.7989 16.4082 20.486 16.4082 20.1179V19.0408C15.8249 19.4009 15.2027 19.6775 14.5419 19.8706C13.881 20.0637 13.198 20.1603 12.493 20.1603C11.8046 20.1603 11.1281 20.0619 10.4636 19.8652C9.79913 19.6685 9.17522 19.39 8.59188 19.0299V20.1179C8.59188 20.486 8.46308 20.7989 8.20546 21.0565C7.94784 21.3141 7.63498 21.4429 7.26686 21.4429H2.26686ZM4.49296 13.2277C3.62194 13.2277 2.88063 12.9219 2.26903 12.3103C1.65743 11.6987 1.35163 10.9574 1.35163 10.0864C1.35163 9.20809 1.65743 8.46497 2.26903 7.85701C2.88065 7.24902 3.62196 6.94503 4.49296 6.94503C5.37123 6.94503 6.11434 7.24902 6.72231 7.85701C7.33028 8.46497 7.63426 9.20809 7.63426 10.0864C7.63426 10.9574 7.33028 11.6987 6.72231 12.3103C6.11434 12.9219 5.37123 13.2277 4.49296 13.2277ZM20.493 13.2277C19.6219 13.2277 18.8806 12.9219 18.269 12.3103C17.6574 11.6987 17.3517 10.9574 17.3517 10.0864C17.3517 9.20809 17.6574 8.46497 18.269 7.85701C18.8806 7.24902 19.6219 6.94503 20.493 6.94503C21.3712 6.94503 22.1143 7.24902 22.7223 7.85701C23.3303 8.46497 23.6343 9.20809 23.6343 10.0864C23.6343 10.9574 23.3303 11.6987 22.7223 12.3103C22.1143 12.9219 21.3712 13.2277 20.493 13.2277Z" fill="currentColor"/>
</g>
<defs>
<clipPath id="clip0_127_164">
<rect width="100%" height="100%" fill="white" transform="translate(0.5)"/>
</clipPath>
</defs>
</svg>
