<svg width="100%" height="100%" viewBox="0 0 25 24" fill="none" xmlns="http://www.w3.org/2000/svg">
<path d="M7.57064 18.7348C7.18369 18.7348 6.86612 18.6078 6.61792 18.3538C6.36974 18.0998 6.24564 17.7852 6.24564 17.4097V15.0847H19.6554V5.70319H21.9804C22.3559 5.70319 22.6706 5.83017 22.9245 6.08414C23.1785 6.33809 23.3055 6.65277 23.3055 7.02819V19.6597C23.3055 20.2475 23.033 20.6557 22.4881 20.8843C21.9431 21.1128 21.4605 21.017 21.0402 20.5967L19.1783 18.7348H7.57064ZM5.92062 13.0847L3.94564 15.0456C3.52534 15.4659 3.04508 15.5617 2.50484 15.3331C1.96463 15.1046 1.69452 14.6964 1.69452 14.1086V2.46296C1.69452 2.08753 1.8215 1.77284 2.07547 1.51889C2.32942 1.26492 2.64411 1.13794 3.01954 1.13794H16.3304C16.7058 1.13794 17.0205 1.26492 17.2745 1.51889C17.5285 1.77284 17.6554 2.08753 17.6554 2.46296V11.7597C17.6554 12.1351 17.5285 12.4498 17.2745 12.7038C17.0205 12.9577 16.7058 13.0847 16.3304 13.0847H5.92062ZM15.0054 10.4347V3.78796H4.34454V10.4347H15.0054Z" fill="currentColor" />
</svg>
