<svg width="100%" height="100%" viewBox="0 0 25 24" fill="none" xmlns="http://www.w3.org/2000/svg">
<path d="M14.3304 18.8304L19.3304 13.8304H15.6554C15.2873 13.8304 14.9744 13.9592 14.7168 14.2168C14.4592 14.4744 14.3304 14.7873 14.3304 15.1554V18.8304ZM5.66956 21.4804C4.94079 21.4804 4.31693 21.2209 3.79798 20.702C3.27901 20.183 3.01953 19.5592 3.01953 18.8304V5.16956C3.01953 4.44079 3.27901 3.81693 3.79798 3.29798C4.31693 2.77901 4.94079 2.51953 5.66956 2.51953H19.3304C20.0592 2.51953 20.683 2.77901 21.202 3.29798C21.7209 3.81693 21.9804 4.44079 21.9804 5.16956V13.9772C21.9804 14.3309 21.9139 14.6681 21.781 14.9887C21.648 15.3093 21.4569 15.5942 21.2076 15.8435L16.3435 20.7076C16.0942 20.9569 15.8093 21.148 15.4887 21.281C15.1681 21.4139 14.8309 21.4804 14.4772 21.4804H5.66956ZM8.76848 14.1696H11.4435C11.7548 14.1696 12.0158 14.0629 12.2264 13.8496C12.4371 13.6362 12.5424 13.3719 12.5424 13.0565C12.5424 12.7451 12.4371 12.4841 12.2264 12.2735C12.0158 12.0629 11.7548 11.9576 11.4435 11.9576H8.78261C8.46724 11.9576 8.20289 12.0629 7.98956 12.2736C7.77622 12.4843 7.66956 12.7453 7.66956 13.0568C7.66956 13.3682 7.77487 13.6315 7.98551 13.8467C8.19612 14.0619 8.45711 14.1696 8.76848 14.1696ZM8.76848 9.95758H16.2315C16.5428 9.95758 16.8038 9.85092 17.0145 9.63758C17.2251 9.42425 17.3304 9.1599 17.3304 8.84453C17.3304 8.53318 17.2251 8.27219 17.0145 8.06156C16.8038 7.85094 16.5428 7.74563 16.2315 7.74563H8.78261C8.46724 7.74563 8.20289 7.85097 7.98956 8.06163C7.77622 8.2723 7.66956 8.53335 7.66956 8.84478C7.66956 9.15621 7.77487 9.41954 7.98551 9.63476C8.19612 9.84997 8.45711 9.95758 8.76848 9.95758Z" fill="currentColor"/>
</svg>
