<svg width="25" height="24" viewBox="0 0 25 24" fill="none" xmlns="http://www.w3.org/2000/svg">
<g clip-path="url(#clip0_214_73)">
<path d="M13.0597 16.6695L21.2793 8.44999L20.3185 7.48914L12.0989 15.7087L13.0597 16.6695ZM3.45755 15.2891C3.45755 15.6688 3.61244 15.9708 3.92223 16.1951C4.23201 16.4194 4.72784 16.5732 5.40973 16.6565C5.74234 16.6993 6.0043 16.8531 6.1956 17.1179C6.3869 17.3828 6.47422 17.6815 6.45755 18.0141C6.44089 18.3634 6.31734 18.6533 6.0869 18.8837C5.85647 19.1141 5.57494 19.208 5.24233 19.1652C3.78869 18.9797 2.7097 18.5663 2.00535 17.925C1.30102 17.2837 0.948853 16.4004 0.948853 15.275C0.948853 14.154 1.38997 13.2418 2.2722 12.5386C3.15445 11.8353 4.40609 11.3888 6.0271 11.1989C6.73362 11.1112 7.23054 11.007 7.51785 10.8864C7.80517 10.7657 7.94883 10.592 7.94883 10.3652C7.94883 10.0739 7.78325 9.83821 7.4521 9.65814C7.12094 9.47807 6.60246 9.32971 5.89668 9.21304C5.56406 9.16086 5.3021 9.00053 5.1108 8.73207C4.91949 8.46358 4.84049 8.16303 4.87383 7.83042C4.90716 7.48113 5.05209 7.1978 5.30863 6.98042C5.56514 6.76302 5.85971 6.68041 6.19233 6.73259C7.62276 6.97027 8.69124 7.38821 9.39778 7.98639C10.1043 8.58459 10.4576 9.37753 10.4576 10.3652C10.4576 11.2674 10.1179 11.9991 9.43853 12.5603C8.75918 13.1215 7.76154 13.4899 6.4456 13.6652C5.4543 13.7956 4.70847 13.9962 4.2081 14.2668C3.70774 14.5375 3.45755 14.8782 3.45755 15.2891ZM13.6761 19.6131L9.15538 15.0924L18.875 5.37282C19.2837 4.96412 19.769 4.75977 20.331 4.75977C20.8929 4.75977 21.3782 4.96412 21.7869 5.37282L23.3956 6.98149C23.8043 7.39019 24.0087 7.87788 24.0087 8.44457C24.0087 9.01123 23.8043 9.49892 23.3956 9.90762L13.6761 19.6131ZM9.61625 20.4522C9.23872 20.5283 8.90864 20.425 8.62603 20.1424C8.34343 19.8598 8.24017 19.5297 8.31625 19.1522L9.15538 15.0924L13.6761 19.6131L9.61625 20.4522Z" fill="#383838"/>
</g>
<defs>
<clipPath id="clip0_214_73">
<rect width="24" height="24" fill="white" transform="translate(0.5)"/>
</clipPath>
</defs>
</svg>
