<svg width="25" height="24" viewBox="0 0 25 24" fill="none" xmlns="http://www.w3.org/2000/svg">
<path d="M12.5 16C13.75 16 14.8125 15.5625 15.6875 14.6875C16.5625 13.8125 17 12.75 17 11.5C17 10.25 16.5625 9.18747 15.6875 8.31247C14.8125 7.43747 13.75 6.99996 12.5 6.99996C11.25 6.99996 10.1875 7.43747 9.31247 8.31247C8.43747 9.18747 7.99997 10.25 7.99997 11.5C7.99997 12.75 8.43747 13.8125 9.31247 14.6875C10.1875 15.5625 11.25 16 12.5 16ZM12.5025 13.9032C11.8356 13.9032 11.2679 13.6698 10.7994 13.203C10.331 12.7362 10.0967 12.1693 10.0967 11.5025C10.0967 10.8356 10.3301 10.2679 10.7969 9.79944C11.2638 9.33096 11.8306 9.09671 12.4975 9.09671C13.1644 9.09671 13.732 9.33012 14.2005 9.79694C14.669 10.2638 14.9032 10.8306 14.9032 11.4975C14.9032 12.1643 14.6698 12.732 14.203 13.2005C13.7362 13.669 13.1693 13.9032 12.5025 13.9032ZM12.5 19.438C10.1174 19.438 7.9371 18.7996 5.9592 17.5228C3.9813 16.246 2.47713 14.5377 1.4467 12.3978C1.37973 12.2886 1.33509 12.152 1.31277 11.9881C1.29046 11.8243 1.2793 11.6616 1.2793 11.5C1.2793 11.3384 1.29046 11.1756 1.3128 11.0118C1.3351 10.8479 1.37973 10.7114 1.4467 10.6021C2.47713 8.46227 3.9813 6.75393 5.9592 5.47711C7.9371 4.2003 10.1174 3.56189 12.5 3.56189C14.8826 3.56189 17.0628 4.2003 19.0407 5.47711C21.0186 6.75393 22.5228 8.46227 23.5532 10.6021C23.6202 10.7114 23.6649 10.8479 23.6872 11.0118C23.7095 11.1756 23.7206 11.3384 23.7206 11.5C23.7206 11.6616 23.7095 11.8243 23.6872 11.9881C23.6649 12.152 23.6202 12.2886 23.5532 12.3978C22.5228 14.5377 21.0186 16.246 19.0407 17.5228C17.0628 18.7996 14.8826 19.438 12.5 19.438ZM12.5012 17C14.3743 17 16.0936 16.5018 17.6592 15.5054C19.2248 14.509 20.4242 13.1739 21.2576 11.5C20.4242 9.82605 19.2244 8.49091 17.6579 7.49454C16.0915 6.49816 14.3718 5.99996 12.4987 5.99996C10.6256 5.99996 8.90631 6.49816 7.34072 7.49454C5.77516 8.49091 4.57571 9.82605 3.74237 11.5C4.57571 13.1739 5.77558 14.509 7.342 15.5054C8.90841 16.5018 10.6282 17 12.5012 17Z" fill="#383838"/>
</svg>
