<svg width="100%" height="100%" viewBox="0 0 25 24" fill="none" xmlns="http://www.w3.org/2000/svg">
<path d="M16.6847 13.0598L14.6271 11.0022C14.7112 10.558 14.578 10.1355 14.2277 9.73481C13.8773 9.33411 13.4297 9.17578 12.8848 9.25983L10.9402 7.31526C11.1953 7.21017 11.4521 7.13136 11.7108 7.07883C11.9695 7.0263 12.2326 7.00003 12.5 7.00003C13.75 7.00003 14.8125 7.43753 15.6875 8.31253C16.5625 9.18753 17 10.25 17 11.5C17 11.7486 16.9737 12.0116 16.9212 12.2892C16.8686 12.5667 16.7898 12.8236 16.6847 13.0598ZM20.2522 16.6055L18.5195 14.8946C19.0869 14.4301 19.5953 13.9268 20.0445 13.3848C20.4938 12.8428 20.9029 12.2145 21.2717 11.5C20.4195 9.82611 19.2237 8.49097 17.6842 7.49461C16.1447 6.49822 14.4166 6.00003 12.5 6.00003C12.0166 6.00003 11.5675 6.02866 11.1527 6.08591C10.7378 6.14316 10.3384 6.22431 9.95432 6.32938L8.03692 4.41196C8.72026 4.12862 9.4391 3.91612 10.1934 3.77446C10.9478 3.63279 11.7166 3.56196 12.5 3.56196C14.9116 3.56196 17.098 4.19819 19.0592 5.47066C21.0205 6.74312 22.5185 8.45364 23.5532 10.6022C23.6221 10.7138 23.6672 10.8509 23.6886 11.0136C23.71 11.1763 23.7206 11.3384 23.7206 11.5C23.7206 11.6616 23.7058 11.8238 23.6761 11.9865C23.6464 12.1491 23.6054 12.2863 23.5532 12.3979C23.1605 13.229 22.6813 14.0029 22.1157 14.7196C21.5502 15.4363 20.929 16.0649 20.2522 16.6055ZM19.3456 21.999L16.1847 18.8598C15.6203 19.0526 15.0328 19.1971 14.4222 19.2935C13.8117 19.3899 13.171 19.4381 12.5 19.4381C10.0884 19.4381 7.90196 18.7995 5.94072 17.5223C3.97949 16.2452 2.48148 14.537 1.4467 12.3979C1.37786 12.2863 1.33276 12.1491 1.31137 11.9865C1.28999 11.8238 1.2793 11.6616 1.2793 11.5C1.2793 11.3384 1.28999 11.1781 1.31137 11.0191C1.33274 10.86 1.37785 10.7247 1.4467 10.6131C1.78728 9.90074 2.19217 9.23263 2.66137 8.60873C3.13057 7.98481 3.6427 7.40619 4.19777 6.87286L2.27822 4.92828C2.06662 4.7167 1.96082 4.46163 1.96082 4.16308C1.96082 3.86453 2.07024 3.60583 2.28907 3.38698C2.50067 3.17538 2.75991 3.06958 3.0668 3.06958C3.3737 3.06958 3.63294 3.17538 3.84452 3.38698L20.901 20.4435C21.1126 20.6551 21.2203 20.9125 21.2239 21.2158C21.2275 21.519 21.1199 21.7801 20.901 21.999C20.6895 22.2106 20.4302 22.3164 20.1233 22.3164C19.8164 22.3164 19.5572 22.2106 19.3456 21.999ZM5.9228 8.55548C5.4583 9.00765 5.05195 9.46381 4.70377 9.92395C4.35559 10.3841 4.03512 10.9094 3.74237 11.5C4.57571 13.1834 5.76447 14.5209 7.30867 15.5125C8.85287 16.5042 10.5833 17 12.5 17C12.7485 17 13.0099 16.9863 13.2842 16.9587C13.5585 16.9312 13.8623 16.8924 14.1956 16.8424L13.2956 15.8924C13.1594 15.933 13.0268 15.9611 12.8978 15.9767C12.7688 15.9922 12.6362 16 12.5 16C11.25 16 10.1875 15.5625 9.31247 14.6875C8.43747 13.8125 7.99997 12.75 7.99997 11.5C7.99997 11.3732 8.00541 11.243 8.01627 11.1093C8.02714 10.9756 8.04816 10.8406 8.07932 10.7044L5.9228 8.55548Z" fill="currentColor" />
</svg>
