<svg width="25" height="24" viewBox="0 0 25 24" fill="none" xmlns="http://www.w3.org/2000/svg">
<path d="M9.82508 13.675H19.8251L16.3751 9.17503L14.0751 12.175L12.5251 10.175L9.82508 13.675ZM8.99466 18.1555C8.25624 18.1555 7.62996 17.8984 7.11581 17.3843C6.60167 16.8702 6.34461 16.2439 6.34461 15.5055V3.8446C6.34461 3.10619 6.60167 2.47991 7.11581 1.96578C7.62996 1.45165 8.25624 1.19458 8.99466 1.19458H20.6555C21.3939 1.19458 22.0202 1.45165 22.5343 1.96578C23.0485 2.47991 23.3055 3.10619 23.3055 3.8446V15.5055C23.3055 16.2439 23.0485 16.8702 22.5343 17.3843C22.0202 17.8984 21.3939 18.1555 20.6555 18.1555H8.99466ZM8.99466 15.5055H20.6555V3.8446H8.99466V15.5055ZM4.34461 22.8055C3.60619 22.8055 2.97991 22.5485 2.46578 22.0343C1.95165 21.5202 1.69458 20.8939 1.69458 20.1555V5.8446H4.34461V20.1555H18.6555V22.8055H4.34461ZM8.99466 3.8446H20.6555V15.5055H8.99466V3.8446Z" fill="#383838"/>
</svg>
