<svg width="25" height="24" viewBox="0 0 25 24" fill="none" xmlns="http://www.w3.org/2000/svg">
<path d="M14.075 12.175L13.0522 10.8446C12.9145 10.6736 12.7388 10.5881 12.525 10.5881C12.3112 10.5881 12.1355 10.6736 11.9978 10.8446L10.6478 12.6066C10.4768 12.8297 10.4512 13.0636 10.5709 13.3082C10.6907 13.5527 10.892 13.675 11.175 13.675H18.475C18.758 13.675 18.9594 13.5527 19.0791 13.3082C19.1988 13.0636 19.1732 12.8297 19.0022 12.6066L16.9022 9.86961C16.7645 9.69859 16.5888 9.61308 16.375 9.61308C16.1612 9.61308 15.9855 9.69859 15.8478 9.86961L14.075 12.175ZM8.99459 18.1555C8.25618 18.1555 7.62989 17.8984 7.11574 17.3843C6.60161 16.8702 6.34454 16.2439 6.34454 15.5055V3.8446C6.34454 3.10619 6.60161 2.47991 7.11574 1.96578C7.62989 1.45165 8.25618 1.19458 8.99459 1.19458H20.6554C21.3939 1.19458 22.0201 1.45165 22.5343 1.96578C23.0484 2.47991 23.3055 3.10619 23.3055 3.8446V15.5055C23.3055 16.2439 23.0484 16.8702 22.5343 17.3843C22.0201 17.8984 21.3939 18.1555 20.6554 18.1555H8.99459ZM8.99459 15.5055H20.6554V3.8446H8.99459V15.5055ZM4.34454 22.8055C3.60613 22.8055 2.97985 22.5485 2.46572 22.0343C1.95159 21.5202 1.69452 20.8939 1.69452 20.1555V7.16963C1.69452 6.80151 1.82333 6.48865 2.08094 6.23103C2.33854 5.97341 2.65141 5.8446 3.01954 5.8446C3.38766 5.8446 3.70053 5.97341 3.95814 6.23103C4.21574 6.48865 4.34454 6.80151 4.34454 7.16963V20.1555H17.3304C17.6985 20.1555 18.0114 20.2843 18.269 20.5419C18.5266 20.7995 18.6554 21.1124 18.6554 21.4805C18.6554 21.8486 18.5266 22.1615 18.269 22.4191C18.0114 22.6767 17.6985 22.8055 17.3304 22.8055H4.34454Z" fill="#383838"/>
</svg>
