<svg width="100%" height="100%" viewBox="0 0 25 24" fill="none" xmlns="http://www.w3.org/2000/svg">
<path d="M12.5 17.325C11.0224 17.325 9.76556 16.8069 8.72931 15.7707C7.69307 14.7344 7.17496 13.4775 7.17496 12C7.17496 10.5224 7.69307 9.26556 8.72931 8.22931C9.76556 7.19307 11.0224 6.67496 12.5 6.67496C13.9775 6.67496 15.2344 7.19307 16.2707 8.22931C17.3069 9.26556 17.825 10.5224 17.825 12C17.825 13.4775 17.3069 14.7344 16.2707 15.7707C15.2344 16.8069 13.9775 17.325 12.5 17.325ZM20.3304 12C20.3304 11.3565 20.2588 10.7357 20.1157 10.1375C19.9726 9.5393 19.7663 8.97209 19.4967 8.43586C19.3351 8.10107 19.2786 7.75198 19.3272 7.38858C19.3757 7.02517 19.5496 6.73187 19.8489 6.50868C20.1482 6.28548 20.4819 6.20721 20.85 6.27388C21.2181 6.34055 21.4877 6.53294 21.6587 6.85106C22.092 7.61991 22.4207 8.43458 22.6446 9.29508C22.8685 10.1556 22.9804 11.0572 22.9804 12C22.9804 12.9427 22.8643 13.8485 22.6321 14.7174C22.3998 15.5862 22.067 16.4051 21.6337 17.1739C21.4627 17.492 21.1949 17.6826 20.8304 17.7457C20.4659 17.8087 20.134 17.7286 19.8348 17.5054C19.5355 17.2822 19.3598 16.9866 19.3076 16.6185C19.2554 16.2503 19.3101 15.8989 19.4717 15.5641C19.7413 15.0279 19.9518 14.4625 20.1032 13.8679C20.2547 13.2733 20.3304 12.6507 20.3304 12ZM12.5 4.16956C11.8493 4.16956 11.2266 4.24528 10.6321 4.39673C10.0375 4.54818 9.47209 4.75868 8.93586 5.02823C8.60107 5.18983 8.24962 5.24455 7.88151 5.19238C7.51339 5.1402 7.21773 4.96447 6.99453 4.66521C6.77135 4.36592 6.69127 4.03403 6.75431 3.66953C6.81736 3.30503 7.00794 3.03727 7.32606 2.86626C8.09491 2.43292 8.91375 2.10013 9.78258 1.86788C10.6514 1.63565 11.5572 1.51953 12.5 1.51953C13.4427 1.51953 14.3485 1.63565 15.2174 1.86788C16.0862 2.10013 16.9051 2.43292 17.6739 2.86626C17.9993 3.03727 18.1935 3.30267 18.2565 3.66246C18.3196 4.02226 18.2395 4.35179 18.0163 4.65106C17.7931 4.95034 17.4974 5.12842 17.1293 5.18531C16.7612 5.24219 16.4098 5.18983 16.075 5.02823C15.5387 4.75868 14.9715 4.54818 14.3733 4.39673C13.7751 4.24528 13.1507 4.16956 12.5 4.16956ZM4.66956 12C4.66956 12.6507 4.74292 13.2733 4.88966 13.8679C5.03639 14.4625 5.24454 15.0279 5.51411 15.5641C5.67571 15.8989 5.73041 16.248 5.67823 16.6114C5.62606 16.9748 5.45034 17.2681 5.15106 17.4913C4.85179 17.7145 4.52226 17.7946 4.16246 17.7315C3.80267 17.6685 3.53727 17.4779 3.36626 17.1598C2.93292 16.3909 2.60013 15.5744 2.36788 14.7103C2.13565 13.8462 2.01953 12.9427 2.01953 12C2.01953 11.0572 2.13148 10.1556 2.35538 9.29508C2.5793 8.43458 2.90792 7.61991 3.34126 6.85106C3.51227 6.53294 3.78184 6.34055 4.14996 6.27388C4.51809 6.20721 4.85179 6.28548 5.15106 6.50868C5.45034 6.73187 5.62426 7.02517 5.67281 7.38858C5.72136 7.75198 5.66483 8.10107 5.50323 8.43586C5.23368 8.97209 5.02735 9.5393 4.88423 10.1375C4.74111 10.7357 4.66956 11.3565 4.66956 12ZM12.5 19.8304C13.1435 19.8304 13.7643 19.7588 14.3625 19.6157C14.9607 19.4726 15.5279 19.2663 16.0641 18.9967C16.3989 18.8351 16.7462 18.7804 17.106 18.8326C17.4657 18.8848 17.7572 19.0605 17.9804 19.3598C18.2036 19.659 18.2837 19.9909 18.2207 20.3554C18.1576 20.7199 17.967 20.9877 17.6489 21.1587C16.8801 21.592 16.0654 21.9207 15.2049 22.1446C14.3444 22.3685 13.4427 22.4804 12.5 22.4804C11.5572 22.4804 10.6556 22.3661 9.79508 22.1375C8.93458 21.9089 8.11991 21.5779 7.35106 21.1446C7.03294 20.9736 6.84055 20.7063 6.77388 20.3429C6.70721 19.9795 6.78548 19.6482 7.00868 19.3489C7.23186 19.0496 7.52517 18.8757 7.88858 18.8272C8.25198 18.7786 8.60107 18.8351 8.93586 18.9967C9.47209 19.2663 10.0393 19.4726 10.6375 19.6157C11.2357 19.7588 11.8565 19.8304 12.5 19.8304Z" fill="currentColor"/>
</svg>
