<svg width="100%" height="100%" viewBox="0 0 25 24" fill="none" xmlns="http://www.w3.org/2000/svg">
<path d="M12.5 13.1272C13.5043 13.1272 14.3576 12.7761 15.0598 12.074C15.7619 11.3718 16.113 10.5232 16.113 9.52829C16.113 8.52396 15.7619 7.6707 15.0598 6.96852C14.3576 6.26635 13.5043 5.91527 12.5 5.91527C11.4956 5.91527 10.6424 6.26635 9.94021 6.96852C9.23802 7.6707 8.88693 8.52396 8.88693 9.52829C8.88693 10.5232 9.23802 11.3718 9.94021 12.074C10.6424 12.7761 11.4956 13.1272 12.5 13.1272ZM12.5 19.7446C13.455 19.3902 14.3047 18.8779 15.0489 18.2076C15.7931 17.5374 16.4391 16.7772 16.9869 15.9272C16.2797 15.5794 15.5503 15.3167 14.7989 15.1392C14.0474 14.9616 13.2811 14.8729 12.5 14.8729C11.7188 14.8729 10.9525 14.9616 10.2011 15.1392C9.44963 15.3167 8.72028 15.5794 8.01303 15.9272C8.56085 16.7772 9.20687 17.5374 9.95108 18.2076C10.6953 18.8779 11.5449 19.3902 12.5 19.7446ZM12.5 22.3522C12.355 22.3522 12.2137 22.3415 12.0761 22.3202C11.9384 22.2988 11.8007 22.2667 11.663 22.224C9.34707 21.4551 7.49417 20.0064 6.10431 17.8778C4.71446 15.7491 4.01953 13.4899 4.01953 11.1V6.50222C4.01953 5.94425 4.17805 5.44207 4.49508 4.99569C4.81211 4.54931 5.22824 4.22756 5.74346 4.03044L11.5739 1.85112C11.8732 1.73952 12.1819 1.68372 12.5 1.68372C12.8181 1.68372 13.1268 1.73952 13.4261 1.85112L19.2565 4.03044C19.7717 4.22756 20.1878 4.54931 20.5049 4.99569C20.8219 5.44207 20.9804 5.94425 20.9804 6.50222V11.1C20.9804 13.4899 20.2855 15.7491 18.8957 17.8778C17.5058 20.0064 15.6529 21.4551 13.337 22.224C13.1993 22.2667 13.0616 22.2988 12.9239 22.3202C12.7862 22.3415 12.6449 22.3522 12.5 22.3522Z" fill="currentColor" />
</svg>
