<svg width="25" height="24" viewBox="0 0 25 24" fill="none" xmlns="http://www.w3.org/2000/svg">
<path d="M6.42063 16.888C7.27063 16.2569 8.21122 15.7632 9.24238 15.407C10.2735 15.0509 11.3604 14.8728 12.503 14.8728C13.6456 14.8728 14.7386 15.0579 15.7818 15.4282C16.8251 15.7985 17.7576 16.2898 18.5793 16.9022C19.1344 16.2094 19.565 15.4556 19.8712 14.6407C20.1773 13.8259 20.3304 12.9456 20.3304 12C20.3304 9.83983 19.5654 7.99472 18.0353 6.46466C16.5052 4.93459 14.6601 4.16956 12.5 4.16956C10.3398 4.16956 8.49472 4.93459 6.96466 6.46466C5.43459 7.99472 4.66956 9.83983 4.66956 12C4.66956 12.9362 4.82028 13.8118 5.12173 14.6266C5.42318 15.4415 5.85615 16.1953 6.42063 16.888ZM12.5 13.1272C11.479 13.1272 10.6215 12.7826 9.92771 12.0935C9.23386 11.4043 8.88693 10.5492 8.88693 9.52823C8.88693 8.50723 9.23386 7.64981 9.92771 6.95596C10.6215 6.26212 11.479 5.91521 12.5 5.91521C13.521 5.91521 14.3784 6.26212 15.0723 6.95596C15.7661 7.64981 16.113 8.50723 16.113 9.52823C16.113 10.5492 15.7661 11.4043 15.0723 12.0935C14.3784 12.7826 13.521 13.1272 12.5 13.1272ZM12.4988 22.4804C11.0503 22.4804 9.68947 22.2062 8.41628 21.6576C7.14308 21.1091 6.03293 20.3612 5.08583 19.4141C4.13873 18.467 3.3909 17.3565 2.84233 16.0825C2.2938 14.8085 2.01953 13.4473 2.01953 11.9988C2.01953 10.5503 2.29381 9.18946 2.84236 7.91628C3.39091 6.64308 4.13873 5.53293 5.08583 4.58583C6.03293 3.63873 7.14347 2.89091 8.41746 2.34236C9.69142 1.79381 11.0527 1.51953 12.5012 1.51953C13.9497 1.51953 15.3105 1.79381 16.5837 2.34236C17.8569 2.89091 18.967 3.63873 19.9141 4.58583C20.8612 5.53293 21.6091 6.64347 22.1576 7.91746C22.7062 9.19142 22.9804 10.5527 22.9804 12.0012C22.9804 13.4497 22.7062 14.8105 22.1576 16.0837C21.6091 17.3569 20.8612 18.467 19.9141 19.4141C18.967 20.3612 17.8565 21.1091 16.5825 21.6576C15.3085 22.2062 13.9473 22.4804 12.4988 22.4804ZM12.5 19.8304C13.3362 19.8304 14.1177 19.713 14.8445 19.4782C15.5713 19.2434 16.2598 18.9032 16.9098 18.4576C16.2409 18.0025 15.5549 17.66 14.8516 17.4299C14.1484 17.1998 13.3645 17.0848 12.5 17.0848C11.6355 17.0848 10.854 17.1998 10.1554 17.4299C9.45688 17.66 8.77318 18.0025 8.10433 18.4576C8.75433 18.9032 9.44038 19.2434 10.1625 19.4782C10.8846 19.713 11.6637 19.8304 12.5 19.8304ZM12.5 10.9152C12.8956 10.9152 13.2257 10.783 13.4902 10.5185C13.7547 10.254 13.8869 9.9239 13.8869 9.52823C13.8869 9.13258 13.7547 8.80016 13.4902 8.53096C13.2257 8.26176 12.8956 8.12716 12.5 8.12716C12.1043 8.12716 11.7743 8.26176 11.5098 8.53096C11.2453 8.80016 11.113 9.13258 11.113 9.52823C11.113 9.9239 11.2453 10.254 11.5098 10.5185C11.7743 10.783 12.1043 10.9152 12.5 10.9152Z" fill="#383838"/>
</svg>
