<svg width="25" height="24" viewBox="0 0 25 24" fill="none" xmlns="http://www.w3.org/2000/svg">
<path d="M6.42061 16.888C7.27061 16.2569 8.21119 15.7632 9.24236 15.407C10.2735 15.0509 11.3594 14.8728 12.5 14.8728C13.6405 14.8728 14.7335 15.0579 15.7788 15.4282C16.8241 15.7985 17.7576 16.2898 18.5793 16.9022C19.1344 16.2094 19.565 15.4556 19.8712 14.6407C20.1773 13.8259 20.3304 12.9456 20.3304 12C20.3304 9.83983 19.5653 7.99472 18.0353 6.46466C16.5052 4.93459 14.6601 4.16956 12.5 4.16956C10.3398 4.16956 8.4947 4.93459 6.96463 6.46466C5.43456 7.99472 4.66953 9.83983 4.66953 12C4.66953 12.9362 4.82026 13.8118 5.12171 14.6266C5.42316 15.4415 5.85612 16.1953 6.42061 16.888ZM12.5 13.1272C11.4789 13.1272 10.6215 12.7826 9.92768 12.0935C9.23383 11.4043 8.88691 10.5492 8.88691 9.52823C8.88691 8.50723 9.23383 7.64981 9.92768 6.95596C10.6215 6.26212 11.4789 5.91521 12.5 5.91521C13.521 5.91521 14.3784 6.26212 15.0722 6.95596C15.7661 7.64981 16.113 8.50723 16.113 9.52823C16.113 10.5492 15.7661 11.4043 15.0722 12.0935C14.3784 12.7826 13.521 13.1272 12.5 13.1272ZM12.5 22.4804C11.0507 22.4804 9.68944 22.2062 8.41626 21.6576C7.14306 21.1091 6.03291 20.3612 5.08581 19.4141C4.13871 18.467 3.39087 17.3569 2.84231 16.0837C2.29379 14.8105 2.01953 13.4493 2.01953 12C2.01953 10.5507 2.29381 9.18946 2.84236 7.91628C3.39091 6.64308 4.13873 5.53293 5.08583 4.58583C6.03293 3.63873 7.14308 2.89091 8.41628 2.34236C9.68945 1.79381 11.0507 1.51953 12.5 1.51953C13.9492 1.51953 15.3105 1.79381 16.5837 2.34236C17.8569 2.89091 18.967 3.63873 19.9141 4.58583C20.8612 5.53293 21.609 6.64308 22.1576 7.91628C22.7061 9.18946 22.9804 10.5507 22.9804 12C22.9804 13.4493 22.7061 14.8105 22.1576 16.0837C21.609 17.3569 20.8612 18.467 19.9141 19.4141C18.967 20.3612 17.8569 21.1091 16.5837 21.6576C15.3105 22.2062 13.9492 22.4804 12.5 22.4804Z" fill="#383838"/>
</svg>
