<svg width="25" height="24" viewBox="0 0 25 24" fill="none" xmlns="http://www.w3.org/2000/svg">
<path d="M12.5141 22.4804C11.0659 22.4804 9.70498 22.2062 8.43124 21.6576C7.15753 21.1091 6.04711 20.3612 5.09999 19.4141C4.15289 18.467 3.40507 17.3565 2.85652 16.0825C2.30797 14.8085 2.03369 13.4473 2.03369 11.9988C2.03369 10.5503 2.30797 9.18946 2.85652 7.91628C3.40507 6.64308 4.15289 5.53293 5.09999 4.58583C6.04711 3.63873 7.15765 2.89091 8.43162 2.34236C9.7056 1.79381 11.0668 1.51953 12.5153 1.51953C13.9638 1.51953 15.3223 1.79381 16.5908 2.34236C17.8593 2.89091 18.9671 3.63873 19.9142 4.58583C20.8613 5.53293 21.6091 6.64347 22.1576 7.91746C22.7062 9.19142 22.9805 10.5527 22.9805 12.0012C22.9805 13.4497 22.7062 14.8105 22.1576 16.0837C21.6091 17.3569 20.8613 18.467 19.9142 19.4141C18.9671 20.3612 17.8582 21.1091 16.5874 21.6576C15.3167 22.2062 13.9589 22.4804 12.5141 22.4804ZM11.5283 19.7804V17.8445C10.9877 17.8445 10.5262 17.6533 10.1438 17.2709C9.7614 16.8884 9.57019 16.4287 9.57019 15.8916V14.9152L4.88372 10.2282C4.83372 10.5188 4.78788 10.8094 4.74622 11.1C4.70455 11.3906 4.68372 11.6832 4.68372 11.9779C4.68372 13.9591 5.33208 15.6946 6.62882 17.1846C7.92557 18.6746 9.55872 19.5398 11.5283 19.7804ZM18.287 17.2869C18.6203 16.9297 18.9132 16.5433 19.1658 16.1277C19.4183 15.7121 19.6321 15.2775 19.8071 14.8239C19.9821 14.3703 20.1131 13.9049 20.2 13.4278C20.287 12.9506 20.3304 12.4653 20.3304 11.9717C20.3304 10.3774 19.8904 8.92145 19.0103 7.60373C18.1303 6.28602 16.946 5.33658 15.4576 4.75543V5.12716C15.4576 5.66551 15.2618 6.12637 14.8701 6.50973C14.4785 6.89308 14.0145 7.08476 13.4783 7.08476H11.5283V9.03816C11.5283 9.31487 11.4324 9.54907 11.2408 9.74073C11.0491 9.9324 10.8149 10.0282 10.5382 10.0282H8.58479V11.9717H14.466C14.7438 11.9717 14.9785 12.0676 15.1701 12.2592C15.3618 12.4509 15.4576 12.6849 15.4576 12.9612V15.8869H16.4152C16.8486 15.8869 17.2363 16.0161 17.5784 16.2744C17.9204 16.5328 18.1567 16.8703 18.287 17.2869Z" fill="#383838"/>
</svg>
