<svg width="25" height="24" viewBox="0 0 25 24" fill="none" xmlns="http://www.w3.org/2000/svg">
<path d="M12.5 17C13.8833 17 15.0625 16.5125 16.0375 15.5375C17.0125 14.5625 17.5 13.3833 17.5 12C17.5 10.6166 17.0125 9.43748 16.0375 8.46248C15.0625 7.48748 13.8833 6.99998 12.5 6.99998C11.1166 6.99998 9.93748 7.48748 8.96248 8.46248C7.98748 9.43748 7.49998 10.6166 7.49998 12C7.49998 13.3833 7.98748 14.5625 8.96248 15.5375C9.93748 16.5125 11.1166 17 12.5 17ZM12.5 22.4804C11.0413 22.4804 9.6754 22.2058 8.40233 21.6564C7.12925 21.1071 6.02185 20.3616 5.08013 19.4198C4.1384 18.4781 3.39286 17.3707 2.84353 16.0976C2.2942 14.8246 2.01953 13.4587 2.01953 12C2.01953 10.5413 2.2942 9.1754 2.84353 7.90233C3.39286 6.62925 4.1384 5.52185 5.08013 4.58013C6.02185 3.6384 7.12925 2.89287 8.40233 2.34353C9.6754 1.7942 11.0413 1.51953 12.5 1.51953C13.9587 1.51953 15.3246 1.7942 16.5976 2.34353C17.8707 2.89287 18.9781 3.6384 19.9198 4.58013C20.8616 5.52185 21.6071 6.62925 22.1564 7.90233C22.7058 9.1754 22.9804 10.5413 22.9804 12C22.9804 13.4587 22.7058 14.8246 22.1564 16.0976C21.6071 17.3707 20.8616 18.4781 19.9198 19.4198C18.9781 20.3616 17.8707 21.1071 16.5976 21.6564C15.3246 22.2058 13.9587 22.4804 12.5 22.4804ZM12.5 19.8304C14.6956 19.8304 16.5496 19.0742 18.0619 17.5619C19.5742 16.0496 20.3304 14.1956 20.3304 12C20.3304 9.80433 19.5742 7.95035 18.0619 6.43803C16.5496 4.92571 14.6956 4.16956 12.5 4.16956C10.3043 4.16956 8.45035 4.92571 6.93803 6.43803C5.42571 7.95035 4.66956 9.80433 4.66956 12C4.66956 14.1956 5.42571 16.0496 6.93803 17.5619C8.45035 19.0742 10.3043 19.8304 12.5 19.8304Z" fill="currentColor"/>
</svg>
