<svg width="25" height="24" viewBox="0 0 25 24" fill="none" xmlns="http://www.w3.org/2000/svg">
<circle cx="12.5" cy="12" r="11.25" stroke="#383838" stroke-width="1.5"/>
<path d="M10.228 6.73405C10.0618 6.90024 9.856 6.98333 9.61059 6.98333C9.36517 6.98333 9.15937 6.90024 8.99319 6.73405L8.25624 6.00653C8.09006 5.84035 8.00697 5.63454 8.00697 5.38913C8.00697 5.14372 8.09006 4.93635 8.25624 4.76702C8.42243 4.59769 8.62823 4.51303 8.87364 4.51303C9.11905 4.51303 9.32799 4.59927 9.50046 4.77173L10.228 5.49925C10.3942 5.66544 10.4788 5.86967 10.482 6.11193C10.4851 6.35421 10.4005 6.56158 10.228 6.73405ZM15.0425 6.73405C14.8763 6.56786 14.7932 6.36206 14.7932 6.11665C14.7932 5.87124 14.8763 5.66544 15.0425 5.49925L15.7794 4.76232C15.9456 4.59613 16.1514 4.51303 16.3968 4.51303C16.6423 4.51303 16.8481 4.59927 17.0142 4.77173C17.1804 4.9442 17.2651 5.15157 17.2682 5.39383C17.2714 5.63611 17.1867 5.84035 17.0142 6.00653L16.2773 6.73405C16.1111 6.90024 15.9053 6.98333 15.6599 6.98333C15.4145 6.98333 15.2087 6.90024 15.0425 6.73405ZM12.6352 6.11665C12.3898 6.11665 12.1813 6.03078 12.0095 5.85903C11.8378 5.68729 11.7519 5.47871 11.7519 5.2333V3.88333C11.7519 3.63792 11.8378 3.42934 12.0095 3.2576C12.1813 3.08587 12.3898 3 12.6352 3C12.8807 3 13.0892 3.08587 13.261 3.2576C13.4327 3.42934 13.5186 3.63792 13.5186 3.88333V5.2333C13.5186 5.47871 13.4327 5.68729 13.261 5.85903C13.0892 6.03078 12.8807 6.11665 12.6352 6.11665ZM6.31494 18.4334V13.5348C6.31494 13.4319 6.32206 13.3321 6.33631 13.2355C6.35056 13.1389 6.37508 13.0447 6.40986 12.9529L7.63161 9.48768C7.75817 9.1331 7.9711 8.84734 8.27037 8.63043C8.56965 8.41352 8.91084 8.30507 9.29394 8.30507H15.9765C16.3596 8.30507 16.7008 8.41352 17.0001 8.63043C17.2994 8.84734 17.5123 9.1331 17.6389 9.48768L18.8606 12.9529C18.8954 13.0447 18.9199 13.1389 18.9342 13.2355C18.9484 13.3321 18.9555 13.4319 18.9555 13.5348V18.4428C18.9555 18.7677 18.8418 19.0438 18.6144 19.2712C18.387 19.4986 18.1109 19.6124 17.786 19.6124C17.4642 19.6124 17.1873 19.4963 16.9552 19.2642C16.723 19.032 16.607 18.7551 16.607 18.4334V18.279H8.66351V18.4428C8.66351 18.7677 8.5498 19.0438 8.32237 19.2712C8.09496 19.4986 7.81881 19.6124 7.49392 19.6124C7.17219 19.6124 6.89526 19.4963 6.66312 19.2642C6.431 19.032 6.31494 18.7551 6.31494 18.4334ZM8.63379 11.9587H16.6367L15.9838 10.0718H9.28669L8.63379 11.9587ZM9.69176 15.9022C9.96954 15.9022 10.2056 15.805 10.4001 15.6105C10.5945 15.4161 10.6918 15.18 10.6918 14.9022C10.6918 14.6244 10.5945 14.3883 10.4001 14.1939C10.2056 13.9994 9.96954 13.9022 9.69176 13.9022C9.41398 13.9022 9.17787 13.9994 8.98342 14.1939C8.78898 14.3883 8.69176 14.6244 8.69176 14.9022C8.69176 15.18 8.78898 15.4161 8.98342 15.6105C9.17787 15.805 9.41398 15.9022 9.69176 15.9022ZM15.5787 15.9022C15.8565 15.9022 16.0926 15.805 16.2871 15.6105C16.4815 15.4161 16.5787 15.18 16.5787 14.9022C16.5787 14.6244 16.4815 14.3883 16.2871 14.1939C16.0926 13.9994 15.8565 13.9022 15.5787 13.9022C15.3009 13.9022 15.0648 13.9994 14.8704 14.1939C14.6759 14.3883 14.5787 14.6244 14.5787 14.9022C14.5787 15.18 14.6759 15.4161 14.8704 15.6105C15.0648 15.805 15.3009 15.9022 15.5787 15.9022ZM8.08162 16.5123H17.1889V13.292H8.08162V16.5123Z" fill="#383838"/>
</svg>
