<svg width="25" height="24" viewBox="0 0 25 24" fill="none" xmlns="http://www.w3.org/2000/svg">
<circle cx="12.5" cy="12" r="11.25" stroke="#383838" stroke-width="1.5"/>
<path d="M14.6485 6.89716H10.534C10.3238 6.89716 10.1475 6.82605 10.0053 6.68383C9.8631 6.54161 9.79198 6.36538 9.79198 6.15515C9.79198 5.9449 9.8631 5.76867 10.0053 5.62645C10.1475 5.48423 10.3238 5.41311 10.534 5.41311H14.6674L14.3819 5.13701C14.2485 5.00997 14.1846 4.85666 14.1902 4.67708C14.1957 4.49751 14.2596 4.34039 14.3819 4.2057C14.5152 4.07102 14.6735 4.00248 14.8569 4.00006C15.0402 3.99765 15.1985 4.06311 15.3319 4.19645L16.6637 5.52831C16.841 5.7079 16.9297 5.91741 16.9297 6.15685C16.9297 6.39629 16.841 6.60466 16.6637 6.78196L15.3485 8.09716C15.2152 8.2305 15.0596 8.29439 14.8819 8.28883C14.7041 8.28328 14.5485 8.21939 14.4152 8.09716C14.2819 7.96383 14.2124 7.8055 14.2069 7.62216C14.2013 7.43883 14.2652 7.2805 14.3985 7.14716L14.6485 6.89716ZM7.96663 16.0703H17.0739V12.8501H7.96663V16.0703ZM9.57677 15.4602C9.86566 15.4602 10.1045 15.3658 10.2934 15.1769C10.4823 14.988 10.5768 14.7491 10.5768 14.4602C10.5768 14.1713 10.4823 13.9324 10.2934 13.7435C10.1045 13.5547 9.86566 13.4602 9.57677 13.4602C9.28788 13.4602 9.04899 13.5547 8.8601 13.7435C8.67121 13.9324 8.57677 14.1713 8.57677 14.4602C8.57677 14.7491 8.67121 14.988 8.8601 15.1769C9.04899 15.3658 9.28788 15.4602 9.57677 15.4602ZM15.4637 15.4602C15.7526 15.4602 15.9915 15.3658 16.1804 15.1769C16.3693 14.988 16.4637 14.7491 16.4637 14.4602C16.4637 14.1713 16.3693 13.9324 16.1804 13.7435C15.9915 13.5547 15.7526 13.4602 15.4637 13.4602C15.1748 13.4602 14.936 13.5547 14.7471 13.7435C14.5582 13.9324 14.4637 14.1713 14.4637 14.4602C14.4637 14.7491 14.5582 14.988 14.7471 15.1769C14.936 15.3658 15.1748 15.4602 15.4637 15.4602ZM8.84198 9.545L9.10865 9.81166C9.24226 9.945 9.30622 10.1006 9.30052 10.2783C9.29483 10.4561 9.23087 10.6117 9.10865 10.745C8.97532 10.8783 8.81698 10.9478 8.63365 10.9533C8.45032 10.9589 8.29198 10.895 8.15865 10.7617L6.82677 9.42978C6.64947 9.2502 6.56082 9.04069 6.56082 8.80125C6.56082 8.56181 6.64947 8.35345 6.82677 8.17615L8.15865 6.85368C8.29198 6.72035 8.45032 6.65646 8.63365 6.66201C8.81698 6.66757 8.97532 6.73701 9.10865 6.87035C9.23087 7.00368 9.29476 7.15924 9.30032 7.33701C9.30587 7.51479 9.24198 7.67035 9.10865 7.80368L8.84198 8.07035H15.9558C16.3392 8.07035 16.6857 8.1816 16.9954 8.4041C17.3051 8.62659 17.519 8.91582 17.6369 9.27181L18.7456 12.5109C18.7741 12.6027 18.7971 12.6969 18.8145 12.7935C18.8319 12.8902 18.8406 12.9899 18.8406 13.0928V18.0008C18.8406 18.3257 18.7268 18.6018 18.4994 18.8292C18.272 19.0567 17.9959 19.1704 17.671 19.1704C17.3492 19.1704 17.0723 19.0543 16.8402 18.8222C16.6081 18.5901 16.492 18.3131 16.492 17.9914V17.837H8.54852V18.0008C8.54852 18.3257 8.43481 18.6018 8.20738 18.8292C7.97997 19.0567 7.70382 19.1704 7.37893 19.1704C7.0572 19.1704 6.78027 19.0567 6.54813 18.8292C6.31601 18.6018 6.19995 18.3257 6.19995 18.0008V13.2834C6.19995 12.7912 6.37133 12.3736 6.71408 12.0309C7.05684 11.6881 7.47436 11.5167 7.96663 11.5167H16.5217L15.8688 9.545H8.84198Z" fill="#383838"/>
</svg>
