<svg width="25" height="24" viewBox="0 0 25 24" fill="none" xmlns="http://www.w3.org/2000/svg">
<path d="M6.54238 19.4804V19.7261C6.54238 20.2134 6.37181 20.6276 6.03068 20.9688C5.68956 21.3099 5.27534 21.4804 4.78801 21.4804C4.30541 21.4804 3.89001 21.3063 3.54181 20.9582C3.19362 20.61 3.01953 20.1946 3.01953 19.712V12.3641C3.01953 12.2098 3.03021 12.0601 3.05158 11.9152C3.07296 11.7703 3.10974 11.629 3.16191 11.4913L4.99453 6.29346C5.18438 5.76157 5.50376 5.33295 5.95268 5.00758C6.4016 4.68222 6.91338 4.51953 7.48803 4.51953H17.5119C18.0866 4.51953 18.5984 4.68222 19.0473 5.00758C19.4962 5.33295 19.8156 5.76157 20.0054 6.29346L21.8381 11.4913C21.8902 11.629 21.927 11.7703 21.9484 11.9152C21.9697 12.0601 21.9804 12.2098 21.9804 12.3641V19.7261C21.9804 20.2134 21.8099 20.6276 21.4688 20.9688C21.1276 21.3099 20.7134 21.4804 20.2261 21.4804C19.7435 21.4804 19.3281 21.3063 18.9799 20.9582C18.6317 20.61 18.4576 20.1946 18.4576 19.712V19.4804H6.54238ZM6.49781 9.99998H18.5022L17.5228 7.16956H7.47716L6.49781 9.99998ZM8.08476 15.9152C8.50142 15.9152 8.85559 15.7694 9.14726 15.4777C9.43892 15.186 9.58476 14.8319 9.58476 14.4152C9.58476 13.9985 9.43892 13.6444 9.14726 13.3527C8.85559 13.061 8.50142 12.9152 8.08476 12.9152C7.66809 12.9152 7.31392 13.061 7.02226 13.3527C6.73059 13.6444 6.58476 13.9985 6.58476 14.4152C6.58476 14.8319 6.73059 15.186 7.02226 15.4777C7.31392 15.7694 7.66809 15.9152 8.08476 15.9152ZM16.9152 15.9152C17.3319 15.9152 17.686 15.7694 17.9777 15.4777C18.2694 15.186 18.4152 14.8319 18.4152 14.4152C18.4152 13.9985 18.2694 13.6444 17.9777 13.3527C17.686 13.061 17.3319 12.9152 16.9152 12.9152C16.4985 12.9152 16.1444 13.061 15.8527 13.3527C15.561 13.6444 15.4152 13.9985 15.4152 14.4152C15.4152 14.8319 15.561 15.186 15.8527 15.4777C16.1444 15.7694 16.4985 15.9152 16.9152 15.9152Z" fill="#383838"/>
</svg>
