<svg width="100%" height="100%" viewBox="0 0 25 24" fill="none" xmlns="http://www.w3.org/2000/svg">
<path d="M9.88698 16.3251C7.98553 16.3251 6.37266 15.663 5.04838 14.3387C3.72409 13.0144 3.06195 11.4015 3.06195 9.50007C3.06195 7.59862 3.72409 5.98576 5.04838 4.66147C6.37266 3.33719 7.98553 2.67505 9.88698 2.67505C11.7884 2.67505 13.4013 3.33719 14.7256 4.66147C16.0499 5.98576 16.712 7.59862 16.712 9.50007C16.712 10.2522 16.6048 10.9463 16.3903 11.5821C16.1758 12.218 15.8874 12.7765 15.5251 13.2577L21.012 18.7588C21.2613 19.0175 21.3859 19.3285 21.3859 19.6919C21.3859 20.0553 21.2566 20.3617 20.9979 20.6109C20.7486 20.8602 20.4399 20.9849 20.0718 20.9849C19.7036 20.9849 19.3949 20.8602 19.1457 20.6109L13.6729 15.1381C13.1823 15.5005 12.6143 15.7889 11.9691 16.0033C11.3238 16.2178 10.6297 16.3251 9.88698 16.3251ZM9.88698 13.675C11.0522 13.675 12.0393 13.2705 12.8484 12.4615C13.6574 11.6524 14.062 10.6653 14.062 9.50007C14.062 8.33486 13.6574 7.34772 12.8484 6.53867C12.0393 5.72962 11.0522 5.3251 9.88698 5.3251C8.72176 5.3251 7.73463 5.72962 6.92558 6.53867C6.11653 7.34772 5.712 8.33486 5.712 9.50007C5.712 10.6653 6.11653 11.6524 6.92558 12.4615C7.73463 13.2705 8.72176 13.675 9.88698 13.675Z" fill="currentColor" />
</svg>
