<svg width="100%" height="100%" viewBox="0 0 25 24" fill="none" xmlns="http://www.w3.org/2000/svg">
<path d="M14.488 22.4804H10.5119C10.1866 22.4804 9.8969 22.3688 9.64292 22.1457C9.38892 21.9225 9.24055 21.6482 9.1978 21.3228L8.91192 19.125C8.77062 19.0699 8.63476 19.0029 8.50432 18.9239C8.3739 18.8449 8.24529 18.7623 8.11847 18.6761L6.07065 19.5337C5.75253 19.6547 5.43912 19.6654 5.13042 19.5658C4.82172 19.4661 4.58186 19.2703 4.41085 18.9783L2.41955 15.513C2.24851 15.221 2.19507 14.9099 2.25922 14.5799C2.32334 14.2498 2.48837 13.9862 2.75432 13.7891L4.51627 12.4489C4.50902 12.3699 4.5054 12.2951 4.5054 12.2244V11.7755C4.5054 11.7049 4.50902 11.6301 4.51627 11.5511L2.75432 10.2109C2.48837 10.0043 2.32333 9.73604 2.2592 9.40596C2.19508 9.07589 2.24853 8.76955 2.41955 8.48693L4.41085 5.02171C4.57461 4.73184 4.81501 4.5389 5.13205 4.44288C5.44908 4.34687 5.76195 4.35936 6.07065 4.48038L8.14675 5.33801C8.27355 5.25177 8.39926 5.17152 8.5239 5.09726C8.64853 5.02297 8.77787 4.9583 8.91192 4.90323L9.1978 2.67716C9.24055 2.34236 9.38656 2.06572 9.63585 1.84726C9.88513 1.62877 10.1772 1.51953 10.5119 1.51953H14.488C14.8228 1.51953 15.1149 1.62877 15.3641 1.84726C15.6134 2.06572 15.7594 2.34236 15.8022 2.67716L16.0881 4.90323C16.2294 4.9583 16.3652 5.02297 16.4957 5.09726C16.6261 5.17152 16.7547 5.25177 16.8815 5.33801L18.9293 4.48038C19.238 4.35936 19.5491 4.34868 19.8625 4.44833C20.1759 4.54797 20.4181 4.73909 20.5891 5.02171L22.5946 8.48693C22.7656 8.77897 22.8191 9.09002 22.7549 9.42011C22.6908 9.75017 22.521 10.0138 22.2457 10.2109L20.4696 11.5511C20.4768 11.6301 20.4804 11.7049 20.4804 11.7755V12C20.4804 12.079 20.4781 12.1538 20.4734 12.2244C20.4687 12.2951 20.4591 12.3699 20.4446 12.4489L22.2207 13.7891C22.4866 13.9862 22.6517 14.2498 22.7158 14.5799C22.7799 14.9099 22.7265 15.221 22.5554 15.513L20.55 18.9674C20.379 19.2594 20.1373 19.4571 19.825 19.5603C19.5127 19.6636 19.1975 19.6547 18.8793 19.5337L16.8532 18.6761C16.7264 18.7623 16.6007 18.8449 16.4761 18.9239C16.3515 19.0029 16.2221 19.0699 16.0881 19.125L15.8022 21.3228C15.7594 21.6482 15.6134 21.9225 15.3641 22.1457C15.1149 22.3688 14.8228 22.4804 14.488 22.4804ZM12.5076 15.5C13.4743 15.5 14.2993 15.1583 14.9826 14.475C15.6659 13.7916 16.0076 12.9666 16.0076 12C16.0076 11.0333 15.6659 10.2083 14.9826 9.52498C14.2993 8.84165 13.4743 8.49998 12.5076 8.49998C11.5337 8.49998 10.7069 8.84165 10.0272 9.52498C9.34746 10.2083 9.0076 11.0333 9.0076 12C9.0076 12.9666 9.34746 13.7916 10.0272 14.475C10.7069 15.1583 11.5337 15.5 12.5076 15.5ZM12.5076 13.5C12.0909 13.5 11.7368 13.3541 11.4451 13.0625C11.1534 12.7708 11.0076 12.4166 11.0076 12C11.0076 11.5833 11.1534 11.2291 11.4451 10.9375C11.7368 10.6458 12.0909 10.5 12.5076 10.5C12.9243 10.5 13.2784 10.6458 13.5701 10.9375C13.8618 11.2291 14.0076 11.5833 14.0076 12C14.0076 12.4166 13.8618 12.7708 13.5701 13.0625C13.2784 13.3541 12.9243 13.5 12.5076 13.5ZM11.6554 19.8304H13.3054L13.6695 17.2087C14.1956 17.0753 14.6913 16.8772 15.1565 16.6141C15.6217 16.3511 16.0377 16.0174 16.4043 15.613L18.8652 16.638L19.6706 15.1924L17.563 13.5956C17.6464 13.3435 17.7094 13.0835 17.7522 12.8157C17.7949 12.548 17.8163 12.2761 17.8163 12C17.8163 11.7239 17.7949 11.452 17.7522 11.1842C17.7094 10.9165 17.6464 10.6565 17.563 10.4043L19.6989 8.80758L18.8652 7.36196L16.4185 8.41196C16.0518 8.00036 15.6359 7.65832 15.1706 7.38586C14.7054 7.11339 14.2051 6.9152 13.6695 6.79128L13.3445 4.16956H11.6663L11.3446 6.77716C10.7996 6.90107 10.2922 7.09927 9.82227 7.37173C9.35235 7.6442 8.92935 7.98261 8.55325 8.38696L6.12065 7.36196L5.3011 8.80758L7.39457 10.3652C7.31124 10.634 7.2482 10.9005 7.20545 11.1647C7.16268 11.4288 7.1413 11.7072 7.1413 12C7.1413 12.2761 7.16268 12.5485 7.20545 12.8174C7.2482 13.0862 7.31124 13.3551 7.39457 13.6239L5.3011 15.1924L6.12065 16.638L8.55325 15.6022C8.92935 16.0043 9.35471 16.3416 9.82935 16.6141C10.304 16.8866 10.8091 17.0895 11.3446 17.2228L11.6554 19.8304Z" fill="currentColor" />
</svg>
