<svg width="25" height="24" viewBox="0 0 25 24" fill="none" xmlns="http://www.w3.org/2000/svg">
<path d="M18.4991 22.4382C17.5439 22.4382 16.7322 22.1039 16.0641 21.4354C15.396 20.7669 15.0619 19.9551 15.0619 19.0001C15.0619 18.8744 15.0702 18.7443 15.0869 18.6096C15.1036 18.475 15.1286 18.3483 15.1619 18.2294L8.80432 14.5251C8.49273 14.8128 8.13911 15.0369 7.74344 15.1974C7.34779 15.3579 6.9333 15.4382 6.49996 15.4382C5.54495 15.4382 4.73318 15.1038 4.06466 14.4351C3.39615 13.7665 3.06189 12.9545 3.06189 11.9993C3.06189 11.044 3.39615 10.2323 4.06466 9.56421C4.73318 8.89608 5.54495 8.56201 6.49996 8.56201C6.9333 8.56201 7.34779 8.64227 7.74344 8.80279C8.13911 8.96329 8.49273 9.18738 8.80432 9.47506L15.1619 5.77074C15.1286 5.6519 15.1036 5.52517 15.0869 5.39054C15.0702 5.2559 15.0619 5.12575 15.0619 5.00009C15.0619 4.04507 15.3962 3.2333 16.0649 2.56479C16.7336 1.89627 17.5455 1.56201 18.5008 1.56201C19.456 1.56201 20.2677 1.89635 20.9358 2.56504C21.604 3.2337 21.938 4.04566 21.938 5.00091C21.938 5.95616 21.6038 6.76785 20.9353 7.43596C20.2667 8.1041 19.455 8.43816 18.5 8.43816C18.0666 8.43816 17.6521 8.36261 17.2565 8.21151C16.8608 8.06043 16.5072 7.84104 16.1956 7.55336L9.83804 11.2294C9.87137 11.3483 9.89637 11.475 9.91304 11.6096C9.92971 11.7443 9.93804 11.8744 9.93804 12.0001C9.93804 12.1258 9.92971 12.2559 9.91304 12.3905C9.89637 12.5252 9.87137 12.6519 9.83804 12.7707L16.1956 16.4468C16.5072 16.1591 16.8608 15.9397 17.2565 15.7887C17.6521 15.6376 18.0666 15.562 18.5 15.562C19.455 15.562 20.2667 15.8964 20.9353 16.565C21.6038 17.2337 21.938 18.0457 21.938 19.0009C21.938 19.9562 21.6037 20.7678 20.935 21.436C20.2663 22.1041 19.4544 22.4382 18.4991 22.4382ZM18.5 6.00009C18.7833 6.00009 19.0208 5.90425 19.2125 5.71259C19.4041 5.52092 19.5 5.28342 19.5 5.00009C19.5 4.71675 19.4041 4.47925 19.2125 4.28759C19.0208 4.09592 18.7833 4.00009 18.5 4.00009C18.2166 4.00009 17.9791 4.09592 17.7875 4.28759C17.5958 4.47925 17.5 4.71675 17.5 5.00009C17.5 5.28342 17.5958 5.52092 17.7875 5.71259C17.9791 5.90425 18.2166 6.00009 18.5 6.00009ZM6.49996 13.0001C6.7833 13.0001 7.0208 12.9043 7.21246 12.7126C7.40413 12.5209 7.49997 12.2834 7.49997 12.0001C7.49997 11.7168 7.40413 11.4793 7.21246 11.2876C7.0208 11.0959 6.7833 11.0001 6.49996 11.0001C6.21663 11.0001 5.97913 11.0959 5.78746 11.2876C5.5958 11.4793 5.49996 11.7168 5.49996 12.0001C5.49996 12.2834 5.5958 12.5209 5.78746 12.7126C5.97913 12.9043 6.21663 13.0001 6.49996 13.0001ZM18.5 20.0001C18.7833 20.0001 19.0208 19.9043 19.2125 19.7126C19.4041 19.5209 19.5 19.2834 19.5 19.0001C19.5 18.7168 19.4041 18.4793 19.2125 18.2876C19.0208 18.0959 18.7833 18.0001 18.5 18.0001C18.2166 18.0001 17.9791 18.0959 17.7875 18.2876C17.5958 18.4793 17.5 18.7168 17.5 19.0001C17.5 19.2834 17.5958 19.5209 17.7875 19.7126C17.9791 19.9043 18.2166 20.0001 18.5 20.0001Z" fill="#383838"/>
</svg>
