<svg width="100%" height="100%" viewBox="0 0 25 24" fill="none" xmlns="http://www.w3.org/2000/svg">
<path d="M2.28799 19.6501C1.94814 19.6501 1.65883 19.5307 1.42006 19.2919C1.18128 19.0532 1.06189 18.7639 1.06189 18.424V4.88702C1.06189 4.54364 1.18128 4.2558 1.42006 4.0235C1.65883 3.7912 1.94814 3.67505 2.28799 3.67505C2.62786 3.67505 2.91481 3.7912 3.14886 4.0235C3.38293 4.2558 3.49996 4.54364 3.49996 4.88702V14.0001H11.7119V8.3251C11.7119 7.58668 11.969 6.96041 12.4831 6.44627C12.9973 5.93212 13.6235 5.67505 14.362 5.67505H19.5C20.7204 5.67505 21.7652 6.10961 22.6343 6.97875C23.5035 7.84786 23.938 8.89266 23.938 10.1131V18.4381C23.938 18.7815 23.8219 19.0694 23.5896 19.3017C23.3573 19.534 23.0694 19.6501 22.7261 19.6501C22.3862 19.6501 22.0969 19.5307 21.8581 19.2919C21.6193 19.0532 21.5 18.7639 21.5 18.424V16.6501H3.49996V18.4381C3.49996 18.7815 3.38381 19.0694 3.15151 19.3017C2.91923 19.534 2.63137 19.6501 2.28799 19.6501ZM7.61634 13.1131C6.71927 13.1131 5.95677 12.7991 5.32884 12.1712C4.70089 11.5433 4.38691 10.7808 4.38691 9.8837C4.38691 8.98663 4.70089 8.22759 5.32884 7.60657C5.95677 6.98556 6.71927 6.67505 7.61634 6.67505C8.51341 6.67505 9.27245 6.98556 9.89347 7.60657C10.5145 8.22759 10.825 8.98663 10.825 9.8837C10.825 10.7808 10.5145 11.5433 9.89347 12.1712C9.27245 12.7991 8.51341 13.1131 7.61634 13.1131Z" fill="currentColor" />
</svg>
