<svg width="100%" height="100%" viewBox="0 0 25 24" fill="none" xmlns="http://www.w3.org/2000/svg">
<circle cx="12.5" cy="12" r="11.25" stroke="currentColor" stroke-width="1.5"/>
<path d="M12.692 18.6406C12.4466 18.6406 12.238 18.5547 12.0663 18.383C11.8945 18.2113 11.8087 18.0027 11.8087 17.7573C11.8087 17.5118 11.8945 17.3033 12.0663 17.1315C12.238 16.9598 12.4466 16.8739 12.692 16.8739H16.4376V7.76668H12.692C12.4466 7.76668 12.238 7.68081 12.0663 7.50907C11.8945 7.33733 11.8087 7.12876 11.8087 6.88333C11.8087 6.63792 11.8945 6.42934 12.0663 6.2576C12.238 6.08587 12.4466 6 12.692 6H16.4376C16.9299 6 17.3474 6.17138 17.6902 6.51413C18.0329 6.85689 18.2043 7.27441 18.2043 7.76668V16.8739C18.2043 17.3662 18.0329 17.7837 17.6902 18.1265C17.3474 18.4692 16.9299 18.6406 16.4376 18.6406H12.692ZM10.5992 13.2037H6.44705C6.20164 13.2037 5.99307 13.1178 5.82132 12.946C5.64959 12.7743 5.56372 12.5657 5.56372 12.3203C5.56372 12.0749 5.64959 11.8663 5.82132 11.6946C5.99307 11.5228 6.20164 11.437 6.44705 11.437H10.5992L9.56587 10.4036C9.39969 10.2374 9.3166 10.0341 9.3166 9.79348C9.3166 9.55289 9.39969 9.34709 9.56587 9.17608C9.73206 8.99878 9.93629 8.90893 10.1786 8.90652C10.4208 8.90409 10.6306 8.99153 10.8079 9.16883L13.342 11.7029C13.513 11.8802 13.5985 12.086 13.5985 12.3203C13.5985 12.5546 13.513 12.7604 13.342 12.9377L10.8079 15.4718C10.6369 15.6491 10.4299 15.7365 10.1869 15.7341C9.9439 15.7317 9.73689 15.6418 9.56587 15.4645C9.39969 15.2935 9.31781 15.0865 9.32022 14.8435C9.32263 14.6005 9.40693 14.3959 9.57312 14.2297L10.5992 13.2037Z" fill="currentColor" />
</svg>
