<svg width="100%" height="100%" viewBox="0 0 25 24" fill="none" xmlns="http://www.w3.org/2000/svg">
<circle cx="12.5" cy="12" r="11.25" stroke="currentColor" stroke-width="1.5"/>
<path d="M8.70589 18.6406C8.21361 18.6406 7.7961 18.4692 7.45334 18.1265C7.11059 17.7837 6.93921 17.3662 6.93921 16.8739V7.76668C6.93921 7.27441 7.11059 6.85689 7.45334 6.51413C7.7961 6.17138 8.21361 6 8.70589 6H12.4515C12.6969 6 12.9055 6.08587 13.0773 6.2576C13.249 6.42934 13.3349 6.63792 13.3349 6.88333C13.3349 7.12876 13.249 7.33733 13.0773 7.50907C12.9055 7.68081 12.6969 7.76668 12.4515 7.76668H8.70589V16.8739H12.4515C12.6969 16.8739 12.9055 16.9598 13.0773 17.1315C13.249 17.3033 13.3349 17.5118 13.3349 17.7573C13.3349 18.0027 13.249 18.2113 13.0773 18.383C12.9055 18.5547 12.6969 18.6406 12.4515 18.6406H8.70589ZM16.2196 13.2037H12.0675C11.8221 13.2037 11.6135 13.1178 11.4418 12.946C11.27 12.7743 11.1841 12.5657 11.1841 12.3203C11.1841 12.0749 11.27 11.8663 11.4418 11.6946C11.6135 11.5228 11.8221 11.437 12.0675 11.437H16.2196L15.1863 10.4036C15.0201 10.2374 14.937 10.0341 14.937 9.79348C14.937 9.55289 15.0201 9.34709 15.1863 9.17608C15.3525 8.99878 15.5567 8.90893 15.799 8.90652C16.0413 8.90409 16.2511 8.99153 16.4283 9.16883L18.9624 11.7029C19.1334 11.8802 19.2189 12.086 19.2189 12.3203C19.2189 12.5546 19.1334 12.7604 18.9624 12.9377L16.4283 15.4718C16.2573 15.6491 16.0503 15.7365 15.8073 15.7341C15.5643 15.7317 15.3573 15.6418 15.1863 15.4645C15.0201 15.2935 14.9382 15.0865 14.9407 14.8435C14.9431 14.6005 15.0274 14.3959 15.1936 14.2297L16.2196 13.2037Z" fill="currentColor" />
</svg>
