<svg width="25" height="24" viewBox="0 0 25 24" fill="none" xmlns="http://www.w3.org/2000/svg">
<path d="M13.712 11.4869V8.28261C13.712 7.93921 13.5958 7.65136 13.3635 7.41908C13.1312 7.18678 12.8434 7.07063 12.5 7.07063C12.1566 7.07063 11.8688 7.18678 11.6365 7.41908C11.4042 7.65136 11.288 7.93921 11.288 8.28261V11.9326C11.288 12.113 11.3201 12.2826 11.3842 12.4412C11.4483 12.5999 11.5445 12.7426 11.6728 12.8696L14.7467 15.9435C14.9771 16.1739 15.2576 16.2891 15.588 16.2891C15.9185 16.2891 16.2036 16.1739 16.4435 15.9435C16.6833 15.713 16.8032 15.4279 16.8032 15.088C16.8032 14.7482 16.6833 14.4583 16.4435 14.2184L13.712 11.4869ZM12.5 22.4804C11.0413 22.4804 9.6754 22.2058 8.40233 21.6564C7.12925 21.1071 6.02185 20.3616 5.08013 19.4198C4.1384 18.4781 3.39286 17.3707 2.84353 16.0976C2.2942 14.8246 2.01953 13.4587 2.01953 12C2.01953 10.5413 2.2942 9.1754 2.84353 7.90233C3.39286 6.62925 4.1384 5.52185 5.08013 4.58013C6.02185 3.6384 7.12925 2.89287 8.40233 2.34353C9.6754 1.7942 11.0413 1.51953 12.5 1.51953C13.9587 1.51953 15.3246 1.7942 16.5976 2.34353C17.8707 2.89287 18.9781 3.6384 19.9198 4.58013C20.8616 5.52185 21.6071 6.62925 22.1564 7.90233C22.7058 9.1754 22.9804 10.5413 22.9804 12C22.9804 13.4587 22.7058 14.8246 22.1564 16.0976C21.6071 17.3707 20.8616 18.4781 19.9198 19.4198C18.9781 20.3616 17.8707 21.1071 16.5976 21.6564C15.3246 22.2058 13.9587 22.4804 12.5 22.4804ZM12.4999 19.8304C14.6695 19.8304 16.517 19.0701 18.0424 17.5494C19.5677 16.0288 20.3304 14.179 20.3304 12C20.3304 9.821 19.5678 7.97118 18.0425 6.45053C16.5172 4.92988 14.6698 4.16956 12.5001 4.16956C10.3305 4.16956 8.48296 4.92988 6.95761 6.45053C5.43224 7.97118 4.66956 9.821 4.66956 12C4.66956 14.179 5.4322 16.0288 6.95748 17.5494C8.48275 19.0701 10.3302 19.8304 12.4999 19.8304Z" fill="currentColor"/>
</svg>
