<svg width="100%" height="100%" viewBox="0 0 25 24" fill="none" xmlns="http://www.w3.org/2000/svg">
<path d="M2.38691 20.7207C2.0188 20.7207 1.70593 20.5919 1.44831 20.3343C1.1907 20.0767 1.06189 19.7638 1.06189 19.3957V17.412C1.06189 16.7605 1.23128 16.1596 1.57006 15.6092C1.90883 15.0589 2.36227 14.6399 2.93039 14.3522C3.99199 13.8261 5.07496 13.4291 6.17931 13.1614C7.28366 12.8936 8.40468 12.7598 9.54237 12.7598C10.6989 12.7598 11.8293 12.8913 12.9337 13.1543C14.038 13.4174 15.1116 13.8119 16.1543 14.338C16.7224 14.6257 17.1759 15.0424 17.5147 15.588C17.8534 16.1337 18.0228 16.7417 18.0228 17.412V19.3957C18.0228 19.7638 17.894 20.0767 17.6364 20.3343C17.3788 20.5919 17.0659 20.7207 16.6978 20.7207H2.38691ZM19.6043 20.7207C19.792 20.5663 19.944 20.3734 20.0603 20.1419C20.1766 19.9104 20.2348 19.6533 20.2348 19.3707V17.2543C20.2348 16.4833 20.0353 15.7368 19.6364 15.0147C19.2375 14.2926 18.6489 13.6192 17.8707 12.9945C18.617 13.1134 19.3275 13.2866 20.0022 13.5141C20.6768 13.7417 21.3203 14.0163 21.9326 14.338C22.5703 14.6714 23.0639 15.0964 23.4136 15.613C23.7632 16.1297 23.938 16.6909 23.938 17.2967V19.3957C23.938 19.7638 23.8092 20.0767 23.5516 20.3343C23.294 20.5919 22.9811 20.7207 22.613 20.7207H19.6043ZM9.54237 11.7598C8.367 11.7598 7.36645 11.3469 6.54071 10.5212C5.715 9.69546 5.30214 8.69491 5.30214 7.51955C5.30214 6.34418 5.715 5.34363 6.54071 4.5179C7.36645 3.69216 8.367 3.2793 9.54237 3.2793C10.7177 3.2793 11.7183 3.69216 12.544 4.5179C13.3697 5.34363 13.7826 6.34418 13.7826 7.51955C13.7826 8.69491 13.3697 9.69546 12.544 10.5212C11.7183 11.3469 10.7177 11.7598 9.54237 11.7598ZM20.2348 7.51955C20.2348 8.68548 19.8196 9.68367 18.9891 10.5141C18.1587 11.3446 17.1605 11.7598 15.9946 11.7598C15.8018 11.7598 15.5685 11.7366 15.2946 11.6902C15.0206 11.6438 14.7732 11.5862 14.5522 11.5174C15.021 10.9652 15.3786 10.3453 15.625 9.6576C15.8714 8.96991 15.9946 8.25723 15.9946 7.51955C15.9946 6.78186 15.8714 6.06918 15.625 5.3815C15.3786 4.69381 15.021 4.07388 14.5522 3.5217C14.7949 3.42895 15.033 3.36536 15.2663 3.33095C15.4996 3.29651 15.7424 3.2793 15.9946 3.2793C17.1605 3.2793 18.1587 3.69452 18.9891 4.52497C19.8196 5.35541 20.2348 6.3536 20.2348 7.51955Z" fill="currentColor" />
</svg>
