<svg width="100%" height="100%" viewBox="0 0 25 24" fill="none" xmlns="http://www.w3.org/2000/svg">
<path d="M2.38698 20.7207C2.01886 20.7207 1.70599 20.5919 1.44838 20.3343C1.19076 20.0767 1.06195 19.7638 1.06195 19.3957V17.412C1.06195 16.7577 1.23226 16.1563 1.57288 15.6078C1.91349 15.0594 2.36602 14.6408 2.93045 14.3522C3.99205 13.8261 5.07483 13.4291 6.17878 13.1614C7.28274 12.8936 8.40396 12.7598 9.54243 12.7598C10.6989 12.7598 11.8294 12.8913 12.9337 13.1543C14.0381 13.4174 15.1116 13.8119 16.1544 14.338C16.7188 14.6253 17.1714 15.0419 17.512 15.5877C17.8526 16.1336 18.0229 16.7417 18.0229 17.412V19.3957C18.0229 19.7638 17.8941 20.0767 17.6364 20.3343C17.3788 20.5919 17.066 20.7207 16.6979 20.7207H2.38698ZM19.6044 20.7207C19.7921 20.5663 19.9441 20.374 20.0604 20.1437C20.1767 19.9135 20.2349 19.6558 20.2349 19.3707V17.2543C20.2349 16.4833 20.0354 15.7368 19.6365 15.0147C19.2376 14.2926 18.649 13.6192 17.8707 12.9945C18.6171 13.1134 19.3276 13.2866 20.0022 13.5141C20.6769 13.7417 21.3203 14.0163 21.9327 14.338C22.5703 14.6714 23.064 15.0955 23.4136 15.6103C23.7633 16.1252 23.9381 16.6873 23.9381 17.2967V19.3957C23.9381 19.7638 23.8093 20.0767 23.5517 20.3343C23.2941 20.5919 22.9812 20.7207 22.6131 20.7207H19.6044ZM9.54243 11.7598C8.36706 11.7598 7.36651 11.3469 6.54078 10.5212C5.71506 9.69546 5.3022 8.69491 5.3022 7.51955C5.3022 6.34418 5.71506 5.34363 6.54078 4.5179C7.36651 3.69216 8.36706 3.2793 9.54243 3.2793C10.7178 3.2793 11.7183 3.69216 12.5441 4.5179C13.3698 5.34363 13.7827 6.34418 13.7827 7.51955C13.7827 8.69491 13.3698 9.69546 12.5441 10.5212C11.7183 11.3469 10.7178 11.7598 9.54243 11.7598ZM20.2349 7.51942C20.2349 8.68544 19.8199 9.68367 18.9899 10.5141C18.16 11.3446 17.1623 11.7598 15.9969 11.7598C15.8026 11.7598 15.5685 11.7366 15.2946 11.6902C15.0207 11.6438 14.7732 11.5862 14.5522 11.5174C15.0211 10.9652 15.3787 10.346 15.6251 9.65967C15.8714 8.97339 15.9946 8.2607 15.9946 7.52162C15.9946 6.78256 15.8714 6.06918 15.6251 5.3815C15.3787 4.69381 15.0211 4.07388 14.5522 3.5217C14.795 3.42895 15.033 3.36536 15.2664 3.33095C15.4997 3.29651 15.7402 3.2793 15.988 3.2793C17.1559 3.2793 18.1556 3.69448 18.9873 4.52485C19.819 5.3552 20.2349 6.35339 20.2349 7.51942ZM3.712 18.0706H15.3729V17.4826C15.3729 17.3084 15.327 17.1501 15.2354 17.0075C15.1437 16.865 15.0229 16.7542 14.8729 16.675C14.0294 16.2627 13.1634 15.9488 12.275 15.7332C11.3866 15.5176 10.4758 15.4098 9.54243 15.4098C8.62793 15.4098 7.71705 15.5176 6.8098 15.7332C5.90257 15.9488 5.03663 16.2627 4.212 16.675C4.062 16.7542 3.94117 16.865 3.8495 17.0075C3.75783 17.1501 3.712 17.3084 3.712 17.4826V18.0706ZM9.54018 9.3217C10.0351 9.3217 10.4596 9.14546 10.8136 8.79297C11.1676 8.44049 11.3446 8.01676 11.3446 7.5218C11.3446 7.02681 11.1683 6.60233 10.8159 6.24835C10.4634 5.89436 10.0396 5.71737 9.54468 5.71737C9.04969 5.71737 8.62521 5.89361 8.27123 6.2461C7.91724 6.59858 7.74025 7.02231 7.74025 7.5173C7.74025 8.01226 7.91649 8.43674 8.26898 8.79072C8.62146 9.14471 9.04519 9.3217 9.54018 9.3217Z" fill="currentColor" />
</svg>
