<svg width="25" height="24" viewBox="0 0 25 24" fill="none" xmlns="http://www.w3.org/2000/svg">
<path d="M2.38698 20.7207C2.01886 20.7207 1.70599 20.5919 1.44838 20.3343C1.19076 20.0767 1.06195 19.7638 1.06195 19.3957V17.412C1.06195 16.7605 1.23134 16.1596 1.57013 15.6092C1.90889 15.0589 2.36233 14.6399 2.93045 14.3522C3.99205 13.8261 5.07503 13.4291 6.17938 13.1614C7.28373 12.8936 8.40474 12.7598 9.54243 12.7598C10.6989 12.7598 11.8294 12.8913 12.9337 13.1543C14.0381 13.4174 15.1116 13.8119 16.1544 14.338C16.7225 14.6257 17.176 15.0424 17.5147 15.588C17.8535 16.1337 18.0229 16.7417 18.0229 17.412V19.3957C18.0229 19.7638 17.8941 20.0767 17.6364 20.3343C17.3788 20.5919 17.066 20.7207 16.6979 20.7207H2.38698ZM19.6044 20.7207C19.7921 20.5663 19.9441 20.3734 20.0604 20.1419C20.1767 19.9104 20.2349 19.6533 20.2349 19.3707V17.2543C20.2349 16.4833 20.0354 15.7368 19.6365 15.0147C19.2376 14.2926 18.649 13.6192 17.8707 12.9945C18.6171 13.1134 19.3276 13.2866 20.0022 13.5141C20.6769 13.7417 21.3203 14.0163 21.9327 14.338C22.5703 14.6714 23.064 15.0964 23.4136 15.613C23.7633 16.1297 23.9381 16.6909 23.9381 17.2967V19.3957C23.9381 19.7638 23.8093 20.0767 23.5517 20.3343C23.2941 20.5919 22.9812 20.7207 22.6131 20.7207H19.6044ZM9.54243 11.7598C8.36706 11.7598 7.36651 11.3469 6.54078 10.5212C5.71506 9.69546 5.3022 8.69491 5.3022 7.51955C5.3022 6.34418 5.71506 5.34363 6.54078 4.5179C7.36651 3.69216 8.36706 3.2793 9.54243 3.2793C10.7178 3.2793 11.7183 3.69216 12.5441 4.5179C13.3698 5.34363 13.7827 6.34418 13.7827 7.51955C13.7827 8.69491 13.3698 9.69546 12.5441 10.5212C11.7183 11.3469 10.7178 11.7598 9.54243 11.7598ZM20.2349 7.51955C20.2349 8.68548 19.8196 9.68367 18.9892 10.5141C18.1588 11.3446 17.1606 11.7598 15.9946 11.7598C15.8019 11.7598 15.5685 11.7366 15.2946 11.6902C15.0207 11.6438 14.7732 11.5862 14.5522 11.5174C15.0211 10.9652 15.3787 10.3453 15.6251 9.6576C15.8714 8.96991 15.9946 8.25723 15.9946 7.51955C15.9946 6.78186 15.8714 6.06918 15.6251 5.3815C15.3787 4.69381 15.0211 4.07388 14.5522 3.5217C14.795 3.42895 15.033 3.36536 15.2664 3.33095C15.4997 3.29651 15.7424 3.2793 15.9946 3.2793C17.1606 3.2793 18.1588 3.69452 18.9892 4.52497C19.8196 5.35541 20.2349 6.3536 20.2349 7.51955Z" fill="#383838"/>
</svg>
