<svg width="100%" height="100%" viewBox="0 0 25 24" fill="none" xmlns="http://www.w3.org/2000/svg">
<g clip-path="url(#clip0_108_236)">
<path d="M10.1597 14.3262C9.73003 13.8965 9.33202 13.4488 8.9657 12.9832C8.5994 12.5177 8.25648 12.0306 7.93693 11.5219C7.90069 11.6233 7.87714 11.7266 7.86628 11.8316C7.85541 11.9367 7.84998 12.0399 7.84998 12.1414C7.88766 13.374 8.33802 14.4242 9.20105 15.2919C10.0641 16.1596 11.1119 16.6124 12.3445 16.65C12.446 16.65 12.5492 16.6428 12.6543 16.6283C12.7593 16.6138 12.8626 16.5921 12.964 16.5631C12.4553 16.2435 11.9682 15.8983 11.5027 15.5272C11.0371 15.1562 10.5894 14.7559 10.1597 14.3262ZM12.0511 12.474C12.9387 13.3617 13.9335 14.112 15.0353 14.7251C16.1371 15.3381 17.321 15.7924 18.5869 16.0881C17.9014 17.0982 17.0259 17.8903 15.9603 18.4642C14.8947 19.0381 13.7496 19.3251 12.525 19.3251C10.4902 19.3251 8.76064 18.613 7.33635 17.1887C5.91207 15.7644 5.19993 14.0349 5.19993 12.0001C5.19993 10.7754 5.48689 9.63031 6.0608 8.56472C6.63474 7.49914 7.42678 6.6236 8.43693 5.9381C8.73258 7.20403 9.18692 8.38791 9.79995 9.48972C10.413 10.5915 11.1634 11.5863 12.0511 12.474ZM19.4989 14.2457C19.0525 14.1624 18.615 14.0542 18.1864 13.9212C17.7577 13.7883 17.338 13.6269 16.9271 13.437C17.0133 13.2029 17.0762 12.9671 17.1157 12.7294C17.1552 12.4917 17.1749 12.2486 17.1749 12.0001C17.1749 10.7015 16.7204 9.59772 15.8114 8.68867C14.9023 7.77962 13.7985 7.3251 12.5 7.3251C12.2514 7.3251 12.0083 7.34249 11.7706 7.37727C11.5329 7.41204 11.2971 7.47254 11.063 7.55877C10.8732 7.14791 10.7159 6.73468 10.5913 6.3191C10.4666 5.90351 10.3626 5.47253 10.2793 5.02615C10.6416 4.9044 11.0099 4.81545 11.3842 4.7593C11.7585 4.70313 12.1387 4.67505 12.525 4.67505C14.5597 4.67505 16.2893 5.38719 17.7136 6.81147C19.1378 8.23576 19.85 9.96529 19.85 12.0001C19.85 12.3863 19.8219 12.7666 19.7657 13.1408C19.7096 13.5151 19.6206 13.8834 19.4989 14.2457ZM11.1749 2.67505V-0.324951H13.825V2.67505H11.1749ZM11.1749 24.3251V21.3251H13.825V24.3251H11.1749ZM20.0272 6.3642L18.15 4.47287L20.275 2.35875L22.1522 4.22507L20.0272 6.3642ZM4.72495 21.6414L2.84775 19.7751L4.97275 17.6359L6.84995 19.5273L4.72495 21.6414ZM21.825 13.3251V10.675H24.825V13.3251H21.825ZM0.174927 13.3251V10.675H3.17493V13.3251H0.174927ZM20.275 21.6523L18.15 19.5414L20.0413 17.6642L22.1413 19.7751L20.275 21.6523ZM4.97275 6.35007L2.85863 4.22507L4.72495 2.34787L6.86408 4.47287L4.97275 6.35007Z" fill="currentColor"/>
</g>
<defs>
<clipPath id="clip0_108_236">
<rect width="100%" height="100%" fill="white" transform="translate(0.5)"/>
</clipPath>
</defs>
</svg>
