<svg width="100%" height="100%" viewBox="0 0 25 24" fill="none" xmlns="http://www.w3.org/2000/svg">
<g clip-path="url(#clip0_108_237)">
<path d="M12.0511 12.474C12.9388 13.3617 13.9335 14.112 15.0354 14.7251C16.1372 15.3381 17.3211 15.7924 18.587 16.0881C17.9015 17.0982 17.0259 17.8903 15.9604 18.4642C14.8948 19.0381 13.7497 19.3251 12.525 19.3251C10.4902 19.3251 8.7607 18.613 7.33641 17.1887C5.91213 15.7644 5.19999 14.0349 5.19999 12.0001C5.19999 10.7754 5.48695 9.63031 6.06086 8.56472C6.6348 7.49914 7.42684 6.6236 8.43699 5.9381C8.73264 7.20403 9.18698 8.38791 9.80001 9.48972C10.4131 10.5915 11.1634 11.5863 12.0511 12.474ZM19.4989 14.2457C19.0526 14.1624 18.6151 14.0542 18.1864 13.9212C17.7578 13.7883 17.3381 13.6269 16.9272 13.437C17.0134 13.2029 17.0763 12.9671 17.1158 12.7294C17.1552 12.4917 17.175 12.2486 17.175 12.0001C17.175 10.7015 16.7205 9.59772 15.8114 8.68867C14.9024 7.77962 13.7986 7.3251 12.5 7.3251C12.2515 7.3251 12.0084 7.34249 11.7707 7.37727C11.533 7.41204 11.2971 7.47254 11.0631 7.55877C10.8732 7.14791 10.716 6.73468 10.5913 6.3191C10.4667 5.90351 10.3627 5.47253 10.2794 5.02615C10.6417 4.9044 11.01 4.81545 11.3843 4.7593C11.7585 4.70313 12.1388 4.67505 12.525 4.67505C14.5598 4.67505 16.2893 5.38719 17.7136 6.81147C19.1379 8.23576 19.85 9.96529 19.85 12.0001C19.85 12.3863 19.822 12.7666 19.7658 13.1408C19.7096 13.5151 19.6207 13.8834 19.4989 14.2457ZM11.175 2.67505V-0.324951H13.825V2.67505H11.175ZM11.175 24.3251V21.3251H13.825V24.3251H11.175ZM20.0272 6.3642L18.15 4.47287L20.275 2.35875L22.1522 4.22507L20.0272 6.3642ZM4.72501 21.6414L2.84781 19.7751L4.97281 17.6359L6.85001 19.5273L4.72501 21.6414ZM21.825 13.3251V10.675H24.825V13.3251H21.825ZM0.174988 13.3251V10.675H3.17499V13.3251H0.174988ZM20.275 21.6523L18.15 19.5414L20.0413 17.6642L22.1413 19.7751L20.275 21.6523ZM4.97281 6.35007L2.85869 4.22507L4.72501 2.34787L6.86414 4.47287L4.97281 6.35007Z" fill="currentColor"/>
</g>
<defs>
<clipPath id="clip0_108_237">
<rect width="100%" height="100%" fill="white" transform="translate(0.5)"/>
</clipPath>
</defs>
</svg>
