<svg width="100%" height="100%" viewBox="0 0 25 24" fill="none" xmlns="http://www.w3.org/2000/svg">
<path d="M12.5 11.7598C11.2587 11.7598 10.2016 11.3234 9.32876 10.4505C8.45594 9.57771 8.01953 8.52063 8.01953 7.27931C8.01953 6.03801 8.45594 4.98331 9.32876 4.11519C10.2016 3.24706 11.2587 2.81299 12.5 2.81299C13.7413 2.81299 14.7984 3.24706 15.6712 4.11519C16.544 4.98331 16.9804 6.03801 16.9804 7.27931C16.9804 8.52063 16.544 9.57771 15.6712 10.4505C14.7984 11.3234 13.7413 11.7598 12.5 11.7598ZM6.66956 20.7207C5.93114 20.7207 5.30486 20.4636 4.79073 19.9495C4.2766 19.4354 4.01953 18.8091 4.01953 18.0707V17.412C4.01953 16.7605 4.18891 16.1596 4.52768 15.6093C4.86645 15.0589 5.31989 14.6399 5.88801 14.3522C6.94961 13.8261 8.03258 13.4292 9.13693 13.1614C10.2413 12.8937 11.3623 12.7598 12.5 12.7598C13.6565 12.7598 14.7869 12.8913 15.8913 13.1543C16.9956 13.4174 18.0692 13.812 19.112 14.338C19.6801 14.6257 20.1335 15.0424 20.4723 15.5881C20.811 16.1337 20.9804 16.7417 20.9804 17.412V18.0707C20.9804 18.8091 20.7234 19.4354 20.2092 19.9495C19.6951 20.4636 19.0688 20.7207 18.3304 20.7207H6.66956Z" fill="currentColor" />
</svg>
