<svg width="25" height="24" viewBox="0 0 25 24" fill="none" xmlns="http://www.w3.org/2000/svg">
<path d="M12.5 11.7598C11.2587 11.7598 10.2016 11.3234 9.32876 10.4505C8.45594 9.57771 8.01953 8.52063 8.01953 7.27931C8.01953 6.03801 8.45594 4.98331 9.32876 4.11519C10.2016 3.24706 11.2587 2.81299 12.5 2.81299C13.7413 2.81299 14.7984 3.24706 15.6712 4.11519C16.544 4.98331 16.9804 6.03801 16.9804 7.27931C16.9804 8.52063 16.544 9.57771 15.6712 10.4505C14.7984 11.3234 13.7413 11.7598 12.5 11.7598ZM18.3304 20.7207H6.66956C5.93114 20.7207 5.30486 20.4636 4.79073 19.9495C4.2766 19.4354 4.01953 18.8091 4.01953 18.0707V17.412C4.01953 16.7577 4.18983 16.1563 4.53043 15.6079C4.87105 15.0594 5.32357 14.6408 5.88801 14.3522C6.94961 13.8261 8.03239 13.4292 9.13636 13.1614C10.2403 12.8937 11.3615 12.7598 12.5 12.7598C13.6565 12.7598 14.7869 12.8913 15.8913 13.1543C16.9956 13.4174 18.0692 13.812 19.112 14.338C19.6764 14.6253 20.1289 15.0419 20.4695 15.5878C20.8101 16.1336 20.9804 16.7417 20.9804 17.412V18.0707C20.9804 18.8091 20.7234 19.4354 20.2092 19.9495C19.6951 20.4636 19.0688 20.7207 18.3304 20.7207ZM6.66956 18.0707H18.3304V17.4826C18.3304 17.3085 18.2846 17.1501 18.1929 17.0076C18.1012 16.865 17.9804 16.7542 17.8304 16.675C16.9869 16.2627 16.121 15.9488 15.2326 15.7332C14.3442 15.5176 13.4333 15.4098 12.5 15.4098C11.5855 15.4098 10.6746 15.5176 9.76738 15.7332C8.86013 15.9488 7.99419 16.2627 7.16956 16.675C7.01956 16.7542 6.89872 16.865 6.80706 17.0076C6.71539 17.1501 6.66956 17.3085 6.66956 17.4826V18.0707ZM12.4995 9.10974C13.0027 9.10974 13.4337 8.93056 13.7924 8.57221C14.1511 8.21385 14.3304 7.78305 14.3304 7.27981C14.3304 6.7766 14.1512 6.348 13.7929 5.99401C13.4345 5.64003 13.0037 5.46304 12.5005 5.46304C11.9972 5.46304 11.5663 5.64088 11.2076 5.99656C10.8489 6.35226 10.6696 6.77985 10.6696 7.27931C10.6696 7.78268 10.8487 8.2136 11.2071 8.57206C11.5655 8.93051 11.9962 9.10974 12.4995 9.10974Z" fill="#383838"/>
</svg>
